<svg id="Layer_1" data-name="Layer 1" xmlns="http://www.w3.org/2000/svg" viewBox="0 0 1500 1500"><defs><style>.cls-1,.cls-4{fill:none;}.cls-2{fill:#177b57;}.cls-3{fill:#5f9e84;}.cls-10,.cls-11,.cls-12,.cls-13,.cls-14,.cls-15,.cls-16,.cls-3,.cls-5,.cls-6,.cls-7,.cls-8,.cls-9{fill-rule:evenodd;}.cls-4{stroke:#250c03;stroke-width:2.83px;}.cls-10,.cls-12,.cls-13,.cls-14,.cls-4{stroke-linecap:round;stroke-linejoin:round;}.cls-5{fill:#250c03;}.cls-13,.cls-6{fill:#f05146;}.cls-7{fill:#c5352d;}.cls-14,.cls-8{fill:#fff;}.cls-9{fill:#d9c9cb;}.cls-10{fill:#a5ddeb;}.cls-10,.cls-12,.cls-13,.cls-14{stroke:#000;stroke-width:0.22px;}.cls-11{fill:#8bd3da;}.cls-12{fill:#70cacb;}.cls-15{fill:#fbaa3b;}.cls-16{fill:#f79239;}</style></defs><rect class="cls-1" width="1500" height="1500"/><circle class="cls-2" cx="750" cy="714.18" r="527.84"/><path class="cls-3" d="M750,351.32c200.4,0,362.85,162.46,362.85,362.86S950.4,1077,750,1077,387.15,914.57,387.15,714.18,549.6,351.32,750,351.32Z"/><line class="cls-4" x1="804.99" y1="405.5" x2="849.29" y2="405.5"/><line class="cls-4" x1="783.15" y1="405.5" x2="771.89" y2="405.5"/><line class="cls-4" x1="615.27" y1="297.54" x2="722.73" y2="297.54"/><line class="cls-4" x1="593.43" y1="297.54" x2="582.16" y2="297.54"/><path class="cls-4" d="M213.57,776.86A14.14,14.14,0,1,1,199.43,791,14.15,14.15,0,0,1,213.57,776.86Z"/><path class="cls-4" d="M368.66,284.94a14.14,14.14,0,1,1-14.13,14.14A14.13,14.13,0,0,1,368.66,284.94Z"/><path class="cls-4" d="M1082.4,390.07a14.14,14.14,0,1,1-14.14,14.14A14.14,14.14,0,0,1,1082.4,390.07Z"/><circle class="cls-4" cx="310.7" cy="560.18" r="15.55"/><line class="cls-4" x1="246.13" y1="421.39" x2="246.13" y2="467.1"/><line class="cls-4" x1="268.98" y1="444.24" x2="223.27" y2="444.24"/><line class="cls-4" x1="953.61" y1="280.85" x2="953.61" y2="326.57"/><line class="cls-4" x1="976.47" y1="303.71" x2="930.76" y2="303.71"/><line class="cls-4" x1="1221.11" y1="515.11" x2="1188.78" y2="547.43"/><line class="cls-4" x1="1221.11" y1="547.44" x2="1188.78" y2="515.11"/><line class="cls-4" x1="514.05" y1="359.5" x2="514.05" y2="405.22"/><line class="cls-4" x1="536.91" y1="382.36" x2="491.2" y2="382.36"/><path class="cls-4" d="M1135.61,927.83A14.14,14.14,0,1,1,1121.47,942,14.14,14.14,0,0,1,1135.61,927.83Z"/><line class="cls-4" x1="1055.2" y1="994.67" x2="1010.9" y2="994.67"/><line class="cls-4" x1="1077.04" y1="994.67" x2="1088.31" y2="994.67"/><path class="cls-4" d="M1216.26,696.85A14.14,14.14,0,1,1,1202.12,711,14.14,14.14,0,0,1,1216.26,696.85Z"/><path class="cls-5" d="M189.77,1009.88c.43-3.84.88-7.84,2.59-11.27a15.28,15.28,0,0,1,7.51-7.14c3.18-1.47,6.3-1.42,9.64-.88,2-.3,4.07-.54,6.11-.72.27-1.15.61-2.29.87-3.38.91-3.68,2-7.29,3.08-10.92,1.94-6.61,3.88-13.2,5.88-19.79q6.13-20.25,12.41-40.44c.17-.55.34-1.11.52-1.67a4.23,4.23,0,0,1,1-3.32q11.6-37.41,23.28-74.8,25-80,50.13-160c8.88-28.14,17.4-56.53,27.61-84.11.15-.64.32-1.29.5-1.92a85.14,85.14,0,0,1,5.57-14.62c4.43-9,11-16.69,19.34-20.9,17-8.57,37.12-3.73,48.57,13.28a47.68,47.68,0,0,1,6.94,16.19l0,.07c1.39,3.36,2.52,6.86,3.69,10.33,2.35,6.94,4.53,14,6.79,20.94,4.41,13.61,8.58,27.35,12.77,41q12.66,41.34,25.54,82.6,25.57,82.05,52,163.76Q529.55,925.1,537,948c4.35,13.43,9.07,26.83,12.72,40.56a89.61,89.61,0,0,1,9.83,1.31c.21,0,.41-.07.62-.09a25,25,0,0,1,12.1,1.44c7.46,2.94,12.76,9.42,14.73,18.1,1.71,7.55,2.26,18.67-2.79,24.79a14.76,14.76,0,0,1-10.64,5.09,19.27,19.27,0,0,1-6.4-.75,19,19,0,0,1-3-1l-3,.19c-6.3.42-12.59.75-18.89,1-12.28.57-24.56.83-36.84.9-24.88.17-49.75.14-74.63.14H282.45c-13.82,0-27.64,0-41.45-.25-7.08-.13-14.14-.31-21.2-.81-5.8-.41-11.63-.62-17.4-1.36a7.38,7.38,0,0,1-3.49.09,10.91,10.91,0,0,1-7.06-5.27C188.18,1026.09,189,1016.66,189.77,1009.88Z"/><path class="cls-6" d="M236.39,1027.59h0c12.28-.26,24.57-.35,36.85-.35h74.62c49.44,0,98.88-.24,148.32.08,13.83.09,27.65.1,41.46.75q10.61.5,21.19,1.11l3.35.18.1-.09c2.71-2,6.84-.1,9.93-.12,2,0,4.45-.57,5.65-2.56s1.09-5.3,1.08-7.68a31.28,31.28,0,0,0-1.11-8.41,14,14,0,0,0-10.14-10.15c-2.81-.78-5.59-.65-8.43-1a22.32,22.32,0,0,0-3-.11c-2.19.32-4.4.56-6.62.74-1.59,1.44-3.92,1.83-5.51.31-4.77.19-9.54.16-14.2.16H494.9c-23.24,0-46.47.12-69.71,0q-69.93-.48-139.85-.77-19.39-.07-38.78-.28c-9.1-.09-18.33.18-27.47-.42a3,3,0,0,1-.68,1c-2.18,2.09-4,1.54-6.64,1.16a15.77,15.77,0,0,0-6.31.15,7.92,7.92,0,0,0-3.91,1.82c-1.43,1.38-1.75,3.74-2.12,5.71a55.33,55.33,0,0,0-1,15.14c.17,1.74.59,3.76,1.76,5a3.19,3.19,0,0,0,1.35.86c5.3-.73,10.64-.94,16-1.32Q227,1027.8,236.39,1027.59Z"/><path class="cls-6" d="M293,783.13a2.62,2.62,0,0,1,.6-1.56c2-2.27,4.5-3.36,7.05-4.73s5.12-2.75,7.67-4.15c5.09-2.8,10.19-5.61,15.2-8.58q15.24-9,30.13-18.76c19.73-12.87,39-26.68,57.81-41.18,9.85-7.57,19.83-15,29.49-22.91q-1.66-5.41-3.34-10.83-7.05-23-13.87-46.07c-2.11-7.13-4.11-14.29-6.12-21.45-1.14,1.12-2.3,2.2-3.4,3.29-3.12,3.08-6.26,6.12-9.5,9-6.32,5.68-12.75,11.17-19.35,16.42a485.17,485.17,0,0,1-41.71,29.77q-6.15,3.9-12.4,7.58c-2.35,1.39-4.89,3.23-7.5,4.57q-11.82,38.2-23.72,76.36l-10.87,34.91,3.83-1.71Zm178.27-4.31q8.75,27.85,17.58,55.66,6.15,19.35,12.36,38.69c-4.71,3.49-9.27,7.26-13.91,10.83-6.68,5.15-13.37,10.29-20.13,15.29q-36,26.65-74.2,49.44Q373.69,960.22,354,970.64q-9.66,5.1-19.45,9.93c-5.62,2.78-11.52,5.17-17.08,8.17l-40.41.17c-11.7.05-23.39.19-35.08.31-5.84,0-11.72,0-17.59.16l.42-1.17c1.36-3.59,2.49-7.29,3.71-10.94q3.72-11.26,7.36-22.56c4.34-13.49,8.59-27,12.85-40.54,16.29-6.54,32.28-14.29,48.08-22.11a907.47,907.47,0,0,0,92.44-52.77q22.54-14.67,44.38-30.72,10.81-8,21.4-16.32c5.45-4.3,11.16-8.49,16.22-13.43Z"/><path class="cls-7" d="M410,705.28l1.45-1.11c9.84-7.57,19.82-15,29.48-22.91q-1.66-5.41-3.34-10.83-7.05-23-13.87-46.07c-2.11-7.13-4.11-14.29-6.12-21.45-1.14,1.12-2.3,2.2-3.4,3.29-3.12,3.08-6.26,6.12-9.5,9q-7.34,6.59-14.89,12.81c7.34,24.05,14.3,50,20.19,77.24Zm16,108.87c2.74,38.18,2.28,77.19-2.87,115.75q22.41-14.61,44.06-30.61c6.77-5,13.45-10.14,20.13-15.29,4.64-3.57,9.2-7.34,13.91-10.82q-6.2-19.35-12.36-38.7-8.83-27.83-17.58-55.66h0c-5.06,4.94-10.77,9.13-16.22,13.43q-10.61,8.34-21.41,16.32Q429.78,811.39,425.93,814.15Z"/><path class="cls-8" d="M409.17,575.17h0C404.94,568.86,399,564,392.25,562a29.89,29.89,0,0,0-20.94,1.79c-6.8,3.17-12,9.1-15.58,16.25a97.22,97.22,0,0,0-5.18,13.34c-.83,2.51-1.72,5-2.69,7.48-.48,1.21-1,2.47-1.6,3.62a27.78,27.78,0,0,1-2.3,3.06,2.56,2.56,0,0,1-.48.54C338.09,627.56,332,646.77,326.06,666c.58-.3,1.14-.6,1.67-.92q5.34-3.13,10.6-6.43,10.73-6.66,21.14-13.91c13.76-9.59,27.07-20,40-31,3.52-3,7-6,10.56-9,2.12-1.81,4.22-3.9,6.4-5.8-.95-3.35-1.88-6.72-2.64-10.13-.5-2.25-.78-4.54-1.07-6.83a38.42,38.42,0,0,0-3.58-6.83ZM528.53,957.54h0q-6.72-20.38-13.34-40.8-6.41-19.8-12.76-39.61c-3.26,3-6.64,5.73-10,8.53q-8.77,7.3-17.76,14.24-17.94,13.94-36.47,26.84a820.5,820.5,0,0,1-76.34,47.07q-11.1,6.06-22.36,11.78c-2,1-3.94,2-5.92,3.09l13.13,0c46.62-.19,93.24-.54,139.86-.55l38.77,0c4.45,0,9-.06,13.53,0-3.75-10-7-20.33-10.36-30.51ZM441.71,683.92q14.12,45.83,28.47,91.56c-7.06,4.47-13.62,10.15-20.34,15.15q-12.16,9.06-24.52,17.77a933.11,933.11,0,0,1-89.65,55.87c-15.5,8.47-31.17,16.52-47.05,24-12.21,5.79-24.59,11.05-36.94,16.39q18.6-59.18,37-118.45l4.39-2a2,2,0,0,0,2.09,1.67c3.34-.45,6.09-2.29,9.06-4,2.77-1.61,5.53-3.22,8.28-4.86,5.77-3.41,11.49-6.91,17.22-10.4q30.27-18.45,59.17-39.62,14.26-10.44,28.1-21.61c8.5-6.87,16.58-14.21,24.72-21.55Z"/><path class="cls-9" d="M409.17,575.17h0C404.94,568.86,399,564,392.25,562a29.89,29.89,0,0,0-20.94,1.79,27,27,0,0,0-2.8,1.52c6.53,17.46,13.26,36.82,19.74,57.7q5.69-4.56,11.25-9.28c3.52-3,7-6,10.56-9,2.12-1.81,4.22-3.9,6.4-5.8-.95-3.35-1.88-6.72-2.64-10.13-.5-2.25-.78-4.54-1.07-6.83a38.42,38.42,0,0,0-3.58-6.83ZM411,710.24a779.69,779.69,0,0,1,14.49,98q12.25-8.64,24.33-17.64c6.72-5,13.28-10.68,20.34-15.15q-14.35-45.72-28.47-91.56h0c-8.14,7.34-16.22,14.68-24.72,21.55-2,1.6-4,3.19-6,4.77Zm10.87,227.58a441.09,441.09,0,0,1-10.61,50.49q37.67-.18,75.31-.23l38.77,0c4.45,0,9-.06,13.53,0-3.75-10-7-20.34-10.36-30.52h0q-6.72-20.38-13.34-40.8-6.41-19.8-12.76-39.61c-3.26,3-6.64,5.73-10,8.53q-8.77,7.3-17.76,14.24-17.94,13.94-36.47,26.84Q430.12,932.4,421.89,937.82Z"/><path class="cls-5" d="M189.77,1009.88c.43-3.84.88-7.84,2.59-11.27a15.37,15.37,0,0,1,7.51-7.14c3.17-1.47,6.3-1.42,9.64-.88,2-.3,4.07-.54,6.11-.72.27-1.15.61-2.29.87-3.38.91-3.69,2-7.29,3.08-10.93,1.94-6.6,3.88-13.19,5.88-19.78q6.13-20.25,12.41-40.44l.51-1.67a4.31,4.31,0,0,1,1-3.32q11.6-37.41,23.28-74.8,25-80,50.13-160c8.88-28.14,17.4-56.53,27.61-84.11.15-.64.32-1.28.5-1.92a86.4,86.4,0,0,1,5.57-14.63c4.43-9,11-16.68,19.34-20.89,17-8.57,37.12-3.73,48.56,13.28a47.5,47.5,0,0,1,7,16.19.19.19,0,0,1,0,.07c1.4,3.36,2.52,6.86,3.7,10.33,2.35,6.94,4.53,14,6.79,20.94,4.42,13.61,8.58,27.35,12.77,41q12.66,41.34,25.53,82.6,25.59,82.05,52,163.75Q529.55,925.1,537,948c4.34,13.43,9.06,26.84,12.72,40.56a87.27,87.27,0,0,1,9.83,1.32l.62-.11a25,25,0,0,1,12.1,1.45c7.46,2.94,12.76,9.42,14.73,18.09,1.71,7.56,2.26,18.68-2.79,24.8a14.76,14.76,0,0,1-10.64,5.09,19.27,19.27,0,0,1-6.4-.75,21.3,21.3,0,0,1-3-1l-3,.19c-6.29.42-12.59.74-18.89,1-12.28.57-24.56.82-36.85.91-24.87.16-49.74.13-74.62.13H282.45c-13.82,0-27.64,0-41.45-.25-7.08-.13-14.14-.31-21.2-.81-5.8-.42-11.63-.62-17.4-1.36a7.38,7.38,0,0,1-3.49.09,10.91,10.91,0,0,1-7.06-5.27c-3.67-5.94-2.83-15.38-2.08-22.16Zm219.4-434.71h0C404.94,568.86,399,564,392.25,562a29.89,29.89,0,0,0-20.94,1.79c-6.8,3.17-12,9.1-15.58,16.25a97.22,97.22,0,0,0-5.18,13.34c-.83,2.51-1.72,5-2.69,7.48-.48,1.21-1,2.47-1.6,3.62a27.78,27.78,0,0,1-2.3,3.06,2.56,2.56,0,0,1-.48.54C338.09,627.56,332,646.77,326.06,666c.58-.3,1.14-.61,1.67-.92q5.34-3.13,10.6-6.43,10.73-6.66,21.14-13.91c13.76-9.59,27.07-20,40-31,3.54-3,7.05-6,10.57-9,2.12-1.81,4.22-3.9,6.4-5.8-.95-3.35-1.88-6.72-2.64-10.13-.5-2.25-.78-4.54-1.07-6.83a38.42,38.42,0,0,0-3.58-6.83Zm32.54,108.75h0c-8.14,7.34-16.22,14.69-24.72,21.55q-13.85,11.16-28.1,21.62Q360,748.22,329.72,766.7c-5.72,3.49-11.45,7-17.21,10.41q-4.14,2.45-8.29,4.85c-3,1.71-5.72,3.55-9.06,4-2,.28-2.9-3-1.61-4.39,2-2.26,4.49-3.36,7.05-4.72s5.12-2.76,7.67-4.16c5.09-2.79,10.19-5.61,15.2-8.58q15.24-9,30.13-18.76c19.73-12.87,39-26.68,57.82-41.18,9.84-7.57,19.82-15,29.48-22.91q-1.66-5.41-3.34-10.83-7.05-23-13.87-46.07c-2.11-7.13-4.11-14.29-6.12-21.45-1.14,1.12-2.3,2.2-3.4,3.29-3.12,3.08-6.26,6.12-9.5,9-6.32,5.67-12.75,11.17-19.35,16.42a483.77,483.77,0,0,1-41.72,29.77q-6.14,3.9-12.39,7.58c-2.35,1.39-4.89,3.23-7.5,4.57q-11.82,38.2-23.72,76.36-24.11,77.4-48.31,154.76c12.36-5.34,24.73-10.6,36.94-16.38q23.82-11.28,47.06-24a932.86,932.86,0,0,0,89.64-55.86q12.36-8.71,24.52-17.78c6.72-5,13.28-10.68,20.34-15.14q-14.37-45.74-28.47-91.57Zm29.52,94.9h0c-5.07,4.94-10.78,9.13-16.23,13.43q-10.59,8.34-21.41,16.32-21.81,16-44.37,30.72a907.47,907.47,0,0,1-92.44,52.77C281,899.88,265,907.63,248.7,914.17c-4.26,13.53-8.51,27.05-12.85,40.54q-3.63,11.29-7.36,22.56c-1.21,3.65-2.35,7.35-3.71,10.94l-.42,1.17c5.87-.18,11.75-.11,17.59-.17,11.69-.11,23.38-.25,35.08-.29q20.21-.1,40.41-.17c5.56-3,11.46-5.4,17.08-8.18q9.78-4.82,19.45-9.93,19.71-10.41,38.95-21.91Q431,926,467.12,899.29c6.77-5,13.44-10.15,20.13-15.29,4.64-3.57,9.2-7.34,13.91-10.82q-6.2-19.35-12.36-38.7-8.85-27.81-17.57-55.66Zm57.3,178.72h0q-6.72-20.38-13.34-40.8-6.41-19.8-12.76-39.61c-3.25,3-6.64,5.73-10,8.53q-8.77,7.3-17.76,14.24-17.94,13.94-36.47,26.84a820.5,820.5,0,0,1-76.34,47.07q-11.1,6.06-22.36,11.78c-2,1-3.94,2-5.92,3.09l13.13,0c46.62-.2,93.24-.54,139.86-.56h38.77c4.45,0,9-.07,13.53,0-3.75-10-7-20.33-10.36-30.51Zm-292.14,70h0c12.28-.26,24.57-.35,36.85-.35h74.62c49.44,0,98.88-.24,148.33.08,13.82.09,27.64.1,41.45.75q10.61.5,21.19,1.11l3.35.18.11-.09c2.7-2,6.83-.1,9.93-.12,2,0,4.44-.57,5.64-2.57s1.09-5.29,1.08-7.67a31.8,31.8,0,0,0-1.1-8.42,14,14,0,0,0-10.15-10.14c-2.8-.78-5.59-.65-8.42-1a20.84,20.84,0,0,0-2.95-.11c-2.2.33-4.41.56-6.63.74-1.59,1.44-3.92,1.83-5.5.31-4.77.19-9.54.16-14.21.16H494.9c-23.24,0-46.47.12-69.7,0q-69.93-.49-139.86-.77-19.38-.09-38.78-.29c-9.09-.09-18.33.18-27.47-.42a2.9,2.9,0,0,1-.68,1c-2.17,2.09-4,1.54-6.63,1.16a15.82,15.82,0,0,0-6.32.15,8,8,0,0,0-3.91,1.82c-1.43,1.38-1.75,3.74-2.11,5.71a55.34,55.34,0,0,0-1,15.14c.18,1.74.59,3.76,1.76,5a3.12,3.12,0,0,0,1.35.85c5.3-.72,10.64-.93,16-1.31Q226.95,1027.8,236.39,1027.59Z"/><path class="cls-5" d="M568.37,1018.07c.52-.48,1-.92,1.58-1.38s1.25-.87,1.85-1.37a1.48,1.48,0,0,1,2.09.48,2.06,2.06,0,0,1-.12,2.41c-.41.59-.71,1.28-1.14,1.86s-.84,1.17-1.28,1.72a13.86,13.86,0,0,1-3,3c-1.76,1.2-4-1.23-2.88-3.26A14.85,14.85,0,0,1,568.37,1018.07Z"/><path class="cls-5" d="M558.6,1013.43c3.61-3,7.24-6.07,10.86-9.1,2.31-1.94,5.36,2.49,3.09,4.54-3.51,3.18-7,6.38-10.54,9.56-2.73,2.45-6.55,7.08-10.28,6.37a1.8,1.8,0,0,1-1.19-1.77C550.88,1018.82,555.86,1015.74,558.6,1013.43Z"/><path class="cls-5" d="M542.6,1012.33a118.34,118.34,0,0,1,10.77-8.18c2.34-1.58,4.35,2.42,2.12,4.1a129.41,129.41,0,0,0-10.31,8.63c-2.58,2.42-5.82,6.91-9.31,7.17-1,.07-1.52-1.11-1.4-2.08C535,1017.91,539.94,1014.6,542.6,1012.33Z"/><path class="cls-5" d="M523.44,1014.89c3.29-2.58,6.65-5,10-7.52,1.82-1.34,4.09,1.87,2.35,3.47-3,2.79-6,5.6-9.14,8.3-2.61,2.28-6,6.32-9.53,6.21a1.75,1.75,0,0,1-1.5-2.23C516.57,1019.39,520.81,1017,523.44,1014.89Z"/><path class="cls-5" d="M505.72,1013.61l8.87-6.39c2.46-1.78,4.68,2.6,2.28,4.4l-8.78,6.58c-2.4,1.8-5,4.48-8.07,4-.74-.11-1.15-1.19-1-1.93C499.85,1017.07,503.41,1015.28,505.72,1013.61Z"/><path class="cls-5" d="M485.59,1013.11a88.59,88.59,0,0,1,8.14-5.43c2.17-1.24,4.95,2.17,2.77,4.08a89.2,89.2,0,0,1-7.9,6.16c-2.32,1.62-5,3.93-7.8,3.48-.79-.13-1.27-1.32-1.06-2.11C480.51,1016.41,483.5,1014.66,485.59,1013.11Z"/><path class="cls-5" d="M463.47,1017.25l8.55-4.16c2.35-1.14,4.45,2.69,2.06,4l-8.76,4.74c-2.28,1.23-5.38,3.6-7.95,2.68a1.72,1.72,0,0,1-.86-2.38C457.59,1019.39,461.21,1018.35,463.47,1017.25Z"/><path class="cls-5" d="M440.77,1016.16c1.78-.88,3.4-1.83,5.25-2.53,2.88-1.09,4.12,4.06,1.25,5.15a52.8,52.8,0,0,1-5.34,1.47c-1.52.41-3.18,1.21-4.72.66a1.37,1.37,0,0,1-.69-1.91C437.52,1017.41,439.24,1016.92,440.77,1016.16Z"/><path class="cls-5" d="M420.6,1012.86a2.55,2.55,0,0,1,3.11,2c.3,1.46-.39,3.17-1.77,3.53-1.77.46-3.58.81-5.27,0-1.1-.57-.93-2.15-.35-3C417.3,1013.92,419.12,1013.31,420.6,1012.86Z"/><path class="cls-5" d="M528.55,975a18.13,18.13,0,0,1-6.37,3.77c-2.11.6-3-2.44-1.42-3.78a17.66,17.66,0,0,1,6.64-3.08C529.14,971.46,529.86,973.88,528.55,975Z"/><path class="cls-5" d="M522.36,961.46c-3.31,2.59-6.66,5.09-10.05,7.56a52.86,52.86,0,0,1-5,3.35,5.54,5.54,0,0,1-4.77.76,1.45,1.45,0,0,1-.86-1.71c.91-4.08,4.75-6,7.75-7.95,3.47-2.3,6.95-4.54,10.48-6.7C522.69,955.08,524.89,959.49,522.36,961.46Z"/><path class="cls-5" d="M513.25,950.56a61.86,61.86,0,0,0-9.27,6.27c-1.49,1.19-5.69,5.77-7.35,2.43-1.53-3.1,3.36-6.43,5.05-7.76a44,44,0,0,1,9.82-5.64C513.88,944.82,515.57,949.31,513.25,950.56Z"/><path class="cls-5" d="M509.21,929.91l-7.06,5.86c-1.92,1.58-4.22,4.24-6.77,3.86a1.56,1.56,0,0,1-1.33-2c.49-2.89,3.43-4.52,5.4-6.1l7.51-6C509.32,923.67,511.49,928,509.21,929.91Z"/><path class="cls-5" d="M503.63,914.06l-2.84,2.53a15.33,15.33,0,0,1-3.06,2.44,2,2,0,0,1-2.46-.36,2.58,2.58,0,0,1-.31-2.79c1.36-2.21,3.53-3.85,5.34-5.6a2.22,2.22,0,0,1,3.33,0C504.45,911.21,504.64,913.17,503.63,914.06Z"/><path class="cls-5" d="M498.15,904.11A1.73,1.73,0,0,1,497,904a2,2,0,0,1-.89-.86,4.45,4.45,0,0,1-.19-.51,2.31,2.31,0,0,1,.48-2.06l0,0s0,0,0-.06.22-.33.34-.49l.43-.38a2.09,2.09,0,0,1,1.1-.34,2.2,2.2,0,0,1,2,1.51,2.68,2.68,0,0,1-.28,2.42A2,2,0,0,1,498.15,904.11Z"/><path class="cls-5" d="M463.68,771.1c-1.9,1.73-3.78,3.71-6.09,4.69a1.61,1.61,0,0,1-1.91-.88,2.23,2.23,0,0,1,.26-2.33c1.42-2,3.63-3.36,5.51-4.75C463.17,766.55,465.32,769.6,463.68,771.1Z"/><path class="cls-5" d="M457.05,757.85l-6.14,5.87c-1.38,1.31-4,4.11-5.83,1.93s.61-4.55,1.93-5.78l6.49-6C456,751.53,459.53,755.47,457.05,757.85Z"/><path class="cls-5" d="M451.64,734.46c-2.36,2.35-4.73,4.69-7.09,7-1.81,1.79-4.08,5-6.73,4.64a1.45,1.45,0,0,1-1.32-1.49c0-3.1,2.89-5,4.76-6.88l7.14-7C450.62,728.6,453.87,732.24,451.64,734.46Z"/><path class="cls-5" d="M446.15,715.61c-1.58,1.4-3.14,2.85-4.77,4.19-1.34,1.11-2.92,2.68-4.7,2.18a1.29,1.29,0,0,1-.82-1.23c0-2,1.57-3.29,2.74-4.47,1.44-1.46,3-2.79,4.46-4.17C445.23,710.09,448.35,713.67,446.15,715.61Z"/><path class="cls-5" d="M408.69,598.78c-2.16,1.26-4.82,3.45-7.3,3.5-2.06,0-2.89-2.8-1.61-4.4a8.7,8.7,0,0,1,3.55-2.23l3.59-1.62C409.34,592.94,411,597.44,408.69,598.78Z"/><path class="cls-5" d="M404.23,587.55c-3.26,1.42-6.64,3.37-10.15,3.74-2.8.29-3.35-4.1-1.34-5.59,2.89-2.14,6.78-3,10-4.15C406.2,580.32,407.48,586.15,404.23,587.55Z"/><path class="cls-5" d="M394.24,573.19a15.61,15.61,0,0,1-1.47.6,6.19,6.19,0,0,1-1,.21,1.94,1.94,0,0,1-.83,0h-.22a2.57,2.57,0,0,1-2.36-1.8,3.26,3.26,0,0,1,.53-3.2l0,0,.39-.57a6.8,6.8,0,0,1,1.07-.94,15.45,15.45,0,0,1,1.36-.92,3.05,3.05,0,0,1,4.54,1.73,3.86,3.86,0,0,1,0,2.8A3.54,3.54,0,0,1,394.24,573.19Z"/><path class="cls-5" d="M1095.78,743.82c0-55.79.07-111.58-.13-167.38-.05-15.7.15-31.44-.24-47.14-.1-3.85-.24-7.7-.54-11.54-.15-1.92,0-3.86-.18-5.77s-1-3.8-1.19-5.77l-1-10.54c.07-2.41.13-4.82.21-7.22.14-4,.56-8.14,0-12.14-1.08-7.71-7-11.76-14.32-12.66-6.56-.81-13.37-.58-20-.46-40.36-3.12-80.73-2.74-121.21-2.73H812.74c-82.9,0-165.82-.37-248.73.15-23.27.15-46.54.18-69.8.45-11.19.14-22.39.21-33.57.5-1.44-.17-2.88-.3-4.33-.39a150.8,150.8,0,0,0-24.78.57c-7.32.78-14.88,2.64-19.86,8.5-4.52,5.31-5.94,12.3-6,19.13,0,4.18.16,8.32.39,12.49,0,.11,0,.21,0,.33,0,.36-.07.73-.1,1.11-.47,6.72-.89,13.46-1.13,20.19-.48,13.45-.59,26.91-.59,40.38q0,40.86,0,81.72,0,81.71,1.23,163.44c.23,15.38.31,30.81,1.47,46.16.08,1,.15,2.1.23,3.16-.27,2-.53,4-.65,6.07-.28,4.48-.57,9-.71,13.45-.29,9.12-.25,18.24-.15,27.37.05,4-.38,8.56.83,12.49a12.22,12.22,0,0,0,7.59,7.87,24.62,24.62,0,0,0,9.89,1.54c3.53-.09,7.07-.2,10.6-.32a64.84,64.84,0,0,0,11.08,1.51c5.53.3,11.09.3,16.63.35,10.24.1,20.47,0,30.71,0H614.22c-1.05,2.49-2.1,5-3.17,7.45q-3.69,8.49-7.58,16.9-3.79,8.19-7.71,16.33c-1.37,2.87-2.61,5.82-3.78,8.78-.24.61-.47,1.19-.68,1.78l-2.08.13c-2.18.14-4.37.25-6.53.44l-1.91-.17c-4.61-.36-9.35-1.13-14-.35-8.67,1.49-13.93,9.84-15.34,18a104.57,104.57,0,0,0-1.08,14.15c-.19,4.73-.59,9.53-.52,14.28.07,4.53,1.67,9.1,5.82,11.44,3.4,1.91,7.44,2,11.23,1.64,2.83-.3,5.66-.63,8.49-1,1.69,0,3.38,0,5,0,5.77.17,11.54.15,17.31.15H846.87q19.73,0,39.44-.27c13.38-.2,27.13.23,40.33-2.19a2.73,2.73,0,0,0,1.77-1.13,11.23,11.23,0,0,0,2.16-1.35c6.4-5.29,6.67-14.82,6.82-22.45a103.93,103.93,0,0,0-.63-13.55c-.51-4.4-.91-9-3-13-4.17-8.14-13.48-7.62-21.24-7.15-4,.25-8.15.47-12.24.8a67.67,67.67,0,0,0-3.74-9.33c-2.14-5-4.29-9.89-6.39-14.86S886,944.38,884,939.45q-1.62-3.91-3.22-7.85c-.37-.9-.71-1.85-1-2.8q26-.07,52-.26c23.46-.18,46.92-.33,70.37-.57,21.78-.22,43.66.25,65.34-2,6.89-.08,14.35-.75,19.65-5.52a18.54,18.54,0,0,0,3.82-4.88,3.75,3.75,0,0,0,2.74-3.37c.92-7,1-14.09,1.25-21.16s.48-14.1.64-21.16c.31-13.94.21-27.9.21-41.85Q1095.78,785.92,1095.78,743.82Z"/><path class="cls-8" d="M1062.89,919.1h0c-1.1.09-2.22.17-3.32.24-16.55-1.24-33.16-1.09-49.77-1.26q-31.35-.33-62.69-.53c-41.79-.32-83.58-.27-125.38-.27H467.33a11.75,11.75,0,0,0-5.33-1.43,2.13,2.13,0,0,0,.88-2.43c-1.09-3.61-5.63-5.61-8.61-7.51l-10.53-6.7c-7-4.47-14.24-8.61-21.45-12.77-2.21-1.27-3.9,1.9-2,3.36,6.56,4.9,13.11,9.84,19.89,14.46l9.93,6.77c2.08,1.42,4.76,3.81,7.48,4.85-.4,0-.8,0-1.2,0-4.3.13-8.61.42-12.91.64-7.8.39-15.61,1.37-23.41,1.55-2.29.06-4.84-.06-5.74-2.53-1.21-3.31-.56-7.8-.62-11.26-.14-8.33-.33-16.66-.82-25-.22-3.68-.52-7.35-.83-11,.91-16.2,1.85-32.4,2.1-48.65.44-27.24.58-54.48.79-81.72q.62-81.74.57-163.45c0-15.38.12-30.77-.43-46.15-.28-7.69-.63-15.39-1.17-23.07-.13-1.92-.21-3.85-.4-5.77q-.09-.8-.24-1.59a55.6,55.6,0,0,1,.44-7.75c1-6.47,3.73-13.62,10.34-16.05,3.84-1.42,8-1.7,12-1.95,4.69-.29,9.37-.34,14.07-.45l15-.33c2.5-.06,5-.17,7.47-.12a20.32,20.32,0,0,0,3.92-.13c3.34,0,6.67,0,10,.08,20.73.28,41.46.33,62.19.46,41.45.26,82.91.23,124.37.24l248.74,0c35.19,0,70.37.46,105.5-.94a12.66,12.66,0,0,0,2.82.71c2,.23,4.11.34,6.17.37,4.1.07,8.22.05,12.33.08,7.91.05,15.81,0,23.72,0,4.86,0,11.9-.27,13.11,5.67.69,3.43.41,7.18.49,10.67.09,3.95.16,7.9.27,11.85,0,1.92.13,3.84.21,5.77a52.27,52.27,0,0,0-1.1,7.84c-.07,3.53-.4,7.05-.52,10.58-.47,13.93-.29,27.9-.36,41.85-.15,28-.11,56.11-.15,84.17q-.09,83.7,0,167.38c0,15.71-.25,31.44.11,47.14.17,7.7.41,15.4.65,23.09.15,4.78.23,9.59.49,14.37-.16,4.29-1.07,8.35-4.22,11.73C1077.06,918.85,1068.73,918.65,1062.89,919.1Z"/><path class="cls-10" d="M1057.17,858.69a2.21,2.21,0,0,0,2.12-2.57,1.45,1.45,0,0,0,1.13-1.38c.24-2.88.74-5.75.81-8.64s.09-5.76.14-8.65c.09-5.76.18-11.52.24-17.29q.18-17.28.37-34.58.38-34.59.37-69.17,0-69.17,0-138.34c0-12.81,0-25.62-.16-38.43q-.15-9.84-.4-19.69c-.06-2.61-.11-5.2-.21-7.79a25.36,25.36,0,0,0,.37-3.54c.12-2.55.18-5.47-.86-7.86a6.41,6.41,0,0,0-5.41-3.89,14,14,0,0,0-3.23.06,9.24,9.24,0,0,0-1.65.4c-19-1.12-38-.51-57-.48-19.21,0-38.41-.44-57.62-.55-38.42-.21-76.83-.62-115.26-.63q-114.64,0-229.32.08c-21.56,0-43.12.05-64.68.32q-15.88.18-31.75.4h-.66a1.47,1.47,0,0,0-.46-.36c-2.87-1.33-6.23-1.35-9.36-1.45-3.42-.12-6.87,0-10.3.07-6.8.08-13.6.05-20.4.34-4.85.21-12.84.45-14,6.46a16.11,16.11,0,0,0-.19,3.49c-1.63,22.12-1,44.49-1.16,66.66q-.19,34.14-.32,68.27-.19,68.5-.12,137v38.46c0,9.73-.05,19.44.43,29.14-.82,2.78-1.2,5.63.17,8.37.14.27.29.51.44.76,0,.06,0,.12,0,.18a1.6,1.6,0,0,0,1.54,1.56c2.14,1.79,5.12,2.41,8,2.64,5.08.4,10.28.25,15.39.21,8.07,1,16.18.84,24.35.92,9.54.09,19.07.08,28.61.09l58.41.05,116.83.12c77.88.07,155.76.57,233.65.39q32.78-.08,65.56-.21C1013.41,859.52,1035.41,860.25,1057.17,858.69Z"/><path class="cls-11" d="M1057.17,858.69a2.21,2.21,0,0,0,2.12-2.57,1.45,1.45,0,0,0,1.13-1.38c.24-2.88.74-5.75.81-8.64s.09-5.76.14-8.65c.09-5.76.18-11.52.24-17.29q.18-17.28.37-34.58.38-34.59.37-69.17,0-58.08,0-116.17c-99.22,82.94-287.66,193.15-624.09,251.34a9.16,9.16,0,0,0,.54,1.36c.14.26.29.51.44.75,0,.07,0,.13,0,.19a1.6,1.6,0,0,0,1.54,1.56c2.14,1.79,5.12,2.41,8,2.64,5.08.4,10.28.25,15.4.21,8.06,1,16.17.84,24.34.91,9.54.09,19.07.08,28.61.09l58.41.06q58.43,0,116.83.12c77.88.07,155.76.57,233.65.39q32.78-.08,65.56-.21C1013.41,859.52,1035.41,860.25,1057.17,858.69Z"/><path class="cls-12" d="M759.18,885.4h0c-4.06,14.67-26,21.56-34.94,7.24a15.73,15.73,0,0,1,1.55-18.1c3.06-.93,5.89-2.45,9.05-3.17a26.58,26.58,0,0,1,10.66-.22C752.48,872.47,761.54,876.9,759.18,885.4Z"/><path class="cls-13" d="M752.19,867.14a32.14,32.14,0,0,0-15.63-1.84c-5.25.67-11.19,2.24-14.22,6.88a1.6,1.6,0,0,0,.07,1.91,18.19,18.19,0,0,0-3.19,16.31c2.53,8.65,11.79,14.79,20.65,14.73,9.53-.06,18.43-6.2,23-14.4,2.46-4.42,3.27-9.87.95-14.51C761.57,871.74,756.69,868.89,752.19,867.14Z"/><path class="cls-12" d="M869.08,929.45h0l-12.14-.6h11.94C868.94,929,869,929.25,869.08,929.45Z"/><path class="cls-14" d="M881.15,958h0q3.23,7.34,6.53,14.62c.85,1.89,1.78,4.19,2.9,6.4q-3.74-.06-7.5-.06l-33.67,0-67.81,0q-67.82,0-135.63.2-18.76.09-37.52.35l-6.65.11c.9-1.61,1.7-3.23,2.46-4.68,2.94-5.61,5.67-11.31,8.36-17q3.3-7.05,6.44-14.18c14.86,2.18,30.22,2,45.17,2.29,16.49.37,33,.69,49.48.71,33,0,66,0,99-.3,18.54-.17,37.27.23,55.72-1.72,1.94.25,3.61-1.83,3.61-3.61a4.21,4.21,0,0,0,0-.62,5.54,5.54,0,0,0,1.38-.82l1.21,2.92C876.7,947.73,878.89,952.89,881.15,958Z"/><path class="cls-14" d="M923.45,989.51h0a10,10,0,0,1,1.4,4.37,92.51,92.51,0,0,1,1,25.63c-.31,2.94-1.14,6.06-3.16,8.11a6.57,6.57,0,0,1-1.8,1.32c-9.83-1.19-19.86-1.06-29.73-1.23-11.85-.21-23.72-.37-35.59-.37H597.15c-5.52-1.45-11.46-.67-17.21.19l-7.23.3a15.1,15.1,0,0,0-5.53,1.42c-1.2.12-2.41.19-3.6.19-2.11,0-3.31,0-3.57-2.27-.42-3.8.13-7.91.23-11.73.12-4.1.12-8.22.43-12.32.38-5.18,2-12.28,7.87-13.77,4-1,8.64-.37,12.7-.46l2.63-.09,3.42.23c5.6.36,11.22.49,16.83.65,11.22.32,22.45.34,33.67.39q33.91.16,67.82.2,67.82.07,135.63,0l37.51,0c11,0,21.93,0,32.81-1.52,3.2-.22,6.56-.58,9.67-.08A6.25,6.25,0,0,1,923.45,989.51Z"/><path class="cls-5" d="M1095.78,743.82q0-83.69-.12-167.38c-.06-15.7.15-31.44-.25-47.14-.1-3.85-.24-7.7-.54-11.54-.15-1.92,0-3.86-.18-5.77s-1-3.8-1.19-5.77l-1-10.54c.07-2.41.13-4.82.21-7.22.14-4,.56-8.14,0-12.14-1.08-7.71-7-11.76-14.32-12.66-6.56-.81-13.37-.58-20-.46-40.36-3.12-80.73-2.74-121.21-2.73H812.74c-82.9,0-165.83-.37-248.73.15-23.27.15-46.54.18-69.8.46-11.19.13-22.39.21-33.57.5-1.44-.17-2.88-.31-4.33-.39a149.7,149.7,0,0,0-24.78.56c-7.32.78-14.88,2.64-19.86,8.5-4.52,5.31-5.94,12.3-6,19.13,0,4.18.16,8.32.39,12.5,0,.1,0,.21,0,.32,0,.36-.07.74-.1,1.11-.47,6.72-.89,13.46-1.13,20.19-.48,13.46-.59,26.92-.59,40.38q0,40.86,0,81.72,0,81.71,1.22,163.45c.24,15.37.32,30.8,1.48,46.15.08,1,.15,2.11.23,3.16-.27,2-.53,4-.65,6.07-.28,4.48-.57,9-.71,13.45-.28,9.12-.25,18.24-.15,27.37.05,4-.38,8.57.84,12.49a12.18,12.18,0,0,0,7.58,7.87,24.62,24.62,0,0,0,9.89,1.54c3.53-.09,7.07-.2,10.6-.32a66,66,0,0,0,11.08,1.52c5.53.29,11.09.29,16.63.34,10.24.1,20.47,0,30.71,0H614.22q-1.56,3.74-3.17,7.45-3.69,8.49-7.58,16.9-3.79,8.19-7.71,16.33c-1.37,2.88-2.61,5.82-3.78,8.78-.24.61-.47,1.19-.67,1.78l-2.09.13c-2.18.14-4.37.25-6.53.44l-1.91-.17c-4.61-.36-9.35-1.13-13.95-.34-8.67,1.48-13.94,9.83-15.35,17.94a104.69,104.69,0,0,0-1.08,14.15c-.18,4.74-.59,9.53-.51,14.28.06,4.53,1.66,9.1,5.81,11.44,3.4,1.92,7.44,2,11.23,1.64q4.25-.45,8.49-1c1.69,0,3.38,0,5,0,5.77.16,11.54.15,17.32.15H846.87q19.73,0,39.45-.28c13.37-.2,27.13.23,40.33-2.18a2.76,2.76,0,0,0,1.76-1.14,10.48,10.48,0,0,0,2.16-1.35c6.4-5.29,6.68-14.81,6.82-22.45a102.29,102.29,0,0,0-.63-13.55c-.51-4.4-.91-9-3-13-4.17-8.15-13.47-7.63-21.24-7.15-4,.25-8.15.47-12.24.79a67,67,0,0,0-3.74-9.32c-2.14-5-4.29-9.9-6.38-14.87S886,944.38,884,939.45c-1.09-2.61-2.16-5.23-3.23-7.85-.37-.9-.71-1.85-1-2.8q26-.07,52-.26c23.45-.18,46.9-.33,70.36-.57,21.78-.22,43.66.25,65.34-2,6.89-.08,14.35-.75,19.65-5.51a18.62,18.62,0,0,0,3.83-4.89,3.76,3.76,0,0,0,2.74-3.36c.91-7,1-14.1,1.24-21.16s.48-14.12.64-21.17c.31-13.94.22-27.9.22-41.85V743.82ZM636.77,937h.43l-.46,0,0,0Zm36.31-1.1h0c1.54,0,3.08-.05,4.62-.08l.49,0,.43,0-8.14.16c-4.18.09-8.37.19-12.54.3,5-.19,10.1-.36,15.14-.46Zm250.37,53.66h0a10,10,0,0,1,1.4,4.37,92.51,92.51,0,0,1,1,25.63c-.31,2.94-1.14,6.06-3.16,8.11a6.57,6.57,0,0,1-1.8,1.32c-9.83-1.19-19.86-1.06-29.73-1.23-11.85-.21-23.72-.37-35.59-.37H597.15c-5.52-1.45-11.46-.67-17.21.19l-7.23.3a15.1,15.1,0,0,0-5.53,1.42c-1.21.11-2.4.19-3.6.19-2.1,0-3.31,0-3.57-2.27-.42-3.81.13-7.91.23-11.73.12-4.1.12-8.23.43-12.32.38-5.18,2-12.28,7.87-13.77,4-1,8.65-.37,12.7-.46l2.64-.09,3.41.23c5.61.36,11.22.49,16.83.65,11.22.32,22.45.34,33.67.39q33.91.16,67.82.2,67.82.07,135.63,0l37.51,0c11,0,21.93,0,32.81-1.52a44.09,44.09,0,0,1,9.67-.09,6.44,6.44,0,0,1,2.22.89ZM881.15,958h0q3.23,7.34,6.53,14.62c.85,1.89,1.78,4.19,2.9,6.4q-3.74-.06-7.5-.06l-33.67,0-67.81,0q-67.82,0-135.63.2-18.76.09-37.52.36l-6.65.1c.9-1.61,1.7-3.23,2.46-4.68,2.94-5.61,5.67-11.31,8.35-17q3.32-7.05,6.45-14.18c14.86,2.18,30.22,2,45.17,2.29,16.49.37,33,.69,49.48.71,33,0,66,0,99-.3,18.54-.17,37.27.23,55.72-1.72,1.94.25,3.61-1.83,3.61-3.6a4.23,4.23,0,0,0,0-.63,5.25,5.25,0,0,0,1.38-.82l1.21,2.92c2.16,5.19,4.35,10.35,6.61,15.49Zm-12.07-28.58h0l-12.14-.6h11.94c.06.2.13.41.2.61Zm193.81-10.34h0l-3.32.23c-16.55-1.25-33.16-1.1-49.77-1.26q-31.35-.33-62.69-.53c-41.79-.32-83.58-.27-125.38-.27H467.33a11.63,11.63,0,0,0-5.33-1.43,2.13,2.13,0,0,0,.88-2.44c-1.09-3.6-5.63-5.6-8.61-7.5l-10.53-6.7c-7-4.47-14.24-8.61-21.45-12.77-2.21-1.27-3.9,1.9-2,3.36,6.56,4.9,13.11,9.84,19.89,14.46l9.93,6.78c2.08,1.41,4.76,3.8,7.48,4.84l-1.2,0c-4.3.13-8.61.42-12.91.64-7.8.39-15.61,1.37-23.41,1.55-2.3.06-4.84-.06-5.74-2.53-1.21-3.31-.56-7.8-.62-11.26-.14-8.33-.33-16.66-.82-25-.22-3.68-.52-7.36-.83-11,.91-16.21,1.85-32.4,2.1-48.65.44-27.24.58-54.48.79-81.72q.62-81.74.57-163.45c0-15.38.12-30.77-.43-46.14-.28-7.71-.63-15.4-1.17-23.08-.13-1.92-.21-3.85-.4-5.77q-.09-.8-.24-1.59a55.83,55.83,0,0,1,.44-7.76c1-6.46,3.74-13.61,10.34-16,3.84-1.42,8-1.7,12-1.95,4.69-.29,9.37-.35,14.07-.45l15-.33c2.5-.06,5-.17,7.47-.12a20.32,20.32,0,0,0,3.92-.13c3.34,0,6.67,0,10,.08,20.73.28,41.46.33,62.18.46,41.46.26,82.92.23,124.37.24l248.75,0c35.19,0,70.37.46,105.5-.94a12.53,12.53,0,0,0,2.82.71c2,.23,4.11.34,6.17.37,4.11.07,8.22.05,12.33.08,7.91.05,15.81,0,23.72,0,4.86,0,11.9-.27,13.11,5.68.7,3.42.41,7.17.49,10.66.09,3.95.16,7.9.27,11.85,0,1.92.13,3.84.22,5.77a52.29,52.29,0,0,0-1.11,7.84c-.07,3.53-.4,7.05-.52,10.58-.48,13.93-.29,27.91-.36,41.85-.15,28-.11,56.11-.15,84.17q-.09,83.7,0,167.39c0,15.7-.25,31.43.11,47.13.17,7.7.41,15.4.65,23.09.15,4.78.23,9.59.49,14.38-.16,4.28-1.06,8.34-4.22,11.72C1077.06,918.85,1068.73,918.65,1062.89,919.11Z"/><path class="cls-5" d="M1057.17,858.69a2.21,2.21,0,0,0,2.12-2.57,1.45,1.45,0,0,0,1.13-1.38c.23-2.88.74-5.75.81-8.64s.09-5.76.14-8.65c.09-5.76.18-11.52.24-17.29q.18-17.28.37-34.58.38-34.59.37-69.17,0-69.17,0-138.34c0-12.81,0-25.62-.16-38.43q-.15-9.85-.4-19.69c-.06-2.61-.11-5.2-.21-7.79a25.36,25.36,0,0,0,.37-3.54c.12-2.55.18-5.47-.86-7.86a6.39,6.39,0,0,0-5.41-3.89,13.86,13.86,0,0,0-3.22.06,10.05,10.05,0,0,0-1.66.4c-19-1.12-38-.51-57-.48-19.21,0-38.41-.44-57.62-.55-38.42-.21-76.83-.62-115.26-.63q-114.64,0-229.32.08c-21.56,0-43.12.05-64.68.32q-15.88.18-31.75.4h-.66a1.37,1.37,0,0,0-.46-.36c-2.87-1.33-6.23-1.35-9.36-1.45-3.42-.12-6.87,0-10.3.07-6.8.08-13.6.05-20.4.34-4.85.21-12.85.45-14,6.46a16.11,16.11,0,0,0-.19,3.49c-1.63,22.12-1,44.49-1.16,66.66q-.19,34.14-.32,68.26-.19,68.52-.12,137v38.46c0,9.72-.05,19.43.43,29.14-.82,2.78-1.2,5.63.18,8.37.13.27.28.51.43.76,0,.06,0,.12,0,.18a1.62,1.62,0,0,0,1.54,1.57c2.14,1.78,5.12,2.4,8,2.63,5.08.4,10.28.25,15.4.21,8.06,1,16.17.84,24.34.92,9.53.09,19.07.08,28.61.09l58.41.05,116.83.12c77.88.07,155.76.57,233.65.39q32.78-.08,65.56-.21c21.81-.13,43.81.6,65.57-1Zm-233.65-5.5h0q-116.82.43-233.65.35l-65.57.06c-10.73,0-21.45,0-32.18.07-3.62,0-7.23,0-10.85,0-3.59-1.79-9-.89-12.84-.86-4.48,0-8.95.1-13.44.22l-6.19.18c-1.64,0-3.43.1-4.9-.8a4.06,4.06,0,0,1-1.16-1.1c.83-10.67.86-21.35.86-32.06V716.87q0-68.5-.4-137c-.06-12.82-.08-25.64-.23-38.46-.09-7.52-.11-15.06-.32-22.58h0c1.54-1.75,1.16-4.42,1.24-6.63a77.21,77.21,0,0,1,.43-8.61c.23-1.52.71-2.19,2.24-2.44a26.21,26.21,0,0,1,4.34-.15l8.49,0c2.32,0,4.64,0,7,0,17.73,1.67,35.73,1.13,53.51,1.35q28.82.36,57.62.39l115.25.1q57,.06,114.08,0h57.63c19.21,0,38.4-.45,57.62-.55,21.57-.13,43.11-.66,64.68-.64,21.3,0,42.74.79,64-.47h0c1,.16,2,0,3,.22a2.91,2.91,0,0,1,2.44,3c.24,3-.68,6.62-.11,9.72-.29,6.9-.2,13.85-.29,20.67-.16,11.54-.2,23.06-.22,34.59q-.06,34.59,0,69.17c0,46.11-.18,92.23.31,138.34q.21,19.22.41,38.43.1,9.84.25,19.69c.06,3.2.11,6.41.16,9.61s.51,6.39.79,9.6l-.27,0c-19.39-1.4-39-.82-58.41-.92s-39-.17-58.42-.22Q881.93,852.95,823.52,853.19Z"/><path class="cls-5" d="M752.19,867.14a32.14,32.14,0,0,0-15.63-1.84c-5.25.67-11.19,2.24-14.22,6.88a1.6,1.6,0,0,0,.07,1.91,18.19,18.19,0,0,0-3.19,16.31c2.53,8.65,11.79,14.79,20.65,14.74,9.53-.07,18.43-6.21,23-14.41,2.46-4.42,3.27-9.87.95-14.52-2.24-4.47-7.12-7.32-11.62-9.07Zm7,18.26h0c-4.06,14.67-26,21.56-34.94,7.24a15.75,15.75,0,0,1,1.55-18.1c3.06-.93,5.89-2.45,9.05-3.17a26.58,26.58,0,0,1,10.66-.22C752.48,872.46,761.54,876.9,759.18,885.4Z"/><path class="cls-5" d="M417.18,904.34a39.92,39.92,0,0,0,8.87,6.46c2,1,6.81,3.72,8.49.85,1.56-2.66-2.41-4.26-4.19-5.09a34.88,34.88,0,0,1-9.18-6.21C418.53,897.87,414.55,901.83,417.18,904.34Z"/><path class="cls-5" d="M481.46,900.77c-3.56-2.72-7.17-5.38-10.78-8-7.2-5.32-14.62-10.32-21.84-15.61-2-1.47-4.65,1.9-2.68,3.47,7,5.57,13.78,11.42,20.8,17,3.48,2.75,7,5.5,10.48,8.2,2.83,2.16,6.94,6.41,10.8,5.94a1.76,1.76,0,0,0,1.66-2.17C489.34,905.7,484.27,902.92,481.46,900.77Z"/><path class="cls-5" d="M497.59,890.33c-6.73-5-13.74-9.5-20.82-13.92-2.56-1.59-4.68,2.27-2.33,4,6.73,4.85,13.28,9.92,19.83,15,6.16,4.78,12.09,10.84,19.65,13.31a1.3,1.3,0,0,0,1.45-1.89C511.55,899.65,504,895,497.59,890.33Z"/><path class="cls-5" d="M530.92,895.59c-2.78-2.25-5.64-4.42-8.5-6.57-5.69-4.3-11.57-8.34-17.27-12.62-1.77-1.33-4.09,1.66-2.38,3.08,5.49,4.56,10.78,9.35,16.28,13.9,2.67,2.2,5.36,4.38,8.09,6.51,2.43,1.9,5.33,4.28,8.49,4.55a1.49,1.49,0,0,0,1.43-1.88C536.12,899.68,533.22,897.45,530.92,895.59Z"/><path class="cls-5" d="M550.11,898.59a55.35,55.35,0,0,1-7.57-7.19c-2.37-2.71-6.35,1.27-3.95,4a57.35,57.35,0,0,0,7.56,7c1.74,1.35,5.64,5,7.83,2.5S551.72,899.83,550.11,898.59Z"/><path class="cls-5" d="M575.06,900.85c-1.55-1.3-3.41-1.77-5.2-2.68a26.66,26.66,0,0,1-5-3.25c-3.07-2.57-7.51,1.9-4.4,4.4a32.88,32.88,0,0,0,6,3.95c2,1,4.45,2.31,6.76,2C575.19,905.07,577,902.47,575.06,900.85Z"/><path class="cls-5" d="M584.53,1016.21c-4.07-1.51-7.49-3-10.35-6.43-1.44-1.74-4.31.51-3.11,2.4,2.83,4.45,7.43,8.21,12.81,8.82C586.79,1021.32,586.92,1017.1,584.53,1016.21Z"/><path class="cls-5" d="M608.92,1016.68c-2.85-2-5.77-3.83-8.65-5.74-5.77-3.83-11.68-7.42-17.47-11.21-2.55-1.67-4.79,2.33-2.37,4.06,5.68,4,11.21,8.19,16.9,12.17,2.85,2,5.66,4,8.54,5.94,2.56,1.72,4.94,3.52,8.15,3a1.44,1.44,0,0,0,1-1.75C614.33,1020,611.4,1018.39,608.92,1016.68Z"/><path class="cls-5" d="M638.27,1016.91c-3.38-2.3-7.66-3.65-11.31-5.47s-7.41-3.94-11-6.17c-2.26-1.4-4.14,2-2,3.51,3.53,2.53,7.15,4.92,10.9,7.12,3.53,2.07,7.48,4.65,11.51,5.54A2.49,2.49,0,0,0,638.27,1016.91Z"/><path class="cls-5" d="M653.41,1012.7c-3.17-1.38-6.37-2.68-9.6-3.93-1.75-.67-2.89,2.13-1.27,3,3.17,1.73,6.37,3.36,9.6,5,2.87,1.41,5.91,3.19,9.2,3.13a1.22,1.22,0,0,0,.84-2.05C660,1015.17,656.46,1014,653.41,1012.7Z"/><path class="cls-5" d="M683.05,1013c-2.39-1-4.82-2-7.24-2.92-3.08-1.23-4.49,3.83-1.38,5,4,1.5,9.2,4.56,13.52,3.75a1.47,1.47,0,0,0,.88-2.15C687.38,1014.72,685.21,1013.89,683.05,1013Z"/><path class="cls-5" d="M623.16,970.88a5.78,5.78,0,0,0-2.65-2.76,15.17,15.17,0,0,0-4.17-2.11c-2.44-.65-3.6,2.15-2.26,3.88a15,15,0,0,0,3.44,2.84,9.89,9.89,0,0,0,1.83,1.08,7,7,0,0,0,2.31.32c1.55.15,2.31-1.74,1.68-2.93A3.3,3.3,0,0,1,623.16,970.88Z"/><path class="cls-5" d="M642.47,969.37c-1.88-1.42-3.79-2.82-5.72-4.17-4-2.8-8-5.48-12.14-8.07-1.58-1-3.45,1.35-2,2.62,3.64,3.23,7.32,6.35,11.12,9.4,3,2.42,7.08,6.86,11.22,6.64a1.35,1.35,0,0,0,1.28-1.68C645.72,972,644.12,970.62,642.47,969.37Z"/><path class="cls-5" d="M664.71,968.6c-2.15-1.61-4.39-3.13-6.63-4.62-4.34-2.91-8.67-5.82-13-8.79-1.62-1.13-3.71,1.53-2.13,2.76,4.12,3.2,8.19,6.46,12.26,9.72,1.89,1.52,3.83,3,5.76,4.46s3.55,2.89,5.92,2.45a1.58,1.58,0,0,0,1.16-1.53C667.81,970.9,666.4,969.87,664.71,968.6Z"/><path class="cls-5" d="M681.38,967.68l-4.4-3.15c-2-1.44-3.92,1.89-1.93,3.31l4.16,3a6.5,6.5,0,0,0,4.21,1.57.91.91,0,0,0,.87-1.14A6.61,6.61,0,0,0,681.38,967.68Z"/><path class="cls-5" d="M961.42,907.28c-2.65-2.12-6.88-2.8-10.2-3.15-2.44-.26-3.07,3.29-1.19,4.41a29.84,29.84,0,0,0,4.55,2.11,12.06,12.06,0,0,0,4.89,1.36C961.63,911.93,963.41,908.88,961.42,907.28Z"/><path class="cls-5" d="M978.72,902.14c-4.17-1.77-8.4-3.38-12.66-4.94-2.49-.91-4.17,3.09-1.81,4.29,3.94,2,7.9,3.93,11.92,5.74,2.06.94,8.34,4.78,9.9,1.18S980.75,903,978.72,902.14Z"/><path class="cls-5" d="M1010.59,902.47c-2.07-1.18-4.23-2.26-6.35-3.36-4.39-2.27-8.83-4.47-13.24-6.71-3.06-1.55-5.75,3-2.71,4.64,4.46,2.47,8.91,5,13.4,7.39,2.23,1.2,4.47,2.51,6.78,3.57,1.94.89,3.69,1.63,5.71.72a1.73,1.73,0,0,0,.78-1.91C1014.58,904.64,1012.36,903.48,1010.59,902.47Z"/><path class="cls-5" d="M1040.06,900.57q-3.82-2.28-7.69-4.52c-5.12-3-10.36-5.81-15.51-8.77-2.66-1.54-5,2.44-2.4,4.09,5,3.21,9.92,6.57,15,9.75,2.38,1.49,4.76,3,7.15,4.48,2.2,1.37,5,3.66,7.68,2.68a2.05,2.05,0,0,0,1.37-2.41C1045.26,903.2,1042.14,901.82,1040.06,900.57Z"/><path class="cls-5" d="M1061.73,895.1c-2.32-1.82-4.68-3.59-7-5.37-4.66-3.55-9.31-7.11-13.91-10.73-3.09-2.44-7.5,1.93-4.37,4.36q7.07,5.5,14,11.13c2.2,1.77,4.39,3.55,6.6,5.3,2.37,1.86,4.75,4.21,7.49,5.51a3.06,3.06,0,0,0,3.69-4.79C1066.47,898.39,1063.9,896.79,1061.73,895.1Z"/><path class="cls-5" d="M1059.48,879.58c2,2,4.1,4.73,6.9,5.56a1.86,1.86,0,0,0,2.27-2.27c-.84-2.8-3.58-4.84-5.57-6.89C1060.79,873.62,1057.11,877.3,1059.48,879.58Z"/><path class="cls-5" d="M743.74,668.71c3.79-10.38,15.8-19.64,27.13-18.78a32.48,32.48,0,0,1,9.73,2.74,42.57,42.57,0,0,1,8,4.15c4.75,3.23,9.58,8.29,10,14.29a1.35,1.35,0,0,1-.84,1.33,22.46,22.46,0,0,1,.89,9.55,23.12,23.12,0,0,1-7.08,14.22,25.93,25.93,0,0,1-14.37,6.63c-6.24.76-11.93-1.31-17.53-3.85a31.84,31.84,0,0,1-8.39-4.92c-2.37-2.13-3.91-5-5.31-7.83-2.8-5.6-4.55-11.39-2.31-17.53Zm8.66,18.45h0a14.77,14.77,0,0,0,6.08,5.9c4.54,2.53,9.63,5.15,14.91,5.41a21.34,21.34,0,0,0,12.55-3.4c8.65-5.56,12.08-18,7.48-27.29a1,1,0,0,1,0-1c-.17-.27-.33-.54-.51-.8A25.64,25.64,0,0,0,788,660.9c-3.51-2.84-8.3-5.58-12.83-6.17-5.18-.66-10-1.18-14.6,1.92a34.45,34.45,0,0,0-9.93,10.4,14.57,14.57,0,0,0-1.28,13.58A48.89,48.89,0,0,0,752.4,687.16Z"/><path class="cls-5" d="M608,677.25l11.57-3.76c3.34-1.09,7.05-2.89,10.65-3,.15-.34.31-.69.45-1,.69-1.65,1.48-3.25,2.27-4.86a38.88,38.88,0,0,0,2.34-4.65c-.28-.78-.76-1.54-1.09-2.29-1.43-3.21-2.92-6.49-4.12-9.78s-.84-6.75,1.88-9.07c2.5-2.14,6-3.4,9-4.85s6.1-3,9.18-4.39,6.17-2.82,9.28-4.16a29.06,29.06,0,0,1,6.36-2.29q1.59-2.45,3.17-4.9,3.09-4.74,6.16-9.5c2.05-3.16,4-7.54,8.33-7.72,3.3-.14,6.93,1.52,10.13,2.22,3.37.75,6.78,1.37,10.21,1.78a17.77,17.77,0,0,0,4.64.39,10.73,10.73,0,0,0,3.41-1.79c1.75-1.09,3.4-2.35,5.12-3.49a43.91,43.91,0,0,1,1.36-8.36c.65-3.23,1.35-6.45,2.08-9.67s1.51-6.42,2.33-9.62c1-3.72,1.68-7.93,5.78-9.37,2.87-1,6.46-.64,9.46-.68q5.1-.07,10.2,0c3.28.05,6.55.15,9.83.29a15.05,15.05,0,0,1,4.95.65,6.62,6.62,0,0,1,3.84,4.59,130.69,130.69,0,0,1,4.21,19.42,74.35,74.35,0,0,1,14.67,6.74c1-1.25,2.15-2.39,3.21-3.54q2.35-2.58,4.79-5.09,5-5.16,10.23-10.09a4.66,4.66,0,0,1,6.44,0c9.11,7.83,22.07,9.85,29.93,19.41,2.18,2.66,3.44,5.26,2.9,8.77a72.63,72.63,0,0,1-2.41,9.5c-.9,3-2,6-3.15,8.89a46.2,46.2,0,0,1-2.84,6.29,46,46,0,0,1,6.22,7.25,86.86,86.86,0,0,1,5.26,7.82q8.91-.81,17.8-1.5l10.52-.83c1.77-.14,4-.66,5.68-.22,2,.52,3.07,2.46,4.2,4a110.88,110.88,0,0,1,16.06,32.85,4.66,4.66,0,0,1-3.22,5.58,92.86,92.86,0,0,0-17.31,8.19c-2.7,1.64-5.26,3.47-7.85,5.27a14.35,14.35,0,0,1-5.51,2.58c-.5,2.14-1.07,4.27-1.65,6.38q6.17,6.66,12.33,13.3a14.06,14.06,0,0,1,2.91,3.87,7.58,7.58,0,0,1-.34,6.23c-1.32,3.1-2.8,6.13-4.25,9.17q-4.6,9.6-9.65,19c-1.61,3-3.08,6.44-5.17,9.15a5.34,5.34,0,0,1-5.34,2.07,21.05,21.05,0,0,1-4.83-2.21l-21.11-10.82a4.19,4.19,0,0,1-2-2.48c-.78.16-1.58.3-2.37.43a84.05,84.05,0,0,0,4.27,28.46,4.62,4.62,0,0,1-3.23,5.61c-13.55,3.15-27.47,4-41.32,4.59a14,14,0,0,1-5.09-.26c-2.18-.71-3.27-2.48-4.38-4.34q-2.69-4.55-5-9.27c-1.62-3.27-3.15-6.6-4.46-10a51.69,51.69,0,0,1-1.74-5,75,75,0,0,1-9.69-3.88,150.78,150.78,0,0,0-21.75,20.59,4.55,4.55,0,0,1-5.47.7c-1.3-.92-2.59-1.87-3.88-2.8a17.6,17.6,0,0,1-2.61.23c-2.2,0-4.39,0-6.59,0q-6.42-.09-12.84,0c-4.18.08-8.45.57-12.62.44-5.1-.16-6.87-5.14-8.39-9.21-.31-.85-1.78-7.15-2.41-9-.27,0-.64-.08-.78-.09l-3.15-.15h-.34c-.47.84-1.3,2-1.5,2.32l-2.94,5.16c-1.18,2.08-2.19,4.46-4.58,5.4-4.34,1.7-9.37-2.51-12.22-5.38-3.35-3.35-6.26-7.13-9.57-10.53s-6.87-6.65-10.54-9.72a4.55,4.55,0,0,1-.7-5.44c2.52-4.1,5-8.27,7.66-12.28a45.77,45.77,0,0,1-3.43-4.17,18,18,0,0,1-2.85-5c-3.85.46-7.78.55-11.64.81-2.11.14-4.27.32-6.16-.84-1.7-1-2.64-2.91-3.59-4.58a116,116,0,0,1-8.87-20.12c-1.13-3.32-2.72-7.11-2.94-10.64-.31-5.1,4.32-6.47,8.28-7.76Zm249.82,82.47h0c.48.26.45.23-.11-.1l-.07,0,.18.08Zm-219.91-114h0s.08,0,.16-.15c-.1.07-.16.12-.16.15Zm93.42-74h0l0,0c-.19,0-.2,0,0,0ZM871.65,725.07h0a.32.32,0,0,0-.16.38l.16-.38ZM782.17,783h0l-.16-.1c-.34.12-.28.14.16.1Zm-53.45-12.39h0a139.18,139.18,0,0,1,15.43-14.7c1.67-1.37,3.37-2.69,5.1-4a12.9,12.9,0,0,1,2.81-1.88c1.68-.69,3.05-.16,4.64.53,3.53,1.54,7.43,2.86,10.77,4.84a2.33,2.33,0,0,1,.88.4c.35.27.67.55,1,.84a4.55,4.55,0,0,1,.91,1,24.86,24.86,0,0,1,2.88,5.19l1.93,4.18a1,1,0,0,1,.2-.22,1.64,1.64,0,0,1,1.61-.44c3.57,1.35,6.92,3.44,10.36,5.09s7.14,3.33,10.76,4.87c1.32.56.4,2.83-1,2.34q-5.4-2-10.7-4.2a80.08,80.08,0,0,1-9.91-4.49c0,.06.06.12.09.17,1.16,2.43,2.39,4.83,3.67,7.2.66,1.23,1.34,2.46,2,3.68.31.55.64,1.25,1,1.88l.47,0,2.76-.12,5.54-.27c3.57-.2,7.14-.42,10.71-.73a158.19,158.19,0,0,0,16.39-2.23,90.8,90.8,0,0,1-3-30.07c.13-1.89,1.31-4.07,3.39-4.44,3.8-.69,12.1-3.63,13.59,1.89,0,.07,0,.14,0,.21a5.38,5.38,0,0,1,.91.36l12.4,6.35,6,3.09,2.5,1.28.13-.23c.68-1.23,1.34-2.45,2-3.68q2-3.68,3.92-7.39,3.76-7.26,7.27-14.65c.22-.45,2.08-4.37,2.94-6.25-.27-.31-.53-.68-.74-.92l-2.77-3-11.06-12a4.51,4.51,0,0,1-1.16-4.32,138.26,138.26,0,0,1,5-13.55,3.71,3.71,0,0,1,4.3-1.71l.49-.25a35.63,35.63,0,0,0,3.74-2.48q3.79-2.71,7.83-5.08a101.71,101.71,0,0,1,13.54-6.55A104.48,104.48,0,0,0,876.88,650c-11,.89-22.06,1.81-33.11,2.54a4.39,4.39,0,0,1-3.9-2.25,103.46,103.46,0,0,0-5.73-9.82c-2-3.06-4.86-5.94-6.38-9.28a3.73,3.73,0,0,1-.11-2.76c.29-2.72,1.7-5.37,2.61-7.92,1-2.84,2-5.7,2.71-8.62a68.58,68.58,0,0,0,1.74-8.53c.13-1,.19-1-.31-1.72a18.19,18.19,0,0,0-2.54-2.65c-3.85-3.51-8.75-5.77-13.38-8.06a86,86,0,0,1-11.08-6.28q-3.74,3.63-7.36,7.37c-1.61,1.68-3.22,3.37-4.81,5.07-1.76,1.9-3.36,3.9-5.6,5.26a4.2,4.2,0,0,1-5-.69h0c-2.91-1-5.73-2.38-8.62-3.48-3.3-1.26-6.64-2.39-10-3.34a4.32,4.32,0,0,1-3.1-3.08q-1-5.21-2.19-10.4-.61-2.76-1.31-5.51c-.31-1.23-.86-2.62-1.13-3.93l-2.42-.1c-1.7-.06-3.4-.12-5.1-.16q-5.46-.12-10.93-.07l-5.09.09c-.64,0-1.52.18-2.26.17a41.14,41.14,0,0,1-1.25,4.39q-.72,2.84-1.39,5.69-1.26,5.36-2.37,10.74c-.73,3.57-.91,7.81-2.85,11a4.07,4.07,0,0,1-2.4,1.76,46,46,0,0,1-4.78,4.51c-2.86,2.49-5.61,4.61-9.57,4.58a73.17,73.17,0,0,1-10.93-1.25,100.48,100.48,0,0,1-10.57-2.29c-.18,0-.79-.16-1.39-.29-.87,1.38-2.52,3.59-2.76,4L676,624.06q-3.09,4.74-6.17,9.5c-1,1.48-1.87,3.06-2.87,4.58l1.18,1c2.38,2,4.83,3.82,7.1,5.9a74.24,74.24,0,0,1,6.14,6.4q1.39,1.62,2.74,3.27c1.6,1.94,2.35,3.25,2,5.89,0,.08,0,.16,0,.24,1,3.5,1.54,7.14,2.7,10.62.8,2.37-1,4.65-3.11,5.4a177.43,177.43,0,0,0-22.17,9.34,88.9,88.9,0,0,1,4,15.07,76.71,76.71,0,0,0,4.9,15.88c4.49-1.21,9-2.29,13.59-3.2,2.93-.58,5.86-1.09,8.83-1.47,3.13-.4,5.93-.72,9,.27,2.14.2,3.73,1.57,5.64,2.84A47.38,47.38,0,0,0,716,719.3c2.3,1.05,2.5,4,1.61,6-2.24,5-3.21,10.33-4.45,15.61-1.28,5.5-2.36,11.09-3.89,16.51l1,.62c2.43,1.57,4.82,3.2,7.21,4.83q5.67,3.85,11.29,7.77Zm-37.92-.16h0c.14.3.16.29.07,0l-.14-.08a.75.75,0,0,1,.07.12Zm-1.87-1.16h0l-.16-.1c-.3.12-.25.15.16.1Zm-11.28-9.55h0l0,0,0,0Zm-65.88-65.51h0a123.4,123.4,0,0,0,7,15.86l.93,1.79c.18.31.34.62.51.93,1.08.14,3.21.49,3.58.54,3.44.43,6.94.7,10.35,1.33a2.1,2.1,0,0,1,.65.23,2.79,2.79,0,0,1,1.68.29c2.3,1.17,3.56,3.33,5.22,5.23a35.2,35.2,0,0,0,5.14,4.85c1.9,1.42,2.74,3.56,1.56,5.8-2.16,4.1-4.6,8.07-7,12a138.62,138.62,0,0,1,10.41,10c1.94,2.08,3.77,4.26,5.68,6.36a27.85,27.85,0,0,0,3,3c.24.2.49.38.73.55l.09-.14c.54-1,1.1-1.94,1.65-2.9,1.08-1.91,2.09-3.89,3.27-5.73a7,7,0,0,1,6.33-3.49,52.47,52.47,0,0,1,6.87.42c4.92.7,7.16,4.7,8,9.17a41.2,41.2,0,0,0,1.41,5.59c.31.87.63,1.72,1,2.55l.36.73.44,0,2.2-.1c1.7-.07,3.42-.13,5.13-.18q4.76-.12,9.53-.14h3.61c-1.84-1.36-3.66-2.74-5.48-4.15-1.19-.91-2.39-1.8-3.51-2.82a12.88,12.88,0,0,1-2.64-3.57,2.54,2.54,0,0,1,1.11-3.56c1.09-5.64,2.64-11.24,4-16.84,1-4.24,1.74-9.12,3.52-13.32q-1.65-1.12-3.24-2.37a26.25,26.25,0,0,1-2.77-2.36,30.66,30.66,0,0,1-5.3,1.33c-2.9.54-5.81,1.05-8.7,1.64q-8.52,1.71-16.87,4.13a4.59,4.59,0,0,1-5.12-2.13,77.07,77.07,0,0,1-7-19.94c-1.32-6.25-2.25-12.75-5.34-18.43a4.62,4.62,0,0,1,1.69-6.2,151.58,151.58,0,0,1,23.94-10.57,25.56,25.56,0,0,1-.51-7.33,11.75,11.75,0,0,1-1.39-1.47q-1.46-1.8-3-3.55a72.75,72.75,0,0,0-6.17-6.37c-2.27-2-4.79-3.82-6.88-6-.32-.34-.64-.7-.94-1.06a4.64,4.64,0,0,1-3.91-5.34A9.4,9.4,0,0,1,657,637a3.5,3.5,0,0,1,0-.54l-1.68.77q-4.62,2.13-9.18,4.38c-.71.35-5.4,2.55-7.35,3.59.06.19.11.38.13.45.6,1.62,1.33,3.21,2,4.81,1.2,2.9,3,6.07,3,9.28s-2.52,6.5-4.11,9.26-3.18,6.29-5.69,8.24a2.8,2.8,0,0,1-.28.31c-2.55,2.49-7.08,3.19-10.41,4.27l-9.4,3.07-4.63,1.51C610.05,689,610.86,691.66,611.77,694.25Z"/><path class="cls-5" d="M791.1,765.38c2-.16,4.17,1.49,6,2.27,2.39,1,4.83,1.89,7.3,2.67,1.39.44.84,2.6-.56,2.19-2.59-.76-5.15-1.62-7.66-2.62-1.9-.77-4.65-1.41-5.79-3.22A.87.87,0,0,1,791.1,765.38Z"/><path class="cls-5" d="M801,764.26a.79.79,0,0,1,.48-1.13c1.45-.41,2.76.25,4.12.73l4.91,1.73c1.63.58,1,3.19-.67,2.61l-5.23-1.87C803.21,765.83,801.89,765.51,801,764.26Z"/><path class="cls-5" d="M838.56,714.22l3.93-.58c1.42-.21,2,1.94.59,2.18l-4.11.69c-1.05.17-2.56.74-3.37-.21a.79.79,0,0,1-.12-.89C836,714.3,837.54,714.37,838.56,714.22Z"/><path class="cls-5" d="M829.9,709a1,1,0,0,1,0-1c.66-1.16,1.74-1.25,3-1.37,1.74-.18,3.49-.21,5.24-.34a99.87,99.87,0,0,0,10.35-1.3c2-.37,2.89,2.74.83,3.12-3.46.64-7,1.19-10.46,1.61C836.46,710,831.48,711.37,829.9,709Z"/><path class="cls-5" d="M839.79,695.94A67,67,0,0,0,852,693.79a1.44,1.44,0,0,1,.75,2.77,66.9,66.9,0,0,1-11.28,2.53c-1.64.21-8.92,1.75-9.3-1S838.32,696.06,839.79,695.94Z"/><path class="cls-5" d="M845.54,685.37c-1.68.07-3.92.65-5.5,0a.93.93,0,0,1-.57-1.34c.74-1.49,2.72-1.92,4.25-2.05,2.13-.17,4.31-.08,6.45-.14a69.14,69.14,0,0,0,14-1.81,1.15,1.15,0,0,1,.6,2.22,97.63,97.63,0,0,1-12.9,2.62C849.79,685.18,847.68,685.27,845.54,685.37Z"/><path class="cls-5" d="M860.53,674.31c-1.92.38-3.85.64-5.79.88s-4.2.77-5.91-.27a1,1,0,0,1-.2-1.56c1.34-1.09,3.08-1.1,4.75-1.27,2.19-.21,4.36-.51,6.54-.81a91.12,91.12,0,0,0,12.46-2.54,1.27,1.27,0,0,1,.66,2.46C868.91,672.38,864.75,673.5,860.53,674.31Z"/><path class="cls-5" d="M709,709.14a192.86,192.86,0,0,1-19.83-.17c-3.25-.2-6.48-.52-9.7-.93-2.36-.3-6.33-.71-7.55-3.08a1.23,1.23,0,0,1,.75-1.79c1.37-.26,2.6.26,4,.4s2.57.28,3.86.46q4.83.68,9.69,1.16c6.24.62,12.5.92,18.77.94A1.51,1.51,0,0,1,709,709.14Z"/><path class="cls-5" d="M705.13,699.7a46.3,46.3,0,0,1-8.55-.83c-2.06-.4-6-.74-7.07-2.78a1,1,0,0,1,.59-1.42c1.16-.45,2.09.05,3.22.4s2.42.69,3.65,1a42.85,42.85,0,0,0,8.14.94A1.37,1.37,0,0,1,705.13,699.7Z"/><path class="cls-5" d="M706.08,691.2c-2-.34-4.06-.74-6.06-1.24-1.61-.41-3.17-.73-4.17-2.13-.32-.45.06-1,.49-1.16,1.58-.6,3.21.1,4.78.48,1.89.45,3.8.82,5.72,1.13S708,691.52,706.08,691.2Z"/><path class="cls-5" d="M711.44,679.48c-2.49.27-6.23.75-7.86-1.63a1,1,0,0,1,.16-1.19,5.29,5.29,0,0,1,3.52-1,30.43,30.43,0,0,0,4.16-.21,2,2,0,1,1,0,4Z"/><path class="cls-8" d="M682.17,614.55,667,638.14c8.71,7.32,9.58,7.35,17.16,16.54,2.64,3.21,1.92,3.69,2,6.14,1,3.5,1.54,7.13,2.7,10.61.8,2.38-1,4.66-3.11,5.4a177.59,177.59,0,0,0-22.16,9.35c4,10.07,3.52,18.91,8.87,31l22.42-4.67c12-1.56,11.7,2.5,21.18,6.84,2.3,1.06,2.51,4,1.61,6-3.27,7.25-5.85,23.31-8.34,32.12l19.45,13.22L749.25,752c2.86-2.15,3.69-3,7.45-1.34s11.29,3.95,13.54,7.1l4.8,9.36c1.65-2.18,7.11,2,12.18,4.44,3.54,1.71,7.14,3.33,10.76,4.87,1.32.55.4,2.83-1,2.34L776.42,770,783.23,783l35.87-3.37a90.54,90.54,0,0,1-3-30.07c.13-1.89,1.31-4.07,3.39-4.44,3.55-.64,12.49-3.72,13.63,2.1L855,758.26l16.27-32.2-14.57-16a4.49,4.49,0,0,1-1.16-4.32,137.32,137.32,0,0,1,5-13.55c1.18-2.59,3.59-1.33,4.79-2l11.57-7.56a100.49,100.49,0,0,1,13.54-6.55A104.48,104.48,0,0,0,876.88,650c-11,.89-22.06,1.81-33.11,2.54a4.41,4.41,0,0,1-3.9-2.25,103.46,103.46,0,0,0-5.73-9.82c-7.62-11.5-8.47-7.24-3.88-20,1-2.83,5.73-16.69,4.14-18.87-4.95-6.8-18.56-11.12-27-17l-17.77,17.7c-2.28,1.37-4,0-5-.7L766,594.79a4.3,4.3,0,0,1-3.1-3.08l-3.49-15.92c-.32-1.22-.87-2.61-1.14-3.92l-23.54-.24c-.64,0-1.52.18-2.26.16l-2.64,10.09c-.84,3.57-1.63,7.14-2.37,10.74s-.91,7.81-2.85,11a4.12,4.12,0,0,1-2.4,1.76c-1.34.85-7.5,9.14-14.35,9.09l-22.89-3.84c-.87,1.39-2.52,3.6-2.76,4Zm98.43,38.12a42.57,42.57,0,0,1,8,4.15c4.75,3.23,9.58,8.29,10,14.29a1.32,1.32,0,0,1-.84,1.32,22.52,22.52,0,0,1,.89,9.56,23.12,23.12,0,0,1-7.08,14.22,25.85,25.85,0,0,1-14.37,6.62c-6.24.77-11.93-1.3-17.53-3.84a31.84,31.84,0,0,1-8.39-4.92c-2.37-2.13-3.91-5-5.31-7.83-2.8-5.6-4.55-11.39-2.31-17.53,3.78-10.38,15.8-19.65,27.13-18.78a32.48,32.48,0,0,1,9.73,2.74Zm-90.42,52.52c6.24.62,12.51.92,18.78.94a1.51,1.51,0,0,1,0,3,192.86,192.86,0,0,1-19.83-.17c-3.25-.2-6.48-.52-9.7-.93-2.36-.3-6.33-.71-7.55-3.09a1.23,1.23,0,0,1,.75-1.78c1.37-.26,2.6.26,4,.4l3.87.46c3.22.45,6.46.84,9.69,1.16ZM791.1,765.38c2-.16,4.17,1.49,6,2.27,2.39,1,4.83,1.89,7.3,2.67,1.39.44.84,2.6-.56,2.19-2.59-.76-5.15-1.62-7.66-2.62-1.9-.77-4.65-1.41-5.79-3.22a.87.87,0,0,1,.74-1.29Zm48.37-81.31c.74-1.49,2.72-1.92,4.24-2.05,2.14-.17,4.32-.08,6.46-.14a69.85,69.85,0,0,0,14-1.81,1.15,1.15,0,0,1,.6,2.22,98,98,0,0,1-12.9,2.62c-2.12.27-4.23.36-6.37.45-1.68.08-3.92.66-5.51,0a.93.93,0,0,1-.56-1.34Zm-132.21-8.4a27.55,27.55,0,0,0,4.16-.21,2,2,0,1,1,0,4c-2.49.27-6.23.75-7.86-1.63a1,1,0,0,1,.16-1.19,5.3,5.3,0,0,1,3.52-1Zm-.42,12.61c1.92.31,1.14,3.23-.76,2.92S702,690.46,700,690c-1.61-.41-3.17-.73-4.17-2.13-.32-.45.06-1,.49-1.16,1.58-.6,3.21.1,4.78.48q2.83.68,5.72,1.13ZM705.11,697a1.37,1.37,0,0,1,0,2.73,46.3,46.3,0,0,1-8.55-.83c-2.06-.4-6-.74-7.07-2.78a1,1,0,0,1,.59-1.42c1.16-.45,2.09.05,3.22.4s2.42.69,3.65,1a42.06,42.06,0,0,0,8.14.94ZM801,764.26a.79.79,0,0,1,.48-1.13c1.45-.41,2.76.25,4.12.74l4.91,1.72c1.63.58,1,3.2-.67,2.61l-5.23-1.87c-1.4-.5-2.72-.82-3.61-2.07Zm47.63-90.9c1.34-1.09,3.08-1.1,4.75-1.27,2.19-.21,4.36-.51,6.54-.8a92.67,92.67,0,0,0,12.46-2.55,1.27,1.27,0,0,1,.66,2.46c-4.13,1.18-8.29,2.29-12.52,3.11-1.91.37-3.84.64-5.78.88s-4.2.77-5.91-.27a1,1,0,0,1-.2-1.56Zm-8.84,22.58A67,67,0,0,0,852,693.79a1.44,1.44,0,0,1,.75,2.77,66.9,66.9,0,0,1-11.28,2.53c-1.64.21-8.92,1.75-9.3-1s6.18-2,7.65-2.16ZM829.9,709a1,1,0,0,1,0-1c.66-1.16,1.74-1.25,3-1.37,1.74-.18,3.49-.21,5.24-.34a100.21,100.21,0,0,0,10.35-1.3c2-.37,2.89,2.74.83,3.12-3.46.64-7,1.19-10.46,1.61-2.38.3-7.36,1.67-8.94-.7Zm8.66,5.22,3.93-.58c1.42-.21,2,1.94.59,2.18l-4.11.69c-1.05.17-2.56.74-3.37-.21a.79.79,0,0,1-.12-.89C836,714.3,837.53,714.37,838.56,714.22Z"/><line class="cls-4" x1="1205.8" y1="830.1" x2="1205.8" y2="875.82"/><line class="cls-4" x1="1228.66" y1="852.97" x2="1182.94" y2="852.97"/><path class="cls-5" d="M685.12,1029.28a30.86,30.86,0,0,0-5.6.11l0,0h-.06a47.3,47.3,0,0,1-5.58.09c-.11,0-2.49-.67-2.58,1-.11,1.94,2.28,2.68,2.39,2.72a12.52,12.52,0,0,0,5.55.61h.1a40.57,40.57,0,0,0,5.64-.82c.12,0,2.55-.1,2.64-1.85s-2.34-1.85-2.45-1.87Zm-102.93-3.23c-60.77-.23-121.78.66-182.56,1.35l-1.7,0h-1.75q-91.06,1-182,1.28c-3.63,0-82.4-1.28-82.54,3.12-.17,5.12,78.87,6.6,82.43,6.69,60.54,1.52,121.67,1.25,182.24.57.58,0,1.17,0,1.75,0s1.13,0,1.7,0c60.79-.69,121.75-1.81,182.53-3.21,3.59-.08,83-.74,83-5.35,0-4.92-79.52-4.44-83.11-4.45Zm-461.2,1.8a48.64,48.64,0,0,0-9.18.19l-.08,0a.15.15,0,0,0-.09,0,77.34,77.34,0,0,1-9.13.14c-.19,0-4.09-1.09-4.23,1.63-.17,3.19,3.73,4.38,3.91,4.45a20.47,20.47,0,0,0,9.09,1l.09,0a.12.12,0,0,0,.08,0,68.68,68.68,0,0,0,9.23-1.34c.18,0,4.17-.16,4.32-3C125.15,1027.85,121.16,1027.88,121,1027.85Z"/><path class="cls-5" d="M1298,1029.28a30.86,30.86,0,0,0-5.6.11l-.05,0h-.06a47.3,47.3,0,0,1-5.58.09c-.11,0-2.49-.67-2.58,1-.1,1.94,2.28,2.68,2.39,2.72a12.52,12.52,0,0,0,5.55.61h.11a40.79,40.79,0,0,0,5.64-.82c.11,0,2.55-.1,2.64-1.85s-2.36-1.85-2.46-1.87Zm-102.93-3.23c-60.77-.23-121.78.66-182.57,1.35l-1.69,0H1009q-91.06,1-182,1.28c-3.63,0-82.41-1.28-82.55,3.12-.17,5.12,78.87,6.6,82.43,6.69,60.54,1.52,121.67,1.25,182.24.57.59,0,1.17,0,1.76,0s1.12,0,1.69,0c60.79-.69,121.74-1.81,182.52-3.21,3.6-.08,83-.74,83-5.35,0-4.92-79.52-4.44-83.11-4.45Zm-461.2,1.8a48.52,48.52,0,0,0-9.17.19.11.11,0,0,0-.08,0,.16.16,0,0,0-.1,0,77.34,77.34,0,0,1-9.13.14c-.19,0-4.08-1.09-4.23,1.63-.17,3.19,3.74,4.38,3.92,4.45a20.43,20.43,0,0,0,9.08,1l.09,0a.14.14,0,0,0,.09,0,68.54,68.54,0,0,0,9.22-1.34c.19,0,4.18-.16,4.32-3C738,1027.85,734,1027.88,733.85,1027.85Z"/><path class="cls-5" d="M1130.52,799.06a5.69,5.69,0,0,1,3,2.29c1.31,1.93,2.64,3.86,3.84,5.88,5.21,8.77,9.12,18.28,12.58,27.85a208.09,208.09,0,0,1,8.46,30.29c3.66,18.51,4.88,37.68,2,56.4,3.27,5.7,6.54,11.43,10.25,16.86,7.76,11.37,16.89,21.71,24.92,32.88a134.38,134.38,0,0,1,10.74,17.23c1.26,2.49,2.44,5,3.47,7.63,3.62,5.37,4.34,12.61,3.49,18.9-1.15,8.58-5.45,16.26-11.23,22.6a80.05,80.05,0,0,1-17.64,13.92,182.05,182.05,0,0,1-19.66,10.32,206.18,206.18,0,0,1-43.53,14.19,197.58,197.58,0,0,1-45.78,3.82c-1.32,0-2.64-.1-4-.19-2.86,1.38-6.21.87-9.26.61s-6.12-.69-9.14-1.21c-1-.17-2-.35-2.93-.54a3.35,3.35,0,0,1-.71,0,75.39,75.39,0,0,1-8.07-1.32c-10.4-2.21-20.61-5.18-30.81-8.14s-20.51-6.19-30.64-9.65a456.84,456.84,0,0,1-58.94-24.73,331.18,331.18,0,0,1-49.3-30.53,259.73,259.73,0,0,1-41.1-38.15,237.57,237.57,0,0,1-17.18-22.54,124,124,0,0,1-7.21-12c-1.07-2.07-2.14-4.14-3.11-6.26s-1.51-4.47-2.29-6.72a3.42,3.42,0,0,1,1.1-3.9l-.33-2.32a92,92,0,0,1-.78-19.76,60.26,60.26,0,0,1,4-17.37,50.72,50.72,0,0,1,4.07-8.1c1.41-2.23,3.18-5.08,5.61-6.46A154.22,154.22,0,0,1,834,798.59a157.23,157.23,0,0,1,66.73-63.12,190,190,0,0,1,93-19.49,167,167,0,0,1,46.86,8.73c17.07,5.92,33.81,13.25,48.21,24.33a152,152,0,0,1,33.31,36.34C1125.09,789.83,1127.91,794.39,1130.52,799.06Z"/><path class="cls-15" d="M835.13,916.73c-.79-.71-1.62-1.39-2.44-2.06A1.84,1.84,0,0,0,830,915a98,98,0,0,1-5-16.16,4.16,4.16,0,0,0,.26-1.88c-.6-7.27-1.44-14.54-1.44-21.83a124.83,124.83,0,0,1,1.82-21,145.05,145.05,0,0,1,13.64-40.61,153.48,153.48,0,0,1,37.38-47.56c19-4.56,39.77.89,57.54,7.71a186.9,186.9,0,0,1,118.64,150.08,191.75,191.75,0,0,1-3.89,71.7c-.6,2.41-1.15,4.83-1.62,7.27-4.06.5-8.14.9-12.21,1.23-6.45.51-12.91.8-19.36,1-5.15.15-10.3,0-15.46.23-2.26-.11-4.51-.23-6.76-.38q-12.39-.85-24.65-2.89a265,265,0,0,1-49.1-13.21,229.86,229.86,0,0,1-43.62-21.57c-12.88-8.28-25-18.39-34.21-30.73a96,96,0,0,1-10.53-17.93c.37.37.74.74,1.13,1.1a5.06,5.06,0,0,0,3,1.75c1.07.1,1.63-1.06,1.47-1.93A5,5,0,0,0,835.13,916.73Z"/><path class="cls-16" d="M835.13,916.73c-.79-.71-1.62-1.39-2.44-2.06A1.84,1.84,0,0,0,830,915a98,98,0,0,1-5-16.16,4.16,4.16,0,0,0,.26-1.88c-.6-7.27-1.44-14.54-1.44-21.83a124.83,124.83,0,0,1,1.82-21,145.05,145.05,0,0,1,13.64-40.61,153.48,153.48,0,0,1,37.38-47.56S808.46,917.34,897.43,979a216.68,216.68,0,0,1-21.24-11.94c-12.88-8.29-25-18.39-34.21-30.73a96.39,96.39,0,0,1-10.53-17.94c.37.37.74.74,1.14,1.1a5,5,0,0,0,3,1.75c1.07.1,1.63-1.06,1.47-1.93a5,5,0,0,0-2-2.62ZM962,1000.6,897.43,979c7.3,3.58,14.79,6.77,22.38,9.63A265.64,265.64,0,0,0,962,1000.6Z"/><path class="cls-15" d="M816.41,897.33a68.55,68.55,0,0,1-1.79-10.45c-.14-1.35-.25-2.68-.34-4a54,54,0,0,0-1.92,11.37,84.74,84.74,0,0,0,.84,17.43c.46,3.19,1,6.36,1.53,9.55a44.69,44.69,0,0,1,.68,5.16c0,.21,0,.42,0,.63.31.46.63.93.93,1.39,2.82,4.26,5.65,8.5,8.65,12.63a223.5,223.5,0,0,0,19,22.64c25.73,26.93,56.9,48,90.34,64.16a531.25,531.25,0,0,0,57.42,23.33q14.66,5.08,29.51,9.57c5.06,1.54,10.15,3,15.2,4.58l4.26,1.3c1,.23,2.1.44,3.16.63a86.76,86.76,0,0,0,11.6,1.35c4,.19,7.93.19,11.9.28s8,.09,11.92,0a202.24,202.24,0,0,0,81.22-18.28c11.9-5.53,24.68-12,33.42-22.06a30.92,30.92,0,0,0,7.38-15.48,21.84,21.84,0,0,0,.18-5.11c-.25-.53-.48-1.07-.71-1.61-.72-1.7-1.41-3.42-2.08-5.14a84.17,84.17,0,0,0-4.55-9.54c-6.49-11.73-15.09-22.13-23.18-32.77-4.18-5.52-8.26-11.13-11.9-17q-1.17-1.91-2.26-3.85a96.77,96.77,0,0,1-28.35,44.85c-17.16,15.11-38.84,24.37-61.08,29a219.42,219.42,0,0,1-40.67,4.06c-1.73,0-3.45,0-5.18,0a5.53,5.53,0,0,1-2.18.66,139.62,139.62,0,0,1-15.15,1c-5-.05-10-.37-15-.79a279.39,279.39,0,0,1-30-4.17,268.47,268.47,0,0,1-50.65-15.18C892.63,990.86,877.06,983,863,973,849.1,963,836.8,950.82,828.16,936a90,90,0,0,1-9.65-23A65.67,65.67,0,0,1,816.41,897.33Z"/><path class="cls-16" d="M816.41,897.33a68.55,68.55,0,0,1-1.79-10.45c-.14-1.35-.25-2.68-.34-4a54,54,0,0,0-1.92,11.37,84.74,84.74,0,0,0,.84,17.43c.46,3.19,1,6.36,1.53,9.55a44.69,44.69,0,0,1,.68,5.16c0,.21,0,.42,0,.63.31.46.63.93.93,1.39,2.82,4.26,5.65,8.5,8.65,12.63a223.5,223.5,0,0,0,19,22.64c25.73,26.93,56.9,48,90.34,64.16a531.25,531.25,0,0,0,57.42,23.33q14.66,5.08,29.51,9.57c5.06,1.54,10.15,3,15.2,4.58l4.26,1.3c1,.23,2.1.44,3.16.63a86.76,86.76,0,0,0,11.6,1.35c4,.19,7.93.19,11.9.28s8,.09,11.92,0a202.24,202.24,0,0,0,81.22-18.28c11.9-5.53,24.68-12,33.42-22.06a30.92,30.92,0,0,0,7.38-15.48,21.84,21.84,0,0,0,.18-5.11c-120.31,70.54-189.7,9.35-189.7,9.35-2.53.19-5.06.32-7.59.29-5-.06-10-.37-15-.79a279.39,279.39,0,0,1-30-4.17,269.21,269.21,0,0,1-50.65-15.18C892.63,990.86,877.06,983,863,973,849.1,963,836.8,950.81,828.16,936a90,90,0,0,1-9.65-23A65.67,65.67,0,0,1,816.41,897.33Z"/><path class="cls-8" d="M1027.18,757.6a2.27,2.27,0,0,1-3.51,1.28c-2.65-1.88-5.56-3.39-8.31-5.12s-5.54-3.47-8.39-5.07a135.67,135.67,0,0,0-32.14-12.8,132.38,132.38,0,0,0-17-3.18c-2.86-.36-5.73-.63-8.6-.83l-.72,0a170.19,170.19,0,0,0-51.44,19.58c-2.09,1.23-4.16,2.51-6.19,3.85a99.09,99.09,0,0,1,18.76,1.84,165.3,165.3,0,0,1,34.1,10.72,198.57,198.57,0,0,1,57.07,37A192.61,192.61,0,0,1,1062.62,932a198.32,198.32,0,0,1-.48,37.9,188.87,188.87,0,0,1-3,18.74,113.61,113.61,0,0,1-3.34,12.87c5.45-.87,10.89-2,16.24-3.36,18.9-4.89,37.29-13.61,51.4-27.34,2.13-6.71,4.27-13.42,5.79-20.3a170.63,170.63,0,0,0,3.67-24.94,154.09,154.09,0,0,0-39.4-114.66c-8.88-9.86-19.21-18.2-29.39-26.66a3.12,3.12,0,0,1-.41-4.54C1050.35,769.24,1034,760.89,1027.18,757.6Z"/><path class="cls-15" d="M975.64,728.33a147.13,147.13,0,0,1,20.41,7.41,141.44,141.44,0,0,1,16.17,8.61,74.19,74.19,0,0,1,7.58,5.08c2.32,1.85,4.46,3.89,6.7,5.84a2.14,2.14,0,0,1,.72,1.12c6.59,3.17,23.53,11.73,37.28,22.52a3.32,3.32,0,0,1,3.48-.24c13.88,7.12,25.78,18.53,35.73,30.38A161.1,161.1,0,0,1,1141,932.28a150.51,150.51,0,0,1-3.91,20.94,97,97,0,0,0,11.55-34.9c2.7-19.1.66-39.25-3.85-57.94a216.25,216.25,0,0,0-12.94-37.1c-.11-.21-.23-.41-.35-.62-7.86-13.38-15.58-26.93-25.24-39.12-9.45-11.92-20.58-22.67-33.51-30.77A148.4,148.4,0,0,0,1049.19,741a194.62,194.62,0,0,0-22.74-7.76,162.53,162.53,0,0,0-44.08-5.15C980.13,728.14,977.88,728.21,975.64,728.33Z"/><path class="cls-5" d="M1130.52,799.06a5.69,5.69,0,0,1,3,2.29c1.31,1.93,2.64,3.86,3.84,5.88,5.21,8.77,9.12,18.28,12.58,27.85a208.09,208.09,0,0,1,8.46,30.29c3.66,18.51,4.88,37.68,2,56.4,3.27,5.7,6.54,11.43,10.25,16.86,7.76,11.37,16.89,21.71,24.92,32.88a134.38,134.38,0,0,1,10.74,17.23c1.26,2.49,2.44,5,3.47,7.63,3.62,5.37,4.34,12.61,3.49,18.9-1.15,8.58-5.45,16.26-11.23,22.6a80.05,80.05,0,0,1-17.64,13.92,182.05,182.05,0,0,1-19.66,10.32,206.18,206.18,0,0,1-43.53,14.19,197.58,197.58,0,0,1-45.78,3.82c-1.32,0-2.64-.1-4-.19-2.86,1.38-6.21.87-9.26.61s-6.12-.69-9.14-1.21c-1-.17-2-.35-2.93-.54a3.35,3.35,0,0,1-.71,0,75.39,75.39,0,0,1-8.07-1.32c-10.4-2.21-20.61-5.18-30.81-8.14s-20.51-6.19-30.64-9.65a456.84,456.84,0,0,1-58.94-24.73,331.18,331.18,0,0,1-49.3-30.53,259.73,259.73,0,0,1-41.1-38.15,237.57,237.57,0,0,1-17.18-22.54,124,124,0,0,1-7.21-12c-1.07-2.07-2.14-4.14-3.11-6.26s-1.51-4.47-2.29-6.72a3.42,3.42,0,0,1,1.1-3.9l-.33-2.32a92,92,0,0,1-.78-19.76,60.26,60.26,0,0,1,4-17.37,50.72,50.72,0,0,1,4.07-8.1c1.41-2.23,3.18-5.08,5.61-6.46A154.22,154.22,0,0,1,834,798.59a157.23,157.23,0,0,1,66.73-63.12,190,190,0,0,1,93-19.49,167,167,0,0,1,46.86,8.73c17.07,5.92,33.81,13.25,48.21,24.33a152,152,0,0,1,33.31,36.34c3,4.45,5.78,9,8.39,13.68ZM975.64,728.33a147.13,147.13,0,0,1,20.41,7.41,141.44,141.44,0,0,1,16.17,8.61,74.19,74.19,0,0,1,7.58,5.08c2.32,1.85,4.46,3.89,6.7,5.84a2.3,2.3,0,0,1-2.83,3.61c-2.65-1.88-5.55-3.39-8.3-5.12s-5.55-3.47-8.39-5.07a135.91,135.91,0,0,0-32.15-12.8,132.38,132.38,0,0,0-17-3.18c-2.86-.36-5.73-.63-8.6-.83l-.72,0a170.19,170.19,0,0,0-51.44,19.58c-2.09,1.23-4.16,2.51-6.19,3.85a99,99,0,0,1,18.76,1.84,165.1,165.1,0,0,1,34.1,10.72,198.57,198.57,0,0,1,57.07,37A192.61,192.61,0,0,1,1062.62,932a198.32,198.32,0,0,1-.48,37.9,188.84,188.84,0,0,1-3,18.74,115.81,115.81,0,0,1-3.35,12.87c5.45-.87,10.89-2,16.24-3.36,18.9-4.89,37.3-13.61,51.4-27.34,2.13-6.71,4.28-13.42,5.79-20.3a170.63,170.63,0,0,0,3.67-24.94,154.09,154.09,0,0,0-39.4-114.66c-8.88-9.86-19.2-18.2-29.39-26.66-3.13-2.6.45-7.3,3.89-5.55,13.88,7.12,25.77,18.53,35.73,30.38A161.1,161.1,0,0,1,1141,932.28a150.51,150.51,0,0,1-3.91,20.94,97.2,97.2,0,0,0,11.55-34.9c2.7-19.1.66-39.25-3.85-57.94a217.41,217.41,0,0,0-12.94-37.1c-.11-.21-.23-.41-.35-.62-7.86-13.38-15.58-26.93-25.24-39.12-9.45-11.92-20.58-22.67-33.51-30.77A148.82,148.82,0,0,0,1049.19,741a196.5,196.5,0,0,0-22.74-7.76,162.53,162.53,0,0,0-44.08-5.15c-2.24,0-4.49.11-6.73.23Zm24.68,276.81c5.15-.21,10.3-.08,15.46-.23,6.45-.2,12.91-.48,19.36-1,4.07-.32,8.15-.72,12.2-1.23.48-2.44,1-4.86,1.63-7.27a191.75,191.75,0,0,0,3.89-71.7A188.48,188.48,0,0,0,934.22,773.63c-17.77-6.82-38.58-12.27-57.54-7.71a153.48,153.48,0,0,0-37.38,47.56,144.84,144.84,0,0,0-13.64,40.61,124.83,124.83,0,0,0-1.82,21c0,7.29.84,14.57,1.44,21.83a4.28,4.28,0,0,1-.26,1.88,97,97,0,0,0,17,37.52c9.19,12.34,21.32,22.44,34.21,30.73a231.06,231.06,0,0,0,43.62,21.57,265.71,265.71,0,0,0,49.1,13.2c8.16,1.37,16.39,2.32,24.64,2.89,2.26.15,4.51.27,6.77.38ZM816.41,897.33a68.55,68.55,0,0,1-1.79-10.45c-.14-1.35-.25-2.68-.34-4a54,54,0,0,0-1.92,11.37,84.74,84.74,0,0,0,.84,17.43c.46,3.19,1,6.36,1.53,9.55a44.69,44.69,0,0,1,.68,5.16c0,.21,0,.42,0,.63.31.46.63.93.93,1.39,2.82,4.26,5.65,8.5,8.65,12.63a223.5,223.5,0,0,0,19,22.64c25.73,26.93,56.9,48,90.34,64.16a531.25,531.25,0,0,0,57.42,23.33q14.66,5.08,29.51,9.57c5.06,1.54,10.15,3,15.2,4.58l4.26,1.3c1,.23,2.1.44,3.16.63a86.76,86.76,0,0,0,11.6,1.35c4,.19,7.93.19,11.9.28s8,.09,11.92,0a202.24,202.24,0,0,0,81.22-18.28c11.9-5.53,24.68-12,33.42-22.06a30.92,30.92,0,0,0,7.38-15.48,21.84,21.84,0,0,0,.18-5.11c-.25-.53-.48-1.07-.71-1.61-.72-1.7-1.41-3.42-2.08-5.14a84.17,84.17,0,0,0-4.55-9.54c-6.49-11.73-15.09-22.13-23.18-32.77-4.18-5.52-8.26-11.13-11.9-17q-1.17-1.91-2.26-3.85a96.77,96.77,0,0,1-28.35,44.85c-17.16,15.11-38.84,24.37-61.08,29a219.42,219.42,0,0,1-40.67,4.06c-1.73,0-3.45,0-5.18,0a5.53,5.53,0,0,1-2.18.66,139.62,139.62,0,0,1-15.15,1c-5-.05-10-.37-15-.79a279.39,279.39,0,0,1-30-4.17,268.47,268.47,0,0,1-50.65-15.18C892.63,990.86,877.06,983,863,973,849.1,963,836.8,950.82,828.16,936a90,90,0,0,1-9.65-23A65.67,65.67,0,0,1,816.41,897.33Z"/><path class="cls-5" d="M1049.83,772.55c1.55.72,2.93-1.54,1.36-2.34a16.52,16.52,0,0,1-4.07-2.91,18.72,18.72,0,0,0-3.35-3.25.91.91,0,0,0-1.36.77C1042.63,768.43,1046.88,771.18,1049.83,772.55Z"/><path class="cls-5" d="M1016.7,1053.83l-4.08-3.29c-1.49-1.2-3.62.9-2.12,2.12l4.27,3.47c1.13.92,2.35,2.37,3.94,1.92a.89.89,0,0,0,.64-.84C1019.46,1055.6,1017.79,1054.72,1016.7,1053.83Z"/><path class="cls-5" d="M1041.07,1061c-1.76-1.39-3.55-2.74-5.4-4a67.46,67.46,0,0,0-11.94-6.67c-1.77-.73-2.61,2-1.23,2.92,3.72,2.59,7.57,5,11.23,7.69,1.82,1.34,3.56,2.79,5.41,4.11,1.11.78,3.65,2.4,4.59.53C1044.6,1063.8,1042.2,1061.86,1041.07,1061Z"/><path class="cls-5" d="M1063.93,1061.24a76.76,76.76,0,0,0-6.79-4.13,64.17,64.17,0,0,0-14.5-6.19c-1.74-.45-3,2.15-1.27,3,4.56,2.26,9.23,4.27,13.65,6.81,2.13,1.22,4.18,2.54,6.23,3.89,1.61,1.05,4.38,3.68,6.41,2.9a1.33,1.33,0,0,0,.92-1.22C1068.78,1064.09,1065.5,1062.34,1063.93,1061.24Z"/><path class="cls-5" d="M1078.27,1055.09a31.84,31.84,0,0,0-8.62-3.61c-1.94-.44-3.41,2.43-1.43,3.39,2.67,1.28,5.34,2.4,7.9,3.89,2.28,1.32,4.66,3.52,7.34,3.78a1.23,1.23,0,0,0,1.17-1.54C1083.84,1058.26,1080.58,1056.43,1078.27,1055.09Z"/><path class="cls-5" d="M1099.61,1053.43q-4.41-2.34-8.57-5.08c-2.43-1.6-4.66,2.28-2.26,3.87,2.86,1.88,5.8,3.65,8.83,5.25,2.48,1.3,6.14,3.68,9,2.73a1.15,1.15,0,0,0,.68-1.66C1106.05,1055.9,1102.05,1054.72,1099.61,1053.43Z"/><path class="cls-5" d="M1118.08,1049.35a16.16,16.16,0,0,0-7.22-1.45c-2.86.09-2.87,4.4,0,4.45a12,12,0,0,1,5.34,1.28c1.45.75,3.15,2,4.86,1.89a1.22,1.22,0,0,0,1.19-1.19C1122.46,1052,1119.94,1050.2,1118.08,1049.35Z"/><path class="cls-5" d="M1130.52,1044.56c-2.36-1.32-4.47,2.28-2.12,3.61,2.64,1.5,5.4,3.51,8.34,4.33a1.87,1.87,0,0,0,1.81-3.1C1136.31,1047.32,1133.18,1046,1130.52,1044.56Z"/><path class="cls-5" d="M1148.24,1040.92l-3.72-1.27a2.68,2.68,0,0,0-3.26,1.85,2.72,2.72,0,0,0,1.85,3.26l3.46,1.28c1.31.49,2.5,1,3.9.57a2.38,2.38,0,0,0,1.4-3.44C1151,1041.79,1149.72,1041.42,1148.24,1040.92Z"/><path class="cls-5" d="M835.13,916.73c-.79-.71-1.62-1.39-2.44-2.06-1.72-1.41-4.1.82-2.5,2.48.79.81,1.57,1.62,2.4,2.38a5,5,0,0,0,3,1.75c1.06.1,1.63-1.06,1.47-1.93A5,5,0,0,0,835.13,916.73Z"/><path class="cls-5" d="M835.77,905.18a22.69,22.69,0,0,0-4.32-3.24c-1.55-.75-3.65.87-2.54,2.54a22.93,22.93,0,0,0,3.91,4.09,14.46,14.46,0,0,0,4.51,3.31c1.71.64,2.95-1.48,2.22-2.88C838.72,907.42,837.11,906.31,835.77,905.18Z"/><path class="cls-5" d="M832,895.26c1.42,1.47,2.52,3.41,4.47,4.18a1.8,1.8,0,0,0,2.27-1.73c-.23-2.28-2.12-4-3.7-5.49a15,15,0,0,0-5.54-3.72c-1.22-.39-2.55,1.18-1.75,2.28A42.76,42.76,0,0,0,832,895.26Z"/><path class="cls-5" d="M831.43,881.45c1.42,1.5,2.65,3.66,4.57,4.54a1.91,1.91,0,0,0,2.77-2.13c-.37-2.16-2.4-4-3.86-5.47a20.76,20.76,0,0,0-5.22-4.36c-1.57-.8-4,1-2.69,2.69A56.48,56.48,0,0,0,831.43,881.45Z"/><path class="cls-5" d="M826.73,865.09c1.74,1.49,3.47,3,5.18,4.52A40.43,40.43,0,0,0,837.2,874c2.54,1.57,5-1.92,3.09-4a38.46,38.46,0,0,0-5.08-4.15c-1.73-1.34-3.46-2.71-5.17-4.08C827.73,859.93,824.42,863.1,826.73,865.09Z"/><path class="cls-5" d="M828.37,853.22c1.7,1.44,3.4,2.92,5.12,4.35,1.45,1.2,3.09,2.62,5.1,2.07a1.1,1.1,0,0,0,.78-1c.09-2.07-1.73-3.37-3.21-4.5-1.78-1.36-3.58-2.69-5.37-4S826.64,851.75,828.37,853.22Z"/><path class="cls-5" d="M835,839.76a17.34,17.34,0,0,0,5,3.07c1.23.37,2.63-1.19,1.78-2.32a8.87,8.87,0,0,0-2.33-2.24l-2.58-1.74a1.89,1.89,0,0,0-2.56.67A1.93,1.93,0,0,0,835,839.76Z"/><path class="cls-5" d="M837.62,825.91c.71.59,1.4,1.21,2.15,1.73a3.89,3.89,0,0,0,2.81.65,1.54,1.54,0,0,0,1.12-1.47c0-.08,0-.35-.06-.51,0,.1,0,0,0-.24a1,1,0,0,0-.13-.51,5.58,5.58,0,0,0-.9-1.35c-.5-.58-1.09-1.08-1.64-1.61a2.34,2.34,0,0,0-3.31,3.31Z"/><path class="cls-5" d="M843.64,826.31v0C843.62,826.14,843.62,826.2,843.64,826.31Z"/></svg>