<?xml version="1.0" encoding="utf-8"?>
<!-- Generator: Adobe Illustrator 24.3.0, SVG Export Plug-In . SVG Version: 6.00 Build 0)  -->
<svg version="1.1" id="Layer_1" xmlns="http://www.w3.org/2000/svg" xmlns:xlink="http://www.w3.org/1999/xlink" x="0px" y="0px"
	 viewBox="0 0 1500 1500" style="enable-background:new 0 0 1500 1500;" xml:space="preserve">
<style type="text/css">
	.st0{fill:none;}
	.st1{fill:#177B57;}
	.st2{fill-rule:evenodd;clip-rule:evenodd;fill:#5F9E84;}
	.st3{fill:none;stroke:#250C03;stroke-width:2.83;stroke-linecap:round;stroke-linejoin:round;}
	.st4{fill-rule:evenodd;clip-rule:evenodd;fill:#250C03;}
	.st5{fill-rule:evenodd;clip-rule:evenodd;fill:#F05146;}
	.st6{fill-rule:evenodd;clip-rule:evenodd;fill:#C5352D;}
	.st7{fill-rule:evenodd;clip-rule:evenodd;fill:#FFFFFF;}
	.st8{fill-rule:evenodd;clip-rule:evenodd;fill:#D9C9CB;}
	
		.st9{fill-rule:evenodd;clip-rule:evenodd;fill:#A5DDEB;stroke:#000000;stroke-width:0.22;stroke-linecap:round;stroke-linejoin:round;}
	.st10{fill-rule:evenodd;clip-rule:evenodd;fill:#8BD3DA;}
	
		.st11{fill-rule:evenodd;clip-rule:evenodd;fill:#70CACB;stroke:#000000;stroke-width:0.22;stroke-linecap:round;stroke-linejoin:round;}
	
		.st12{fill-rule:evenodd;clip-rule:evenodd;fill:#F05146;stroke:#000000;stroke-width:0.22;stroke-linecap:round;stroke-linejoin:round;}
	
		.st13{fill-rule:evenodd;clip-rule:evenodd;fill:#FFFFFF;stroke:#000000;stroke-width:0.22;stroke-linecap:round;stroke-linejoin:round;}
	.st14{fill-rule:evenodd;clip-rule:evenodd;fill:#FBAA3B;}
	.st15{fill-rule:evenodd;clip-rule:evenodd;fill:#F79239;}
</style>
<rect x="148" class="st0" width="1200" height="1500"/>
<circle class="st1" cx="750" cy="714.2" r="527.8"/>
<path class="st2" d="M750,351.3c200.4,0,362.8,162.5,362.8,362.9S950.4,1077,750,1077S387.1,914.6,387.1,714.2
	S549.6,351.3,750,351.3z"/>
<line class="st3" x1="805" y1="405.5" x2="849.3" y2="405.5"/>
<line class="st3" x1="783.2" y1="405.5" x2="771.9" y2="405.5"/>
<line class="st3" x1="615.3" y1="297.5" x2="722.7" y2="297.5"/>
<line class="st3" x1="593.4" y1="297.5" x2="582.2" y2="297.5"/>
<path class="st3" d="M213.6,776.9c7.8,0,14.1,6.3,14.1,14.1c0,7.8-6.3,14.1-14.1,14.1c-7.8,0-14.1-6.3-14.1-14.1
	C199.4,783.2,205.8,776.9,213.6,776.9z"/>
<path class="st3" d="M368.7,284.9c7.8,0,14.1,6.3,14.1,14.1s-6.3,14.1-14.1,14.1s-14.1-6.3-14.1-14.1c0,0,0,0,0,0
	C354.5,291.3,360.8,284.9,368.7,284.9C368.7,284.9,368.7,284.9,368.7,284.9z"/>
<path class="st3" d="M1082.4,390.1c7.8,0,14.1,6.3,14.1,14.1s-6.3,14.1-14.1,14.1s-14.1-6.3-14.1-14.1S1074.6,390.1,1082.4,390.1
	L1082.4,390.1z"/>
<circle class="st3" cx="310.7" cy="560.2" r="15.5"/>
<line class="st3" x1="246.1" y1="421.4" x2="246.1" y2="467.1"/>
<line class="st3" x1="269" y1="444.2" x2="223.3" y2="444.2"/>
<line class="st3" x1="953.6" y1="280.9" x2="953.6" y2="326.6"/>
<line class="st3" x1="976.5" y1="303.7" x2="930.8" y2="303.7"/>
<line class="st3" x1="1221.1" y1="515.1" x2="1188.8" y2="547.4"/>
<line class="st3" x1="1221.1" y1="547.4" x2="1188.8" y2="515.1"/>
<line class="st3" x1="514" y1="359.5" x2="514" y2="405.2"/>
<line class="st3" x1="536.9" y1="382.4" x2="491.2" y2="382.4"/>
<path class="st3" d="M1135.6,927.8c7.8,0,14.1,6.3,14.1,14.1c0,7.8-6.3,14.1-14.1,14.1c-7.8,0-14.1-6.3-14.1-14.1
	C1121.5,934.2,1127.8,927.8,1135.6,927.8C1135.6,927.8,1135.6,927.8,1135.6,927.8z"/>
<line class="st3" x1="1055.2" y1="994.7" x2="1010.9" y2="994.7"/>
<line class="st3" x1="1077" y1="994.7" x2="1088.3" y2="994.7"/>
<path class="st3" d="M1216.3,696.8c7.8,0,14.1,6.3,14.1,14.1s-6.3,14.1-14.1,14.1c-7.8,0-14.1-6.3-14.1-14.1
	C1202.1,703.2,1208.4,696.9,1216.3,696.8C1216.3,696.8,1216.3,696.8,1216.3,696.8z"/>
<path class="st4" d="M189.8,1009.9c0.4-3.8,0.9-7.8,2.6-11.3c1.6-3.2,4.3-5.7,7.5-7.1c3.2-1.5,6.3-1.4,9.6-0.9
	c2-0.3,4.1-0.5,6.1-0.7c0.3-1.2,0.6-2.3,0.9-3.4c0.9-3.7,2-7.3,3.1-10.9c1.9-6.6,3.9-13.2,5.9-19.8c4.1-13.5,8.2-27,12.4-40.4
	c0.2-0.5,0.3-1.1,0.5-1.7c-0.2-1.2,0.2-2.4,1-3.3c7.7-24.9,15.5-49.9,23.3-74.8c16.7-53.3,33.4-106.7,50.1-160
	c8.9-28.1,17.4-56.5,27.6-84.1c0.1-0.6,0.3-1.3,0.5-1.9c1.4-5,3.3-9.9,5.6-14.6c4.4-9,11-16.7,19.3-20.9c17-8.6,37.1-3.7,48.6,13.3
	c3.3,4.9,5.7,10.4,6.9,16.2v0.1c1.4,3.4,2.5,6.9,3.7,10.3c2.4,6.9,4.5,14,6.8,20.9c4.4,13.6,8.6,27.3,12.8,41
	c8.4,27.6,17,55.1,25.5,82.6c17,54.7,34.4,109.3,52,163.8c5,15.3,9.9,30.6,14.9,45.8c4.3,13.4,9.1,26.8,12.7,40.6
	c3.3,0.3,6.6,0.7,9.8,1.3c0.2,0,0.4-0.1,0.6-0.1c4.1-0.5,8.2,0,12.1,1.4c7.5,2.9,12.8,9.4,14.7,18.1c1.7,7.5,2.3,18.7-2.8,24.8
	c-2.7,3.1-6.5,4.9-10.6,5.1c-2.2,0.1-4.3-0.1-6.4-0.8c-1-0.2-2-0.6-3-1l-3,0.2c-6.3,0.4-12.6,0.8-18.9,1
	c-12.3,0.6-24.6,0.8-36.8,0.9c-24.9,0.2-49.8,0.1-74.6,0.1H282.5c-13.8,0-27.6,0-41.4-0.2c-7.1-0.1-14.1-0.3-21.2-0.8
	c-5.8-0.4-11.6-0.6-17.4-1.4c-1.1,0.3-2.3,0.3-3.5,0.1c-3-0.7-5.6-2.6-7.1-5.3C188.2,1026.1,189,1016.7,189.8,1009.9z"/>
<path class="st5" d="M236.4,1027.6L236.4,1027.6c12.3-0.3,24.6-0.3,36.8-0.3h74.6c49.4,0,98.9-0.2,148.3,0.1
	c13.8,0.1,27.7,0.1,41.5,0.8c7.1,0.3,14.1,0.7,21.2,1.1l3.3,0.2l0.1-0.1c2.7-2,6.8-0.1,9.9-0.1c2,0,4.5-0.6,5.7-2.6s1.1-5.3,1.1-7.7
	c0-2.8-0.4-5.7-1.1-8.4c-1.3-5-5.2-8.9-10.1-10.2c-2.8-0.8-5.6-0.7-8.4-1c-1-0.1-2-0.1-3-0.1c-2.2,0.3-4.4,0.6-6.6,0.7
	c-1.6,1.4-3.9,1.8-5.5,0.3c-4.8,0.2-9.5,0.2-14.2,0.2h-35c-23.2,0-46.5,0.1-69.7,0c-46.6-0.3-93.2-0.6-139.9-0.8
	c-12.9,0-25.9-0.1-38.8-0.3c-9.1-0.1-18.3,0.2-27.5-0.4c-0.2,0.4-0.4,0.7-0.7,1c-2.2,2.1-4,1.5-6.6,1.2c-2.1-0.4-4.2-0.3-6.3,0.2
	c-1.4,0.2-2.8,0.9-3.9,1.8c-1.4,1.4-1.8,3.7-2.1,5.7c-1,5-1.4,10.1-1,15.1c0.2,1.7,0.6,3.8,1.8,5c0.4,0.4,0.8,0.7,1.4,0.9
	c5.3-0.7,10.6-0.9,16-1.3C223.8,1028,230.1,1027.7,236.4,1027.6z"/>
<path class="st5" d="M293,783.1c0-0.6,0.2-1.1,0.6-1.6c2-2.3,4.5-3.4,7-4.7s5.1-2.8,7.7-4.2c5.1-2.8,10.2-5.6,15.2-8.6
	c10.2-6,20.2-12.3,30.1-18.8c19.7-12.9,39-26.7,57.8-41.2c9.9-7.6,19.8-15,29.5-22.9c-1.1-3.6-2.2-7.2-3.3-10.8
	c-4.7-15.3-9.3-30.7-13.9-46.1c-2.1-7.1-4.1-14.3-6.1-21.5c-1.1,1.1-2.3,2.2-3.4,3.3c-3.1,3.1-6.3,6.1-9.5,9
	c-6.3,5.7-12.8,11.2-19.4,16.4c-13.4,10.7-27.3,20.6-41.7,29.8c-4.1,2.6-8.2,5.1-12.4,7.6c-2.4,1.4-4.9,3.2-7.5,4.6
	c-7.9,25.5-15.8,50.9-23.7,76.4l-10.9,34.9L293,783.1L293,783.1z M471.3,778.8c5.8,18.6,11.7,37.1,17.6,55.7
	c4.1,12.9,8.2,25.8,12.4,38.7c-4.7,3.5-9.3,7.3-13.9,10.8c-6.7,5.2-13.4,10.3-20.1,15.3c-24,17.8-48.7,34.2-74.2,49.4
	c-12.9,7.7-25.8,15-39,21.9c-6.4,3.4-12.9,6.7-19.5,9.9c-5.6,2.8-11.5,5.2-17.1,8.2l-40.4,0.2c-11.7,0-23.4,0.2-35.1,0.3
	c-5.8,0-11.7,0-17.6,0.2l0.4-1.2c1.4-3.6,2.5-7.3,3.7-10.9c2.5-7.5,4.9-15,7.4-22.6c4.3-13.5,8.6-27,12.9-40.5
	c16.3-6.5,32.3-14.3,48.1-22.1c31.8-15.8,62.7-33.4,92.4-52.8c15-9.8,29.8-20,44.4-30.7c7.2-5.3,14.3-10.8,21.4-16.3
	C460.5,788,466.2,783.8,471.3,778.8L471.3,778.8z"/>
<path class="st6" d="M410,705.3l1.5-1.1c9.8-7.6,19.8-15,29.5-22.9c-1.1-3.6-2.2-7.2-3.3-10.8c-4.7-15.3-9.3-30.7-13.9-46.1
	c-2.1-7.1-4.1-14.3-6.1-21.5c-1.1,1.1-2.3,2.2-3.4,3.3c-3.1,3.1-6.3,6.1-9.5,9c-4.9,4.4-9.9,8.7-14.9,12.8
	C397.2,652.1,404.1,678,410,705.3L410,705.3z M426,814.2c2.7,38.2,2.3,77.2-2.9,115.8c14.9-9.7,29.6-19.9,44.1-30.6
	c6.8-5,13.5-10.1,20.1-15.3c4.6-3.6,9.2-7.3,13.9-10.8c-4.1-12.9-8.3-25.8-12.4-38.7c-5.9-18.6-11.7-37.1-17.6-55.7l0,0
	c-5.1,4.9-10.8,9.1-16.2,13.4c-7.1,5.6-14.2,11-21.4,16.3C431.1,810.5,428.5,812.3,426,814.2L426,814.2z"/>
<path class="st7" d="M409.2,575.2L409.2,575.2c-4.2-6.3-10.2-11.2-16.9-13.2c-7-2-14.4-1.3-20.9,1.8c-6.8,3.2-12,9.1-15.6,16.2
	c-2.1,4.3-3.8,8.8-5.2,13.3c-0.8,2.5-1.7,5-2.7,7.5c-0.5,1.2-1,2.5-1.6,3.6c-0.7,1.1-1.5,2.1-2.3,3.1c-0.1,0.2-0.3,0.4-0.5,0.5
	c-5.4,19.5-11.5,38.7-17.4,57.9c0.6-0.3,1.1-0.6,1.7-0.9c3.6-2.1,7.1-4.2,10.6-6.4c7.2-4.4,14.2-9.1,21.1-13.9
	c13.8-9.6,27.1-20,40-31c3.5-3,7-6,10.6-9c2.1-1.8,4.2-3.9,6.4-5.8c-1-3.3-1.9-6.7-2.6-10.1c-0.5-2.2-0.8-4.5-1.1-6.8
	C411.8,579.6,410.6,577.3,409.2,575.2L409.2,575.2z M528.5,957.5L528.5,957.5c-4.5-13.6-8.9-27.2-13.3-40.8
	c-4.3-13.2-8.5-26.4-12.8-39.6c-3.3,3-6.6,5.7-10,8.5c-5.8,4.9-11.8,9.6-17.8,14.2c-12,9.3-24.1,18.2-36.5,26.8
	c-24.6,17.1-50.1,32.8-76.3,47.1c-7.4,4-14.9,8-22.4,11.8c-2,1-3.9,2-5.9,3.1h13.1c46.6-0.2,93.2-0.5,139.9-0.5h38.8
	c4.5,0,9-0.1,13.5,0C535.1,978.1,531.9,967.8,528.5,957.5L528.5,957.5z M441.7,683.9c9.4,30.6,18.9,61.1,28.5,91.6
	c-7.1,4.5-13.6,10.2-20.3,15.2c-8.1,6-16.3,12-24.5,17.8c-28.8,20.3-58.7,39-89.6,55.9c-15.5,8.5-31.2,16.5-47,24
	c-12.2,5.8-24.6,11-36.9,16.4c12.4-39.5,24.7-78.9,37-118.5l4.4-2c0.2,1,1.1,1.7,2.1,1.7c3.3-0.5,6.1-2.3,9.1-4
	c2.8-1.6,5.5-3.2,8.3-4.9c5.8-3.4,11.5-6.9,17.2-10.4c20.2-12.3,39.9-25.5,59.2-39.6c9.5-7,18.9-14.2,28.1-21.6
	C425.5,698.5,433.6,691.2,441.7,683.9L441.7,683.9z"/>
<path class="st8" d="M409.2,575.2L409.2,575.2c-4.2-6.3-10.2-11.2-16.9-13.2c-7-2-14.4-1.3-20.9,1.8c-1,0.5-1.9,1-2.8,1.5
	c6.5,17.5,13.3,36.8,19.7,57.7c3.8-3,7.5-6.1,11.2-9.3c3.5-3,7-6,10.6-9c2.1-1.8,4.2-3.9,6.4-5.8c-1-3.3-1.9-6.7-2.6-10.1
	c-0.5-2.2-0.8-4.5-1.1-6.8C411.8,579.6,410.6,577.3,409.2,575.2L409.2,575.2z M411,710.2c6.9,32.3,11.7,65.1,14.5,98
	c8.2-5.8,16.3-11.6,24.3-17.6c6.7-5,13.3-10.7,20.3-15.2c-9.6-30.5-19.1-61-28.5-91.6l0,0c-8.1,7.3-16.2,14.7-24.7,21.5
	C415,707,413,708.6,411,710.2L411,710.2z M421.9,937.8c-2.5,17-6.1,33.9-10.6,50.5c25.1-0.1,50.2-0.2,75.3-0.2h38.8
	c4.5,0,9-0.1,13.5,0c-3.8-10-7-20.3-10.4-30.5l0,0c-4.5-13.6-8.9-27.2-13.3-40.8c-4.3-13.2-8.5-26.4-12.8-39.6
	c-3.3,3-6.6,5.7-10,8.5c-5.8,4.9-11.8,9.6-17.8,14.2c-12,9.3-24.1,18.2-36.5,26.8C432.8,930.5,427.4,934.2,421.9,937.8L421.9,937.8z
	"/>
<path class="st4" d="M189.8,1009.9c0.4-3.8,0.9-7.8,2.6-11.3c1.6-3.2,4.3-5.7,7.5-7.1c3.2-1.5,6.3-1.4,9.6-0.9
	c2-0.3,4.1-0.5,6.1-0.7c0.3-1.2,0.6-2.3,0.9-3.4c0.9-3.7,2-7.3,3.1-10.9c1.9-6.6,3.9-13.2,5.9-19.8c4.1-13.5,8.2-27,12.4-40.4
	l0.5-1.7c-0.1-1.2,0.2-2.4,1-3.3c7.7-24.9,15.5-49.9,23.3-74.8c16.7-53.3,33.4-106.7,50.1-160c8.9-28.1,17.4-56.5,27.6-84.1
	c0.1-0.6,0.3-1.3,0.5-1.9c1.4-5,3.3-9.9,5.6-14.6c4.4-9,11-16.7,19.3-20.9c17-8.6,37.1-3.7,48.6,13.3c3.3,4.9,5.7,10.4,7,16.2
	c0,0,0,0,0,0.1c1.4,3.4,2.5,6.9,3.7,10.3c2.4,6.9,4.5,14,6.8,20.9c4.4,13.6,8.6,27.3,12.8,41c8.4,27.6,17,55.1,25.5,82.6
	c17.1,54.7,34.4,109.3,52,163.8c4.9,15.3,9.9,30.6,14.8,45.8c4.3,13.4,9.1,26.8,12.7,40.6c3.3,0.3,6.6,0.7,9.8,1.3l0.6-0.1
	c4.1-0.5,8.2,0,12.1,1.5c7.5,2.9,12.8,9.4,14.7,18.1c1.7,7.6,2.3,18.7-2.8,24.8c-2.7,3.1-6.5,4.9-10.6,5.1c-2.2,0.1-4.3-0.1-6.4-0.8
	c-1-0.3-2-0.6-3-1l-3,0.2c-6.3,0.4-12.6,0.7-18.9,1c-12.3,0.6-24.6,0.8-36.9,0.9c-24.9,0.2-49.7,0.1-74.6,0.1H282.5
	c-13.8,0-27.6,0-41.4-0.2c-7.1-0.1-14.1-0.3-21.2-0.8c-5.8-0.4-11.6-0.6-17.4-1.4c-1.1,0.3-2.3,0.3-3.5,0.1c-3-0.7-5.6-2.6-7.1-5.3
	C188.2,1026.1,189,1016.7,189.8,1009.9L189.8,1009.9z M409.2,575.2L409.2,575.2c-4.2-6.3-10.2-11.2-16.9-13.2
	c-7-2-14.4-1.3-20.9,1.8c-6.8,3.2-12,9.1-15.6,16.2c-2.1,4.3-3.8,8.8-5.2,13.3c-0.8,2.5-1.7,5-2.7,7.5c-0.5,1.2-1,2.5-1.6,3.6
	c-0.7,1.1-1.5,2.1-2.3,3.1c-0.1,0.2-0.3,0.4-0.5,0.5c-5.4,19.5-11.5,38.7-17.4,57.9c0.6-0.3,1.1-0.6,1.7-0.9
	c3.6-2.1,7.1-4.2,10.6-6.4c7.2-4.4,14.2-9.1,21.1-13.9c13.8-9.6,27.1-20,40-31c3.5-3,7-6,10.6-9c2.1-1.8,4.2-3.9,6.4-5.8
	c-1-3.3-1.9-6.7-2.6-10.1c-0.5-2.2-0.8-4.5-1.1-6.8C411.8,579.6,410.6,577.3,409.2,575.2L409.2,575.2z M441.7,683.9L441.7,683.9
	c-8.1,7.3-16.2,14.7-24.7,21.5c-9.2,7.4-18.6,14.6-28.1,21.6c-19.3,14.1-39,27.3-59.2,39.6c-5.7,3.5-11.5,7-17.2,10.4
	c-2.8,1.6-5.5,3.3-8.3,4.8c-3,1.7-5.7,3.5-9.1,4c-2,0.3-2.9-3-1.6-4.4c2-2.3,4.5-3.4,7-4.7s5.1-2.8,7.7-4.2
	c5.1-2.8,10.2-5.6,15.2-8.6c10.2-6,20.2-12.3,30.1-18.8c19.7-12.9,39-26.7,57.8-41.2c9.8-7.6,19.8-15,29.5-22.9
	c-1.1-3.6-2.2-7.2-3.3-10.8c-4.7-15.3-9.3-30.7-13.9-46.1c-2.1-7.1-4.1-14.3-6.1-21.5c-1.1,1.1-2.3,2.2-3.4,3.3
	c-3.1,3.1-6.3,6.1-9.5,9c-6.3,5.7-12.8,11.2-19.4,16.4c-13.4,10.7-27.3,20.6-41.7,29.8c-4.1,2.6-8.2,5.1-12.4,7.6
	c-2.4,1.4-4.9,3.2-7.5,4.6c-7.9,25.5-15.8,50.9-23.7,76.4c-16.1,51.6-32.2,103.2-48.3,154.8c12.4-5.3,24.7-10.6,36.9-16.4
	c15.9-7.5,31.6-15.5,47.1-24c30.9-16.9,60.8-35.6,89.6-55.9c8.2-5.8,16.4-11.7,24.5-17.8c6.7-5,13.3-10.7,20.3-15.1
	C460.6,745,451.1,714.5,441.7,683.9L441.7,683.9z M471.2,778.8L471.2,778.8c-5.1,4.9-10.8,9.1-16.2,13.4c-7.1,5.6-14.2,11-21.4,16.3
	c-14.5,10.7-29.3,20.9-44.4,30.7c-29.8,19.4-60.6,37-92.4,52.8c-15.8,7.8-31.8,15.6-48.1,22.1c-4.3,13.5-8.5,27-12.9,40.5
	c-2.4,7.5-4.9,15-7.4,22.6c-1.2,3.7-2.4,7.3-3.7,10.9l-0.4,1.2c5.9-0.2,11.8-0.1,17.6-0.2c11.7-0.1,23.4-0.2,35.1-0.3
	c13.5-0.1,26.9-0.1,40.4-0.2c5.6-3,11.5-5.4,17.1-8.2c6.5-3.2,13-6.5,19.5-9.9c13.1-6.9,26.1-14.2,39-21.9
	c25.4-15.2,50.1-31.6,74.2-49.4c6.8-5,13.4-10.2,20.1-15.3c4.6-3.6,9.2-7.3,13.9-10.8c-4.1-12.9-8.3-25.8-12.4-38.7
	C482.9,815.9,477,797.4,471.2,778.8L471.2,778.8z M528.5,957.5L528.5,957.5c-4.5-13.6-8.9-27.2-13.3-40.8
	c-4.3-13.2-8.5-26.4-12.8-39.6c-3.2,3-6.6,5.7-10,8.5c-5.8,4.9-11.8,9.6-17.8,14.2c-12,9.3-24.1,18.2-36.5,26.8
	c-24.6,17.1-50.1,32.8-76.3,47.1c-7.4,4-14.9,8-22.4,11.8c-2,1-3.9,2-5.9,3.1h13.1c46.6-0.2,93.2-0.5,139.9-0.6h38.8
	c4.5,0,9-0.1,13.5,0C535.1,978.1,531.9,967.8,528.5,957.5L528.5,957.5z M236.4,1027.5L236.4,1027.5c12.3-0.3,24.6-0.3,36.9-0.3h74.6
	c49.4,0,98.9-0.2,148.3,0.1c13.8,0.1,27.6,0.1,41.5,0.8c7.1,0.3,14.1,0.7,21.2,1.1l3.3,0.2l0.1-0.1c2.7-2,6.8-0.1,9.9-0.1
	c2,0,4.4-0.6,5.6-2.6s1.1-5.3,1.1-7.7c0-2.8-0.4-5.7-1.1-8.4c-1.3-5-5.2-8.9-10.2-10.1c-2.8-0.8-5.6-0.7-8.4-1c-1-0.1-2-0.1-3-0.1
	c-2.2,0.3-4.4,0.6-6.6,0.7c-1.6,1.4-3.9,1.8-5.5,0.3c-4.8,0.2-9.5,0.2-14.2,0.2h-35.1c-23.2,0-46.5,0.1-69.7,0
	c-46.6-0.3-93.2-0.6-139.9-0.8c-12.9-0.1-25.8-0.2-38.8-0.3c-9.1-0.1-18.3,0.2-27.5-0.4c-0.2,0.4-0.4,0.7-0.7,1
	c-2.2,2.1-4,1.5-6.6,1.2c-2.1-0.4-4.2-0.3-6.3,0.2c-1.4,0.2-2.8,0.9-3.9,1.8c-1.4,1.4-1.8,3.7-2.1,5.7c-1,5-1.4,10.1-1,15.1
	c0.2,1.7,0.6,3.8,1.8,5c0.4,0.4,0.8,0.7,1.4,0.8c5.3-0.7,10.6-0.9,16-1.3C223.8,1028,230.1,1027.7,236.4,1027.5L236.4,1027.5z"/>
<path class="st4" d="M568.4,1018.1c0.5-0.5,1-0.9,1.6-1.4s1.2-0.9,1.8-1.4c0.7-0.5,1.6-0.3,2.1,0.4c0,0,0,0,0,0.1
	c0.5,0.7,0.4,1.7-0.1,2.4c-0.4,0.6-0.7,1.3-1.1,1.9s-0.8,1.2-1.3,1.7c-0.8,1.1-1.9,2.2-3,3c-1.8,1.2-4-1.2-2.9-3.3
	C566.3,1020.2,567.2,1019.1,568.4,1018.1z"/>
<path class="st4" d="M558.6,1013.4c3.6-3,7.2-6.1,10.9-9.1c2.3-1.9,5.4,2.5,3.1,4.5c-3.5,3.2-7,6.4-10.5,9.6
	c-2.7,2.5-6.5,7.1-10.3,6.4c-0.7-0.3-1.2-1-1.2-1.8C550.9,1018.8,555.9,1015.7,558.6,1013.4z"/>
<path class="st4" d="M542.6,1012.3c3.4-2.9,7-5.7,10.8-8.2c2.3-1.6,4.3,2.4,2.1,4.1c-3.6,2.7-7,5.6-10.3,8.6
	c-2.6,2.4-5.8,6.9-9.3,7.2c-1,0.1-1.5-1.1-1.4-2.1C535,1017.9,539.9,1014.6,542.6,1012.3z"/>
<path class="st4" d="M523.4,1014.9c3.3-2.6,6.7-5,10-7.5c1.8-1.3,4.1,1.9,2.3,3.5c-3,2.8-6,5.6-9.1,8.3c-2.6,2.3-6,6.3-9.5,6.2
	c-1-0.1-1.7-1-1.6-1.9c0-0.1,0-0.2,0.1-0.3C516.6,1019.4,520.8,1017,523.4,1014.9z"/>
<path class="st4" d="M505.7,1013.6l8.9-6.4c2.5-1.8,4.7,2.6,2.3,4.4l-8.8,6.6c-2.4,1.8-5,4.5-8.1,4c-0.7-0.1-1.1-1.2-1-1.9
	C499.9,1017.1,503.4,1015.3,505.7,1013.6z"/>
<path class="st4" d="M485.6,1013.1c2.6-2,5.3-3.8,8.1-5.4c2.2-1.2,5,2.2,2.8,4.1c-2.5,2.2-5.2,4.3-7.9,6.2c-2.3,1.6-5,3.9-7.8,3.5
	c-0.8-0.1-1.3-1.3-1.1-2.1C480.5,1016.4,483.5,1014.7,485.6,1013.1z"/>
<path class="st4" d="M463.5,1017.2l8.5-4.2c2.4-1.1,4.5,2.7,2.1,4l-8.8,4.7c-2.3,1.2-5.4,3.6-8,2.7c-0.9-0.4-1.3-1.4-0.9-2.3
	c0,0,0-0.1,0.1-0.1C457.6,1019.4,461.2,1018.3,463.5,1017.2z"/>
<path class="st4" d="M440.8,1016.2c1.8-0.9,3.4-1.8,5.2-2.5c2.9-1.1,4.1,4.1,1.2,5.2c-1.8,0.6-3.5,1.1-5.3,1.5
	c-1.5,0.4-3.2,1.2-4.7,0.7c-0.7-0.3-1-1.1-0.7-1.8c0,0,0-0.1,0.1-0.1C437.5,1017.4,439.2,1016.9,440.8,1016.2z"/>
<path class="st4" d="M420.6,1012.9c1.4-0.3,2.7,0.5,3.1,1.9c0,0,0,0.1,0,0.1c0.3,1.5-0.4,3.2-1.8,3.5c-1.8,0.5-3.6,0.8-5.3,0
	c-1.1-0.6-0.9-2.2-0.4-3C417.3,1013.9,419.1,1013.3,420.6,1012.9z"/>
<path class="st4" d="M528.5,975c-1.8,1.7-4,3-6.4,3.8c-2.1,0.6-3-2.4-1.4-3.8c2-1.5,4.2-2.5,6.6-3.1
	C529.1,971.5,529.9,973.9,528.5,975z"/>
<path class="st4" d="M522.4,961.5c-3.3,2.6-6.7,5.1-10,7.6c-1.6,1.2-3.3,2.3-5,3.3c-1.4,1-3.1,1.2-4.8,0.8c-0.7-0.3-1-1-0.9-1.7
	c0.9-4.1,4.8-6,7.8-8c3.5-2.3,6.9-4.5,10.5-6.7C522.7,955.1,524.9,959.5,522.4,961.5z"/>
<path class="st4" d="M513.2,950.6c-3.3,1.8-6.4,3.9-9.3,6.3c-1.5,1.2-5.7,5.8-7.4,2.4c-1.5-3.1,3.4-6.4,5-7.8c3-2.3,6.3-4.2,9.8-5.6
	C513.9,944.8,515.6,949.3,513.2,950.6z"/>
<path class="st4" d="M509.2,929.9l-7.1,5.9c-1.9,1.6-4.2,4.2-6.8,3.9c-0.9-0.1-1.5-0.9-1.4-1.7c0-0.1,0-0.2,0.1-0.3
	c0.5-2.9,3.4-4.5,5.4-6.1l7.5-6C509.3,923.7,511.5,928,509.2,929.9z"/>
<path class="st4" d="M503.6,914.1l-2.8,2.5c-0.9,0.9-1.9,1.8-3.1,2.4c-0.8,0.5-1.8,0.3-2.5-0.4c-0.6-0.8-0.8-1.9-0.3-2.8
	c1.4-2.2,3.5-3.8,5.3-5.6c0.8-0.9,2.2-1,3.1-0.2c0.1,0.1,0.1,0.1,0.2,0.2C504.5,911.2,504.6,913.2,503.6,914.1z"/>
<path class="st4" d="M498.1,904.1c-0.4,0.1-0.8,0.1-1.1-0.1c-0.4-0.2-0.7-0.5-0.9-0.9c-0.1-0.2-0.1-0.3-0.2-0.5
	c-0.2-0.7,0-1.5,0.5-2.1l0,0c0,0,0,0,0-0.1s0.2-0.3,0.3-0.5l0.4-0.4c0.3-0.2,0.7-0.3,1.1-0.3c0.9,0,1.7,0.6,2,1.5
	c0.3,0.8,0.2,1.7-0.3,2.4C499.6,903.8,498.9,904.2,498.1,904.1z"/>
<path class="st4" d="M463.7,771.1c-1.9,1.7-3.8,3.7-6.1,4.7c-0.8,0.2-1.6-0.2-1.9-0.9c-0.4-0.8-0.3-1.7,0.3-2.3
	c1.4-2,3.6-3.4,5.5-4.8C463.2,766.5,465.3,769.6,463.7,771.1z"/>
<path class="st4" d="M457,757.8l-6.1,5.9c-1.4,1.3-4,4.1-5.8,1.9s0.6-4.5,1.9-5.8l6.5-6C456,751.5,459.5,755.5,457,757.8z"/>
<path class="st4" d="M451.6,734.5c-2.4,2.3-4.7,4.7-7.1,7c-1.8,1.8-4.1,5-6.7,4.6c-0.8-0.1-1.3-0.7-1.3-1.5c0-3.1,2.9-5,4.8-6.9
	l7.1-7C450.6,728.6,453.9,732.2,451.6,734.5z"/>
<path class="st4" d="M446.1,715.6c-1.6,1.4-3.1,2.8-4.8,4.2c-1.3,1.1-2.9,2.7-4.7,2.2c-0.5-0.2-0.8-0.7-0.8-1.2c0-2,1.6-3.3,2.7-4.5
	c1.4-1.5,3-2.8,4.5-4.2C445.2,710.1,448.4,713.7,446.1,715.6z"/>
<path class="st4" d="M408.7,598.8c-2.2,1.3-4.8,3.5-7.3,3.5c-2.1,0-2.9-2.8-1.6-4.4c1-1,2.2-1.8,3.5-2.2l3.6-1.6
	C409.3,592.9,411,597.4,408.7,598.8z"/>
<path class="st4" d="M404.2,587.5c-3.3,1.4-6.6,3.4-10.1,3.7c-2.8,0.3-3.4-4.1-1.3-5.6c2.9-2.1,6.8-3,10-4.2
	C406.2,580.3,407.5,586.2,404.2,587.5z"/>
<path class="st4" d="M394.2,573.2c-0.5,0.2-1,0.4-1.5,0.6c-0.3,0.1-0.7,0.2-1,0.2c-0.3,0.1-0.6,0.1-0.8,0h-0.2c-1.1,0-2-0.8-2.4-1.8
	c-0.4-1.1-0.2-2.3,0.5-3.2l0,0l0.4-0.6c0.3-0.3,0.7-0.7,1.1-0.9c0.4-0.3,0.9-0.6,1.4-0.9c1.4-0.9,3.3-0.5,4.2,1
	c0.1,0.2,0.3,0.5,0.3,0.8c0.4,0.9,0.4,1.9,0,2.8C395.9,572.1,395.2,572.8,394.2,573.2z"/>
<path class="st4" d="M1095.8,743.8c0-55.8,0.1-111.6-0.1-167.4c-0.1-15.7,0.2-31.4-0.2-47.1c-0.1-3.8-0.2-7.7-0.5-11.5
	c-0.2-1.9,0-3.9-0.2-5.8s-1-3.8-1.2-5.8l-1-10.5c0.1-2.4,0.1-4.8,0.2-7.2c0.1-4,0.6-8.1,0-12.1c-1.1-7.7-7-11.8-14.3-12.7
	c-6.6-0.8-13.4-0.6-20-0.5c-40.4-3.1-80.7-2.7-121.2-2.7H812.7c-82.9,0-165.8-0.4-248.7,0.1c-23.3,0.1-46.5,0.2-69.8,0.5
	c-11.2,0.1-22.4,0.2-33.6,0.5c-1.4-0.2-2.9-0.3-4.3-0.4c-8.3-0.5-16.5-0.3-24.8,0.6c-7.3,0.8-14.9,2.6-19.9,8.5
	c-4.5,5.3-5.9,12.3-6,19.1c0,4.2,0.2,8.3,0.4,12.5c0,0.1,0,0.2,0,0.3c0,0.4-0.1,0.7-0.1,1.1c-0.5,6.7-0.9,13.5-1.1,20.2
	c-0.5,13.5-0.6,26.9-0.6,40.4c0,27.2,0,54.5,0,81.7c0,54.5,0.4,109,1.2,163.4c0.2,15.4,0.3,30.8,1.5,46.2c0.1,1,0.1,2.1,0.2,3.2
	c-0.3,2-0.5,4-0.6,6.1c-0.3,4.5-0.6,9-0.7,13.5c-0.3,9.1-0.2,18.2-0.1,27.4c0,4-0.4,8.6,0.8,12.5c1.1,3.7,4,6.6,7.6,7.9
	c3.2,1.2,6.5,1.7,9.9,1.5c3.5-0.1,7.1-0.2,10.6-0.3c3.6,0.8,7.4,1.3,11.1,1.5c5.5,0.3,11.1,0.3,16.6,0.3c10.2,0.1,20.5,0,30.7,0
	h121.2c-1,2.5-2.1,5-3.2,7.5c-2.5,5.7-5,11.3-7.6,16.9c-2.5,5.5-5.1,10.9-7.7,16.3c-1.4,2.9-2.6,5.8-3.8,8.8
	c-0.2,0.6-0.5,1.2-0.7,1.8l-2.1,0.1c-2.2,0.1-4.4,0.2-6.5,0.4l-1.9-0.2c-4.6-0.4-9.3-1.1-14-0.3c-8.7,1.5-13.9,9.8-15.3,18
	c-0.7,4.7-1,9.4-1.1,14.2c-0.2,4.7-0.6,9.5-0.5,14.3c0.1,4.5,1.7,9.1,5.8,11.4c3.4,1.9,7.4,2,11.2,1.6c2.8-0.3,5.7-0.6,8.5-1
	c1.7,0,3.4,0,5,0c5.8,0.2,11.5,0.2,17.3,0.2h249.2c13.2,0,26.3-0.1,39.4-0.3c13.4-0.2,27.1,0.2,40.3-2.2c0.7-0.1,1.4-0.5,1.8-1.1
	c0.8-0.4,1.5-0.8,2.2-1.3c6.4-5.3,6.7-14.8,6.8-22.5c0.1-4.5-0.1-9.1-0.6-13.5c-0.5-4.4-0.9-9-3-13c-4.2-8.1-13.5-7.6-21.2-7.2
	c-4,0.2-8.2,0.5-12.2,0.8c-1-3.2-2.3-6.3-3.7-9.3c-2.1-5-4.3-9.9-6.4-14.9s-4.2-9.8-6.2-14.7c-1.1-2.6-2.2-5.2-3.2-7.8
	c-0.4-0.9-0.7-1.8-1-2.8c17.3,0,34.7-0.1,52-0.3c23.5-0.2,46.9-0.3,70.4-0.6c21.8-0.2,43.7,0.2,65.3-2c6.9-0.1,14.3-0.8,19.7-5.5
	c1.5-1.4,2.8-3.1,3.8-4.9c1.5-0.4,2.6-1.8,2.7-3.4c0.9-7,1-14.1,1.2-21.2s0.5-14.1,0.6-21.2c0.3-13.9,0.2-27.9,0.2-41.8
	C1095.8,800,1095.8,771.9,1095.8,743.8z"/>
<path class="st7" d="M1062.9,919.1L1062.9,919.1c-1.1,0.1-2.2,0.2-3.3,0.2c-16.6-1.2-33.2-1.1-49.8-1.3c-20.9-0.2-41.8-0.4-62.7-0.5
	c-41.8-0.3-83.6-0.3-125.4-0.3H467.3c-1.6-0.9-3.5-1.4-5.3-1.4c0.8-0.5,1.2-1.5,0.9-2.4c-1.1-3.6-5.6-5.6-8.6-7.5l-10.5-6.7
	c-7-4.5-14.2-8.6-21.5-12.8c-2.2-1.3-3.9,1.9-2,3.4c6.6,4.9,13.1,9.8,19.9,14.5l9.9,6.8c2.1,1.4,4.8,3.8,7.5,4.8c-0.4,0-0.8,0-1.2,0
	c-4.3,0.1-8.6,0.4-12.9,0.6c-7.8,0.4-15.6,1.4-23.4,1.5c-2.3,0.1-4.8-0.1-5.7-2.5c-1.2-3.3-0.6-7.8-0.6-11.3
	c-0.1-8.3-0.3-16.7-0.8-25c-0.2-3.7-0.5-7.3-0.8-11c0.9-16.2,1.9-32.4,2.1-48.7c0.4-27.2,0.6-54.5,0.8-81.7
	c0.4-54.5,0.6-109,0.6-163.5c0-15.4,0.1-30.8-0.4-46.2c-0.3-7.7-0.6-15.4-1.2-23.1c-0.1-1.9-0.2-3.9-0.4-5.8
	c-0.1-0.5-0.1-1.1-0.2-1.6c0-2.6,0.1-5.2,0.4-7.8c1-6.5,3.7-13.6,10.3-16c3.8-1.4,8-1.7,12-2c4.7-0.3,9.4-0.3,14.1-0.5l15-0.3
	c2.5-0.1,5-0.2,7.5-0.1c1.3,0.1,2.6,0,3.9-0.1c3.3,0,6.7,0,10,0.1c20.7,0.3,41.5,0.3,62.2,0.5c41.5,0.3,82.9,0.2,124.4,0.2h248.7
	c35.2,0,70.4,0.5,105.5-0.9c0.9,0.3,1.9,0.6,2.8,0.7c2,0.2,4.1,0.3,6.2,0.4c4.1,0.1,8.2,0,12.3,0.1c7.9,0,15.8,0,23.7,0
	c4.9,0,11.9-0.3,13.1,5.7c0.7,3.4,0.4,7.2,0.5,10.7c0.1,4,0.2,7.9,0.3,11.9c0,1.9,0.1,3.8,0.2,5.8c-0.6,2.6-0.9,5.2-1.1,7.8
	c-0.1,3.5-0.4,7-0.5,10.6c-0.5,13.9-0.3,27.9-0.4,41.8c-0.2,28-0.1,56.1-0.2,84.2c-0.1,55.8-0.1,111.6,0,167.4
	c0,15.7-0.2,31.4,0.1,47.1c0.2,7.7,0.4,15.4,0.7,23.1c0.2,4.8,0.2,9.6,0.5,14.4c-0.2,4.3-1.1,8.3-4.2,11.7
	C1077.1,918.8,1068.7,918.7,1062.9,919.1z"/>
<path class="st9" d="M1057.2,858.7c1.2,0,2.2-1,2.1-2.3c0-0.1,0-0.2,0-0.3c0.6-0.1,1.1-0.7,1.1-1.4c0.2-2.9,0.7-5.8,0.8-8.6
	s0.1-5.8,0.1-8.7c0.1-5.8,0.2-11.5,0.2-17.3c0.1-11.5,0.2-23,0.4-34.6c0.3-23.1,0.4-46.1,0.4-69.2c0-46.1,0-92.2,0-138.3
	c0-12.8,0-25.6-0.2-38.4c-0.1-6.6-0.2-13.1-0.4-19.7c-0.1-2.6-0.1-5.2-0.2-7.8c0.2-1.2,0.3-2.4,0.4-3.5c0.1-2.5,0.2-5.5-0.9-7.9
	c-0.9-2.2-3-3.7-5.4-3.9c-1.1-0.1-2.2-0.1-3.2,0.1c-0.6,0.1-1.1,0.2-1.7,0.4c-19-1.1-38-0.5-57-0.5c-19.2,0-38.4-0.4-57.6-0.5
	c-38.4-0.2-76.8-0.6-115.3-0.6c-76.4,0-152.9,0-229.3,0.1c-21.6,0-43.1,0-64.7,0.3c-10.6,0.1-21.2,0.3-31.8,0.4h-0.7
	c-0.1-0.1-0.3-0.3-0.5-0.4c-2.9-1.3-6.2-1.4-9.4-1.5c-3.4-0.1-6.9,0-10.3,0.1c-6.8,0.1-13.6,0-20.4,0.3c-4.9,0.2-12.8,0.5-14,6.5
	c-0.2,1.2-0.3,2.3-0.2,3.5c-1.6,22.1-1,44.5-1.2,66.7c-0.1,22.8-0.2,45.5-0.3,68.3c-0.1,45.7-0.2,91.3-0.1,137v38.5
	c0,9.7,0,19.4,0.4,29.1c-0.8,2.8-1.2,5.6,0.2,8.4c0.1,0.3,0.3,0.5,0.4,0.8c0,0.1,0,0.1,0,0.2c0,0.8,0.7,1.5,1.5,1.6
	c2.1,1.8,5.1,2.4,8,2.6c5.1,0.4,10.3,0.2,15.4,0.2c8.1,1,16.2,0.8,24.4,0.9c9.5,0.1,19.1,0.1,28.6,0.1l58.4,0l116.8,0.1
	c77.9,0.1,155.8,0.6,233.7,0.4c21.9-0.1,43.7-0.1,65.6-0.2C1013.4,859.5,1035.4,860.2,1057.2,858.7z"/>
<path class="st10" d="M1057.2,858.7c1.2,0,2.2-1,2.1-2.3c0-0.1,0-0.2,0-0.3c0.6-0.1,1.1-0.7,1.1-1.4c0.2-2.9,0.7-5.8,0.8-8.6
	s0.1-5.8,0.1-8.7c0.1-5.8,0.2-11.5,0.2-17.3c0.1-11.5,0.2-23,0.4-34.6c0.3-23.1,0.4-46.1,0.4-69.2c0-38.7,0-77.4,0-116.2
	c-99.2,82.9-287.7,193.2-624.1,251.3c0.1,0.5,0.3,0.9,0.5,1.4c0.1,0.3,0.3,0.5,0.4,0.8c0,0.1,0,0.1,0,0.2c0,0.8,0.7,1.5,1.5,1.6
	c2.1,1.8,5.1,2.4,8,2.6c5.1,0.4,10.3,0.2,15.4,0.2c8.1,1,16.2,0.8,24.3,0.9c9.5,0.1,19.1,0.1,28.6,0.1l58.4,0.1
	c39,0,77.9,0,116.8,0.1c77.9,0.1,155.8,0.6,233.6,0.4c21.9-0.1,43.7-0.1,65.6-0.2C1013.4,859.5,1035.4,860.2,1057.2,858.7z"/>
<path class="st11" d="M759.2,885.4L759.2,885.4c-4.1,14.7-26,21.6-34.9,7.2c-3.4-5.8-2.8-13,1.5-18.1c3.1-0.9,5.9-2.5,9-3.2
	c3.5-0.8,7.1-0.9,10.7-0.2C752.5,872.5,761.5,876.9,759.2,885.4z"/>
<path class="st12" d="M752.2,867.1c-5-1.9-10.3-2.5-15.6-1.8c-5.2,0.7-11.2,2.2-14.2,6.9c-0.4,0.6-0.4,1.4,0.1,1.9
	c-3.6,4.6-4.8,10.7-3.2,16.3c2.5,8.7,11.8,14.8,20.7,14.7c9.5-0.1,18.4-6.2,23-14.4c2.5-4.4,3.3-9.9,1-14.5
	C761.6,871.7,756.7,868.9,752.2,867.1z"/>
<path class="st11" d="M869.1,929.5L869.1,929.5l-12.1-0.6h11.9C868.9,929,869,929.2,869.1,929.5z"/>
<path class="st13" d="M881.2,958L881.2,958c2.2,4.9,4.3,9.8,6.5,14.6c0.8,1.9,1.8,4.2,2.9,6.4c-2.5,0-5-0.1-7.5-0.1h-33.7h-67.8
	c-45.2,0-90.4,0.1-135.6,0.2c-12.5,0.1-25,0.2-37.5,0.3l-6.7,0.1c0.9-1.6,1.7-3.2,2.5-4.7c2.9-5.6,5.7-11.3,8.4-17
	c2.2-4.7,4.3-9.4,6.4-14.2c14.9,2.2,30.2,2,45.2,2.3c16.5,0.4,33,0.7,49.5,0.7c33,0,66,0,99-0.3c18.5-0.2,37.3,0.2,55.7-1.7
	c1.9,0.2,3.6-1.8,3.6-3.6c0-0.2,0-0.4,0-0.6c0.5-0.2,1-0.5,1.4-0.8l1.2,2.9C876.7,947.7,878.9,952.9,881.2,958z"/>
<path class="st13" d="M923.5,989.5L923.5,989.5c0.8,1.3,1.3,2.8,1.4,4.4c1.5,8.5,1.9,17.1,1,25.6c-0.3,2.9-1.1,6.1-3.2,8.1
	c-0.5,0.5-1.1,1-1.8,1.3c-9.8-1.2-19.9-1.1-29.7-1.2c-11.8-0.2-23.7-0.4-35.6-0.4H597.2c-5.5-1.4-11.5-0.7-17.2,0.2l-7.2,0.3
	c-1.9,0.1-3.8,0.6-5.5,1.4c-1.2,0.1-2.4,0.2-3.6,0.2c-2.1,0-3.3,0-3.6-2.3c-0.4-3.8,0.1-7.9,0.2-11.7c0.1-4.1,0.1-8.2,0.4-12.3
	c0.4-5.2,2-12.3,7.9-13.8c4-1,8.6-0.4,12.7-0.5l2.6-0.1l3.4,0.2c5.6,0.4,11.2,0.5,16.8,0.7c11.2,0.3,22.5,0.3,33.7,0.4
	c22.6,0.1,45.2,0.2,67.8,0.2c45.2,0,90.4,0,135.6,0h37.5c11,0,21.9,0,32.8-1.5c3.2-0.2,6.6-0.6,9.7-0.1
	C922,988.8,922.8,989.1,923.5,989.5z"/>
<path class="st4" d="M1095.8,743.8c0-55.8,0-111.6-0.1-167.4c-0.1-15.7,0.2-31.4-0.2-47.1c-0.1-3.8-0.2-7.7-0.5-11.5
	c-0.2-1.9,0-3.9-0.2-5.8s-1-3.8-1.2-5.8l-1-10.5c0.1-2.4,0.1-4.8,0.2-7.2c0.1-4,0.6-8.1,0-12.1c-1.1-7.7-7-11.8-14.3-12.7
	c-6.6-0.8-13.4-0.6-20-0.5c-40.4-3.1-80.7-2.7-121.2-2.7H812.7c-82.9,0-165.8-0.4-248.7,0.1c-23.3,0.1-46.5,0.2-69.8,0.5
	c-11.2,0.1-22.4,0.2-33.6,0.5c-1.4-0.2-2.9-0.3-4.3-0.4c-8.3-0.5-16.5-0.3-24.8,0.6c-7.3,0.8-14.9,2.6-19.9,8.5
	c-4.5,5.3-5.9,12.3-6,19.1c0,4.2,0.2,8.3,0.4,12.5c0,0.1,0,0.2,0,0.3c0,0.4-0.1,0.7-0.1,1.1c-0.5,6.7-0.9,13.5-1.1,20.2
	c-0.5,13.5-0.6,26.9-0.6,40.4c0,27.2,0,54.5,0,81.7c0,54.5,0.4,109,1.2,163.5c0.2,15.4,0.3,30.8,1.5,46.2c0.1,1,0.1,2.1,0.2,3.2
	c-0.3,2-0.5,4-0.6,6.1c-0.3,4.5-0.6,9-0.7,13.5c-0.3,9.1-0.2,18.2-0.1,27.4c0,4-0.4,8.6,0.8,12.5c1.1,3.7,4,6.6,7.6,7.9
	c3.2,1.2,6.5,1.7,9.9,1.5c3.5-0.1,7.1-0.2,10.6-0.3c3.6,0.8,7.4,1.3,11.1,1.5c5.5,0.3,11.1,0.3,16.6,0.3c10.2,0.1,20.5,0,30.7,0
	h121.2c-1,2.5-2.1,5-3.2,7.5c-2.5,5.7-5,11.3-7.6,16.9c-2.5,5.5-5.1,10.9-7.7,16.3c-1.4,2.9-2.6,5.8-3.8,8.8
	c-0.2,0.6-0.5,1.2-0.7,1.8l-2.1,0.1c-2.2,0.1-4.4,0.2-6.5,0.4l-1.9-0.2c-4.6-0.4-9.3-1.1-14-0.3c-8.7,1.5-13.9,9.8-15.3,17.9
	c-0.7,4.7-1,9.4-1.1,14.2c-0.2,4.7-0.6,9.5-0.5,14.3c0.1,4.5,1.7,9.1,5.8,11.4c3.4,1.9,7.4,2,11.2,1.6c2.8-0.3,5.7-0.6,8.5-1
	c1.7,0,3.4,0,5,0c5.8,0.2,11.5,0.2,17.3,0.2h249.1c13.2,0,26.3-0.1,39.5-0.3c13.4-0.2,27.1,0.2,40.3-2.2c0.7-0.1,1.3-0.5,1.8-1.1
	c0.8-0.4,1.5-0.8,2.2-1.3c6.4-5.3,6.7-14.8,6.8-22.5c0.1-4.5-0.1-9.1-0.6-13.5c-0.5-4.4-0.9-9-3-13c-4.2-8.2-13.5-7.6-21.2-7.2
	c-4,0.2-8.2,0.5-12.2,0.8c-1-3.2-2.3-6.3-3.7-9.3c-2.1-5-4.3-9.9-6.4-14.9s-4.2-9.7-6.2-14.6c-1.1-2.6-2.2-5.2-3.2-7.8
	c-0.4-0.9-0.7-1.8-1-2.8c17.3,0,34.7-0.1,52-0.3c23.5-0.2,46.9-0.3,70.4-0.6c21.8-0.2,43.7,0.2,65.3-2c6.9-0.1,14.3-0.8,19.7-5.5
	c1.5-1.4,2.8-3.1,3.8-4.9c1.5-0.4,2.6-1.8,2.7-3.4c0.9-7,1-14.1,1.2-21.2s0.5-14.1,0.6-21.2c0.3-13.9,0.2-27.9,0.2-41.8
	L1095.8,743.8L1095.8,743.8z M636.8,937h0.4H636.8L636.8,937L636.8,937z M673.1,935.9L673.1,935.9c1.5,0,3.1,0,4.6-0.1h0.5h0.4
	l-8.1,0.2c-4.2,0.1-8.4,0.2-12.5,0.3C662.9,936.1,668,935.9,673.1,935.9L673.1,935.9z M923.5,989.6L923.5,989.6
	c0.8,1.3,1.3,2.8,1.4,4.4c1.5,8.5,1.9,17.1,1,25.6c-0.3,2.9-1.1,6.1-3.2,8.1c-0.5,0.5-1.1,1-1.8,1.3c-9.8-1.2-19.9-1.1-29.7-1.2
	c-11.8-0.2-23.7-0.4-35.6-0.4H597.2c-5.5-1.4-11.5-0.7-17.2,0.2l-7.2,0.3c-1.9,0.1-3.8,0.6-5.5,1.4c-1.2,0.1-2.4,0.2-3.6,0.2
	c-2.1,0-3.3,0-3.6-2.3c-0.4-3.8,0.1-7.9,0.2-11.7c0.1-4.1,0.1-8.2,0.4-12.3c0.4-5.2,2-12.3,7.9-13.8c4-1,8.7-0.4,12.7-0.5l2.6-0.1
	l3.4,0.2c5.6,0.4,11.2,0.5,16.8,0.7c11.2,0.3,22.5,0.3,33.7,0.4c22.6,0.1,45.2,0.2,67.8,0.2c45.2,0,90.4,0,135.6,0h37.5
	c11,0,21.9,0,32.8-1.5c3.2-0.4,6.5-0.4,9.7-0.1C922,988.9,922.8,989.2,923.5,989.6L923.5,989.6z M881.2,958L881.2,958
	c2.2,4.9,4.3,9.8,6.5,14.6c0.8,1.9,1.8,4.2,2.9,6.4c-2.5,0-5-0.1-7.5-0.1h-33.7h-67.8c-45.2,0-90.4,0.1-135.6,0.2
	c-12.5,0.1-25,0.2-37.5,0.4l-6.7,0.1c0.9-1.6,1.7-3.2,2.5-4.7c2.9-5.6,5.7-11.3,8.3-17c2.2-4.7,4.4-9.4,6.5-14.2
	c14.9,2.2,30.2,2,45.2,2.3c16.5,0.4,33,0.7,49.5,0.7c33,0,66,0,99-0.3c18.5-0.2,37.3,0.2,55.7-1.7c1.9,0.2,3.6-1.8,3.6-3.6
	c0-0.2,0-0.4,0-0.6c0.5-0.2,1-0.5,1.4-0.8l1.2,2.9c2.2,5.2,4.3,10.3,6.6,15.5L881.2,958z M869.1,929.4L869.1,929.4l-12.1-0.6h11.9
	C868.9,929,869,929.2,869.1,929.4L869.1,929.4z M1062.9,919.1L1062.9,919.1l-3.3,0.2c-16.6-1.2-33.2-1.1-49.8-1.3
	c-20.9-0.2-41.8-0.4-62.7-0.5c-41.8-0.3-83.6-0.3-125.4-0.3H467.3c-1.6-0.9-3.5-1.4-5.3-1.4c0.8-0.5,1.2-1.5,0.9-2.4
	c-1.1-3.6-5.6-5.6-8.6-7.5l-10.5-6.7c-7-4.5-14.2-8.6-21.5-12.8c-2.2-1.3-3.9,1.9-2,3.4c6.6,4.9,13.1,9.8,19.9,14.5l9.9,6.8
	c2.1,1.4,4.8,3.8,7.5,4.8h-1.2c-4.3,0.1-8.6,0.4-12.9,0.6c-7.8,0.4-15.6,1.4-23.4,1.5c-2.3,0.1-4.8-0.1-5.7-2.5
	c-1.2-3.3-0.6-7.8-0.6-11.3c-0.1-8.3-0.3-16.7-0.8-25c-0.2-3.7-0.5-7.4-0.8-11c0.9-16.2,1.9-32.4,2.1-48.7
	c0.4-27.2,0.6-54.5,0.8-81.7c0.4-54.5,0.6-109,0.6-163.5c0-15.4,0.1-30.8-0.4-46.1c-0.3-7.7-0.6-15.4-1.2-23.1
	c-0.1-1.9-0.2-3.9-0.4-5.8c-0.1-0.5-0.1-1.1-0.2-1.6c0-2.6,0.1-5.2,0.4-7.8c1-6.5,3.7-13.6,10.3-16c3.8-1.4,8-1.7,12-2
	c4.7-0.3,9.4-0.4,14.1-0.5l15-0.3c2.5-0.1,5-0.2,7.5-0.1c1.3,0.1,2.6,0,3.9-0.1c3.3,0,6.7,0,10,0.1c20.7,0.3,41.5,0.3,62.2,0.5
	c41.5,0.3,82.9,0.2,124.4,0.2h248.8c35.2,0,70.4,0.5,105.5-0.9c0.9,0.3,1.9,0.6,2.8,0.7c2,0.2,4.1,0.3,6.2,0.4
	c4.1,0.1,8.2,0,12.3,0.1c7.9,0,15.8,0,23.7,0c4.9,0,11.9-0.3,13.1,5.7c0.7,3.4,0.4,7.2,0.5,10.7c0.1,4,0.2,7.9,0.3,11.9
	c0,1.9,0.1,3.8,0.2,5.8c-0.6,2.6-0.9,5.2-1.1,7.8c-0.1,3.5-0.4,7-0.5,10.6c-0.5,13.9-0.3,27.9-0.4,41.8c-0.2,28-0.1,56.1-0.2,84.2
	c-0.1,55.8-0.1,111.6,0,167.4c0,15.7-0.2,31.4,0.1,47.1c0.2,7.7,0.4,15.4,0.7,23.1c0.2,4.8,0.2,9.6,0.5,14.4
	c-0.2,4.3-1.1,8.3-4.2,11.7C1077.1,918.8,1068.7,918.7,1062.9,919.1L1062.9,919.1z"/>
<path class="st4" d="M1057.2,858.7c1.2,0,2.2-1,2.1-2.3c0-0.1,0-0.2,0-0.3c0.6-0.1,1.1-0.7,1.1-1.4c0.2-2.9,0.7-5.8,0.8-8.6
	s0.1-5.8,0.1-8.7c0.1-5.8,0.2-11.5,0.2-17.3c0.1-11.5,0.2-23,0.4-34.6c0.3-23.1,0.4-46.1,0.4-69.2c0-46.1,0-92.2,0-138.3
	c0-12.8,0-25.6-0.2-38.4c-0.1-6.6-0.2-13.1-0.4-19.7c-0.1-2.6-0.1-5.2-0.2-7.8c0.2-1.2,0.3-2.4,0.4-3.5c0.1-2.5,0.2-5.5-0.9-7.9
	c-0.9-2.2-3-3.7-5.4-3.9c-1.1-0.1-2.2-0.1-3.2,0.1c-0.6,0.1-1.1,0.2-1.7,0.4c-19-1.1-38-0.5-57-0.5c-19.2,0-38.4-0.4-57.6-0.5
	c-38.4-0.2-76.8-0.6-115.3-0.6c-76.4,0-152.9,0-229.3,0.1c-21.6,0-43.1,0-64.7,0.3c-10.6,0.1-21.2,0.3-31.8,0.4h-0.7
	c-0.1-0.2-0.3-0.3-0.5-0.4c-2.9-1.3-6.2-1.4-9.4-1.5c-3.4-0.1-6.9,0-10.3,0.1c-6.8,0.1-13.6,0-20.4,0.3c-4.9,0.2-12.9,0.5-14,6.5
	c-0.2,1.2-0.3,2.3-0.2,3.5c-1.6,22.1-1,44.5-1.2,66.7c-0.1,22.8-0.2,45.5-0.3,68.3c-0.1,45.7-0.2,91.3-0.1,137v38.5
	c0,9.7,0,19.4,0.4,29.1c-0.8,2.8-1.2,5.6,0.2,8.4c0.1,0.3,0.3,0.5,0.4,0.8c0,0.1,0,0.1,0,0.2c0,0.8,0.7,1.5,1.5,1.6
	c2.1,1.8,5.1,2.4,8,2.6c5.1,0.4,10.3,0.2,15.4,0.2c8.1,1,16.2,0.8,24.3,0.9c9.5,0.1,19.1,0.1,28.6,0.1l58.4,0l116.8,0.1
	c77.9,0.1,155.8,0.6,233.6,0.4c21.9-0.1,43.7-0.1,65.6-0.2C1013.4,859.5,1035.4,860.2,1057.2,858.7L1057.2,858.7z M823.5,853.2
	L823.5,853.2c-77.9,0.3-155.8,0.4-233.7,0.3l-65.6,0.1c-10.7,0-21.5,0-32.2,0.1c-3.6,0-7.2,0-10.9,0c-3.6-1.8-9-0.9-12.8-0.9
	c-4.5,0-9,0.1-13.4,0.2l-6.2,0.2c-1.6,0-3.4,0.1-4.9-0.8c-0.5-0.3-0.9-0.7-1.2-1.1c0.8-10.7,0.9-21.3,0.9-32.1V716.9
	c0-45.7-0.1-91.3-0.4-137c-0.1-12.8-0.1-25.6-0.2-38.5c-0.1-7.5-0.1-15.1-0.3-22.6l0,0c1.5-1.8,1.2-4.4,1.2-6.6
	c0-2.9,0.1-5.8,0.4-8.6c0.2-1.5,0.7-2.2,2.2-2.4c1.4-0.2,2.9-0.2,4.3-0.1h8.5c2.3,0,4.6,0,7,0c17.7,1.7,35.7,1.1,53.5,1.4
	c19.2,0.2,38.4,0.4,57.6,0.4l115.2,0.1c38,0,76,0,114.1,0h57.6c19.2,0,38.4-0.5,57.6-0.5c21.6-0.1,43.1-0.7,64.7-0.6
	c21.3,0,42.7,0.8,64-0.5l0,0c1,0.2,2,0,3,0.2c1.5,0.2,2.5,1.5,2.4,3c0.2,3-0.7,6.6-0.1,9.7c-0.3,6.9-0.2,13.8-0.3,20.7
	c-0.2,11.5-0.2,23.1-0.2,34.6c0,23.1,0,46.1,0,69.2c0,46.1-0.2,92.2,0.3,138.3c0.1,12.8,0.3,25.6,0.4,38.4
	c0.1,6.6,0.1,13.1,0.2,19.7c0.1,3.2,0.1,6.4,0.2,9.6s0.5,6.4,0.8,9.6h-0.3c-19.4-1.4-39-0.8-58.4-0.9s-39-0.2-58.4-0.2
	C901.4,853,862.5,853,823.5,853.2z"/>
<path class="st4" d="M752.2,867.1c-5-1.9-10.3-2.5-15.6-1.8c-5.2,0.7-11.2,2.2-14.2,6.9c-0.4,0.6-0.4,1.4,0.1,1.9
	c-3.6,4.6-4.8,10.7-3.2,16.3c2.5,8.7,11.8,14.8,20.7,14.7c9.5-0.1,18.4-6.2,23-14.4c2.5-4.4,3.3-9.9,1-14.5
	C761.6,871.7,756.7,868.9,752.2,867.1L752.2,867.1z M759.2,885.4L759.2,885.4c-4.1,14.7-26,21.6-34.9,7.2c-3.4-5.8-2.7-13,1.5-18.1
	c3.1-0.9,5.9-2.5,9-3.2c3.5-0.8,7.1-0.9,10.7-0.2C752.5,872.5,761.5,876.9,759.2,885.4L759.2,885.4z"/>
<path class="st4" d="M417.2,904.3c2.6,2.6,5.6,4.7,8.9,6.5c2,1,6.8,3.7,8.5,0.8c1.6-2.7-2.4-4.3-4.2-5.1c-3.4-1.6-6.5-3.7-9.2-6.2
	C418.5,897.9,414.5,901.8,417.2,904.3z"/>
<path class="st4" d="M481.5,900.8c-3.6-2.7-7.2-5.4-10.8-8c-7.2-5.3-14.6-10.3-21.8-15.6c-2-1.5-4.6,1.9-2.7,3.5
	c7,5.6,13.8,11.4,20.8,17c3.5,2.8,7,5.5,10.5,8.2c2.8,2.2,6.9,6.4,10.8,5.9c1,0,1.7-0.8,1.7-1.8c0-0.1,0-0.2,0-0.4
	C489.3,905.7,484.3,902.9,481.5,900.8z"/>
<path class="st4" d="M497.6,890.3c-6.7-5-13.7-9.5-20.8-13.9c-2.6-1.6-4.7,2.3-2.3,4c6.7,4.8,13.3,9.9,19.8,15
	c6.2,4.8,12.1,10.8,19.6,13.3c0.7,0.2,1.4-0.3,1.6-1c0.1-0.3,0-0.7-0.1-0.9C511.5,899.7,504,895,497.6,890.3z"/>
<path class="st4" d="M530.9,895.6c-2.8-2.2-5.6-4.4-8.5-6.6c-5.7-4.3-11.6-8.3-17.3-12.6c-1.8-1.3-4.1,1.7-2.4,3.1
	c5.5,4.6,10.8,9.3,16.3,13.9c2.7,2.2,5.4,4.4,8.1,6.5c2.4,1.9,5.3,4.3,8.5,4.5c0.8,0,1.5-0.7,1.5-1.5c0-0.1,0-0.3-0.1-0.4
	C536.1,899.7,533.2,897.5,530.9,895.6z"/>
<path class="st4" d="M550.1,898.6c-2.7-2.2-5.3-4.6-7.6-7.2c-2.4-2.7-6.3,1.3-4,4c2.3,2.6,4.8,4.9,7.6,7c1.7,1.3,5.6,5,7.8,2.5
	S551.7,899.8,550.1,898.6z"/>
<path class="st4" d="M575.1,900.8c-1.5-1.3-3.4-1.8-5.2-2.7c-1.8-0.9-3.5-2-5-3.2c-3.1-2.6-7.5,1.9-4.4,4.4c1.8,1.5,3.9,2.9,6,4
	c2,1,4.5,2.3,6.8,2C575.2,905.1,577,902.5,575.1,900.8z"/>
<path class="st4" d="M584.5,1016.2c-4.1-1.5-7.5-3-10.3-6.4c-1.4-1.7-4.3,0.5-3.1,2.4c2.8,4.5,7.4,8.2,12.8,8.8
	C586.8,1021.3,586.9,1017.1,584.5,1016.2z"/>
<path class="st4" d="M608.9,1016.7c-2.8-2-5.8-3.8-8.7-5.7c-5.8-3.8-11.7-7.4-17.5-11.2c-2.5-1.7-4.8,2.3-2.4,4.1
	c5.7,4,11.2,8.2,16.9,12.2c2.8,2,5.7,4,8.5,5.9c2.6,1.7,4.9,3.5,8.2,3c0.8-0.2,1.2-1,1-1.8C614.3,1020,611.4,1018.4,608.9,1016.7z"
	/>
<path class="st4" d="M638.3,1016.9c-3.4-2.3-7.7-3.7-11.3-5.5s-7.4-3.9-11-6.2c-2.3-1.4-4.1,2-2,3.5c3.5,2.5,7.2,4.9,10.9,7.1
	c3.5,2.1,7.5,4.7,11.5,5.5c1.3,0.3,2.7-0.5,3-1.9C639.6,1018.6,639.2,1017.5,638.3,1016.9z"/>
<path class="st4" d="M653.4,1012.7c-3.2-1.4-6.4-2.7-9.6-3.9c-1.8-0.7-2.9,2.1-1.3,3c3.2,1.7,6.4,3.4,9.6,5c2.9,1.4,5.9,3.2,9.2,3.1
	c0.7,0,1.2-0.6,1.2-1.3c0-0.3-0.1-0.6-0.3-0.8C660,1015.2,656.5,1014,653.4,1012.7z"/>
<path class="st4" d="M683,1013c-2.4-1-4.8-2-7.2-2.9c-3.1-1.2-4.5,3.8-1.4,5c4,1.5,9.2,4.6,13.5,3.8c0.8-0.2,1.2-1,1-1.8
	c0-0.1-0.1-0.2-0.1-0.3C687.4,1014.7,685.2,1013.9,683,1013z"/>
<path class="st4" d="M623.2,970.9c-0.5-1.2-1.5-2.2-2.7-2.8c-1.3-0.9-2.7-1.6-4.2-2.1c-2.4-0.7-3.6,2.2-2.3,3.9
	c1,1.1,2.2,2.1,3.4,2.8c0.6,0.4,1.2,0.8,1.8,1.1c0.7,0.2,1.5,0.3,2.3,0.3c1.5,0.2,2.3-1.7,1.7-2.9
	C623.3,971.1,623.2,971,623.2,970.9z"/>
<path class="st4" d="M642.5,969.4c-1.9-1.4-3.8-2.8-5.7-4.2c-4-2.8-8-5.5-12.1-8.1c-1.6-1-3.5,1.3-2,2.6c3.6,3.2,7.3,6.3,11.1,9.4
	c3,2.4,7.1,6.9,11.2,6.6c0.7,0,1.3-0.6,1.3-1.4c0-0.1,0-0.2,0-0.3C645.7,972,644.1,970.6,642.5,969.4z"/>
<path class="st4" d="M664.7,968.6c-2.2-1.6-4.4-3.1-6.6-4.6c-4.3-2.9-8.7-5.8-13-8.8c-1.6-1.1-3.7,1.5-2.1,2.8
	c4.1,3.2,8.2,6.5,12.3,9.7c1.9,1.5,3.8,3,5.8,4.5s3.5,2.9,5.9,2.5c0.7-0.2,1.2-0.8,1.2-1.5C667.8,970.9,666.4,969.9,664.7,968.6z"/>
<path class="st4" d="M681.4,967.7l-4.4-3.2c-2-1.4-3.9,1.9-1.9,3.3l4.2,3c1.2,1,2.7,1.6,4.2,1.6c0.5,0,0.9-0.4,0.9-0.9
	c0-0.1,0-0.1,0-0.2C683.8,969.8,682.8,968.5,681.4,967.7z"/>
<path class="st4" d="M961.4,907.3c-2.7-2.1-6.9-2.8-10.2-3.2c-2.4-0.3-3.1,3.3-1.2,4.4c1.5,0.8,3,1.5,4.5,2.1
	c1.5,0.8,3.2,1.3,4.9,1.4C961.6,911.9,963.4,908.9,961.4,907.3z"/>
<path class="st4" d="M978.7,902.1c-4.2-1.8-8.4-3.4-12.7-4.9c-2.5-0.9-4.2,3.1-1.8,4.3c3.9,2,7.9,3.9,11.9,5.7
	c2.1,0.9,8.3,4.8,9.9,1.2S980.8,903,978.7,902.1z"/>
<path class="st4" d="M1010.6,902.5c-2.1-1.2-4.2-2.3-6.3-3.4c-4.4-2.3-8.8-4.5-13.2-6.7c-3.1-1.5-5.8,3-2.7,4.6
	c4.5,2.5,8.9,5,13.4,7.4c2.2,1.2,4.5,2.5,6.8,3.6c1.9,0.9,3.7,1.6,5.7,0.7c0.7-0.4,1-1.2,0.8-1.9
	C1014.6,904.6,1012.4,903.5,1010.6,902.5z"/>
<path class="st4" d="M1040.1,900.6c-2.5-1.5-5.1-3-7.7-4.5c-5.1-3-10.4-5.8-15.5-8.8c-2.7-1.5-5,2.4-2.4,4.1c5,3.2,9.9,6.6,15,9.8
	c2.4,1.5,4.8,3,7.2,4.5c2.2,1.4,5,3.7,7.7,2.7c1-0.3,1.6-1.4,1.4-2.4C1045.3,903.2,1042.1,901.8,1040.1,900.6z"/>
<path class="st4" d="M1061.7,895.1c-2.3-1.8-4.7-3.6-7-5.4c-4.7-3.5-9.3-7.1-13.9-10.7c-3.1-2.4-7.5,1.9-4.4,4.4
	c4.7,3.7,9.4,7.4,14,11.1c2.2,1.8,4.4,3.5,6.6,5.3c2.4,1.9,4.8,4.2,7.5,5.5c1.5,0.8,3.3,0.3,4.2-1.2c0.6-1.2,0.5-2.6-0.5-3.6
	C1066.5,898.4,1063.9,896.8,1061.7,895.1z"/>
<path class="st4" d="M1059.5,879.6c2,2,4.1,4.7,6.9,5.6c1,0.3,2-0.3,2.3-1.3c0.1-0.3,0.1-0.6,0-0.9c-0.8-2.8-3.6-4.8-5.6-6.9
	C1060.8,873.6,1057.1,877.3,1059.5,879.6z"/>
<path class="st4" d="M743.7,668.7c3.8-10.4,15.8-19.6,27.1-18.8c3.4,0.4,6.6,1.3,9.7,2.7c2.8,1.1,5.5,2.5,8,4.2
	c4.8,3.2,9.6,8.3,10,14.3c0,0.6-0.3,1.1-0.8,1.3c1,3.1,1.3,6.3,0.9,9.5c-0.6,5.4-3.1,10.5-7.1,14.2c-4,3.7-9,6-14.4,6.6
	c-6.2,0.8-11.9-1.3-17.5-3.8c-3-1.2-5.9-2.9-8.4-4.9c-2.4-2.1-3.9-5-5.3-7.8C743.2,680.6,741.4,674.8,743.7,668.7L743.7,668.7z
	 M752.4,687.2L752.4,687.2c1.4,2.5,3.5,4.6,6.1,5.9c4.5,2.5,9.6,5.2,14.9,5.4c4.4,0.2,8.8-1,12.5-3.4c8.7-5.6,12.1-18,7.5-27.3
	c-0.2-0.3-0.2-0.7,0-1c-0.2-0.3-0.3-0.5-0.5-0.8c-1.4-1.9-3-3.6-4.9-5.1c-3.5-2.8-8.3-5.6-12.8-6.2c-5.2-0.7-10-1.2-14.6,1.9
	c-4,2.7-7.4,6.3-9.9,10.4c-2.7,4-3.1,9.1-1.3,13.6C750.2,682.9,751.2,685.1,752.4,687.2L752.4,687.2z"/>
<path class="st4" d="M608,677.2l11.6-3.8c3.3-1.1,7-2.9,10.7-3c0.2-0.3,0.3-0.7,0.5-1c0.7-1.7,1.5-3.2,2.3-4.9
	c0.9-1.5,1.7-3,2.3-4.7c-0.3-0.8-0.8-1.5-1.1-2.3c-1.4-3.2-2.9-6.5-4.1-9.8s-0.8-6.8,1.9-9.1c2.5-2.1,6-3.4,9-4.8s6.1-3,9.2-4.4
	s6.2-2.8,9.3-4.2c2-1,4.2-1.8,6.4-2.3c1.1-1.6,2.1-3.3,3.2-4.9c2.1-3.2,4.1-6.3,6.2-9.5c2-3.2,4-7.5,8.3-7.7
	c3.3-0.1,6.9,1.5,10.1,2.2c3.4,0.8,6.8,1.4,10.2,1.8c1.5,0.3,3.1,0.5,4.6,0.4c1.2-0.4,2.4-1,3.4-1.8c1.8-1.1,3.4-2.3,5.1-3.5
	c0.2-2.8,0.6-5.6,1.4-8.4c0.7-3.2,1.3-6.5,2.1-9.7s1.5-6.4,2.3-9.6c1-3.7,1.7-7.9,5.8-9.4c2.9-1,6.5-0.6,9.5-0.7c3.4,0,6.8,0,10.2,0
	c3.3,0,6.5,0.2,9.8,0.3c1.7-0.1,3.3,0.2,5,0.7c1.9,0.8,3.4,2.5,3.8,4.6c1.9,6.4,3.3,12.8,4.2,19.4c5.1,1.7,10,4,14.7,6.7
	c1-1.2,2.2-2.4,3.2-3.5c1.6-1.7,3.2-3.4,4.8-5.1c3.3-3.4,6.7-6.8,10.2-10.1c1.8-1.7,4.6-1.7,6.4,0c9.1,7.8,22.1,9.8,29.9,19.4
	c2.2,2.7,3.4,5.3,2.9,8.8c-0.6,3.2-1.4,6.4-2.4,9.5c-0.9,3-2,6-3.2,8.9c-0.8,2.2-1.7,4.3-2.8,6.3c2.3,2.2,4.4,4.6,6.2,7.2
	c1.9,2.5,3.6,5.1,5.3,7.8c5.9-0.5,11.9-1,17.8-1.5l10.5-0.8c1.8-0.1,4-0.7,5.7-0.2c2,0.5,3.1,2.5,4.2,4c7.1,10,12.6,21.1,16.1,32.8
	c0.6,2.4-0.8,4.9-3.2,5.6c-6,2.1-11.8,4.9-17.3,8.2c-2.7,1.6-5.3,3.5-7.8,5.3c-1.6,1.2-3.5,2.1-5.5,2.6c-0.5,2.1-1.1,4.3-1.7,6.4
	c4.1,4.4,8.2,8.9,12.3,13.3c1.2,1.1,2.2,2.4,2.9,3.9c0.8,2,0.7,4.3-0.3,6.2c-1.3,3.1-2.8,6.1-4.2,9.2c-3.1,6.4-6.3,12.7-9.7,19
	c-1.6,3-3.1,6.4-5.2,9.2c-1.2,1.7-3.3,2.5-5.3,2.1c-1.7-0.5-3.3-1.3-4.8-2.2l-21.1-10.8c-1-0.5-1.7-1.4-2-2.5
	c-0.8,0.2-1.6,0.3-2.4,0.4c-0.2,9.7,1.2,19.3,4.3,28.5c0.6,2.4-0.8,4.9-3.2,5.6c-13.5,3.2-27.5,4-41.3,4.6c-1.7,0.2-3.4,0.1-5.1-0.3
	c-2.2-0.7-3.3-2.5-4.4-4.3c-1.8-3-3.5-6.1-5-9.3c-1.6-3.3-3.2-6.6-4.5-10c-0.7-1.6-1.2-3.3-1.7-5c-3.3-1.1-6.6-2.4-9.7-3.9
	c-7.9,6.1-15.2,13-21.8,20.6c-1.5,1.4-3.7,1.7-5.5,0.7c-1.3-0.9-2.6-1.9-3.9-2.8c-0.9,0.1-1.7,0.2-2.6,0.2c-2.2,0-4.4,0-6.6,0
	c-4.3-0.1-8.6-0.1-12.8,0c-4.2,0.1-8.5,0.6-12.6,0.4c-5.1-0.2-6.9-5.1-8.4-9.2c-0.3-0.8-1.8-7.2-2.4-9c-0.3,0-0.6-0.1-0.8-0.1
	L674,760h-0.3c-0.5,0.8-1.3,2-1.5,2.3l-2.9,5.2c-1.2,2.1-2.2,4.5-4.6,5.4c-4.3,1.7-9.4-2.5-12.2-5.4c-3.3-3.3-6.3-7.1-9.6-10.5
	s-6.9-6.7-10.5-9.7c-1.4-1.5-1.7-3.7-0.7-5.4c2.5-4.1,5-8.3,7.7-12.3c-1.2-1.3-2.4-2.7-3.4-4.2c-1.2-1.5-2.2-3.2-2.8-5
	c-3.8,0.5-7.8,0.5-11.6,0.8c-2.1,0.1-4.3,0.3-6.2-0.8c-1.7-1-2.6-2.9-3.6-4.6c-3.6-6.4-6.6-13.1-8.9-20.1c-1.1-3.3-2.7-7.1-2.9-10.6
	C599.5,679.9,604.1,678.5,608,677.2L608,677.2z M857.8,759.7L857.8,759.7c0.5,0.3,0.5,0.2-0.1-0.1h-0.1L857.8,759.7L857.8,759.7z
	 M637.9,645.7L637.9,645.7c0,0,0.1,0,0.2-0.2C638,645.6,637.9,645.7,637.9,645.7z M731.3,571.7L731.3,571.7L731.3,571.7
	C731.1,571.7,731.1,571.7,731.3,571.7z M871.7,725.1L871.7,725.1c-0.1,0.1-0.2,0.2-0.2,0.4L871.7,725.1z M782.2,783L782.2,783
	l-0.2-0.1C781.7,783,781.7,783,782.2,783z M728.7,770.6L728.7,770.6c4.8-5.3,9.9-10.2,15.4-14.7c1.7-1.4,3.4-2.7,5.1-4
	c0.9-0.7,1.8-1.4,2.8-1.9c1.7-0.7,3-0.2,4.6,0.5c3.5,1.5,7.4,2.9,10.8,4.8c0.3,0.1,0.6,0.2,0.9,0.4c0.3,0.3,0.7,0.5,1,0.8
	c0.4,0.3,0.7,0.6,0.9,1c1.2,1.6,2.1,3.4,2.9,5.2l1.9,4.2c0.1-0.1,0.1-0.2,0.2-0.2c0.4-0.4,1-0.6,1.6-0.4c3.6,1.3,6.9,3.4,10.4,5.1
	s7.1,3.3,10.8,4.9c1.3,0.6,0.4,2.8-1,2.3c-3.6-1.3-7.2-2.7-10.7-4.2c-3.4-1.3-6.7-2.8-9.9-4.5c0,0.1,0.1,0.1,0.1,0.2
	c1.2,2.4,2.4,4.8,3.7,7.2c0.7,1.2,1.3,2.5,2,3.7c0.3,0.5,0.6,1.2,1,1.9h0.5l2.8-0.1l5.5-0.3c3.6-0.2,7.1-0.4,10.7-0.7
	c5.5-0.5,11-1.2,16.4-2.2c-2.7-9.8-3.7-19.9-3-30.1c0.1-1.9,1.3-4.1,3.4-4.4c3.8-0.7,12.1-3.6,13.6,1.9c0,0.1,0,0.1,0,0.2
	c0.3,0.1,0.6,0.2,0.9,0.4l12.4,6.3l6,3.1l2.5,1.3l0.1-0.2c0.7-1.2,1.3-2.5,2-3.7c1.3-2.5,2.6-4.9,3.9-7.4c2.5-4.8,4.9-9.7,7.3-14.7
	c0.2-0.5,2.1-4.4,2.9-6.2c-0.3-0.3-0.5-0.7-0.7-0.9l-2.8-3l-11.1-12c-1.1-1.1-1.6-2.8-1.2-4.3c1.4-4.6,3.1-9.1,5-13.5
	c0.9-1.5,2.6-2.2,4.3-1.7l0.5-0.2c1.3-0.7,2.5-1.6,3.7-2.5c2.5-1.8,5.1-3.5,7.8-5.1c4.3-2.5,8.9-4.7,13.5-6.5
	c-3.2-9.3-7.7-18.1-13.4-26.2c-11,0.9-22.1,1.8-33.1,2.5c-1.6,0-3.1-0.8-3.9-2.2c-1.7-3.4-3.6-6.7-5.7-9.8c-2-3.1-4.9-5.9-6.4-9.3
	c-0.4-0.9-0.4-1.9-0.1-2.8c0.3-2.7,1.7-5.4,2.6-7.9c1-2.8,2-5.7,2.7-8.6c0.8-2.8,1.3-5.7,1.7-8.5c0.1-1,0.2-1-0.3-1.7
	c-0.8-1-1.6-1.9-2.5-2.7c-3.8-3.5-8.8-5.8-13.4-8.1c-3.8-1.8-7.5-3.9-11.1-6.3c-2.5,2.4-4.9,4.9-7.4,7.4c-1.6,1.7-3.2,3.4-4.8,5.1
	c-1.8,1.9-3.4,3.9-5.6,5.3c-1.6,0.9-3.7,0.6-5-0.7l0,0c-2.9-1-5.7-2.4-8.6-3.5c-3.3-1.3-6.6-2.4-10-3.3c-1.5-0.4-2.7-1.6-3.1-3.1
	c-0.7-3.5-1.4-6.9-2.2-10.4c-0.4-1.8-0.8-3.7-1.3-5.5c-0.3-1.2-0.9-2.6-1.1-3.9l-2.4-0.1c-1.7-0.1-3.4-0.1-5.1-0.2
	c-3.6-0.1-7.3-0.1-10.9-0.1l-5.1,0.1c-0.6,0-1.5,0.2-2.3,0.2c-0.3,1.5-0.8,3-1.2,4.4c-0.5,1.9-0.9,3.8-1.4,5.7
	c-0.8,3.6-1.6,7.2-2.4,10.7c-0.7,3.6-0.9,7.8-2.8,11c-0.5,0.9-1.4,1.5-2.4,1.8c-1.5,1.6-3.1,3.1-4.8,4.5c-2.9,2.5-5.6,4.6-9.6,4.6
	c-3.7-0.1-7.3-0.6-10.9-1.2c-3.6-0.6-7.1-1.3-10.6-2.3c-0.2,0-0.8-0.2-1.4-0.3c-0.9,1.4-2.5,3.6-2.8,4l-6.2,9.4
	c-2.1,3.2-4.1,6.3-6.2,9.5c-1,1.5-1.9,3.1-2.9,4.6l1.2,1c2.4,2,4.8,3.8,7.1,5.9c2.2,2,4.2,4.1,6.1,6.4c0.9,1.1,1.8,2.2,2.7,3.3
	c1.6,1.9,2.3,3.2,2,5.9c0,0.1,0,0.2,0,0.2c1,3.5,1.5,7.1,2.7,10.6c0.8,2.4-1,4.7-3.1,5.4c-7.6,2.6-15,5.7-22.2,9.3
	c1.8,4.9,3.1,9.9,4,15.1c1.1,5.5,2.7,10.8,4.9,15.9c4.5-1.2,9-2.3,13.6-3.2c2.9-0.6,5.9-1.1,8.8-1.5c3.1-0.4,5.9-0.7,9,0.3
	c2.1,0.2,3.7,1.6,5.6,2.8c2.1,1.4,4.2,2.6,6.5,3.7c2.3,1,2.5,4,1.6,6c-2.2,5-3.2,10.3-4.5,15.6c-1.3,5.5-2.4,11.1-3.9,16.5l1,0.6
	c2.4,1.6,4.8,3.2,7.2,4.8C721.3,765.4,725,768,728.7,770.6L728.7,770.6z M690.8,770.5L690.8,770.5
	C690.9,770.8,691,770.7,690.8,770.5L690.8,770.5C690.8,770.4,690.8,770.4,690.8,770.5L690.8,770.5z M688.9,769.3L688.9,769.3
	l-0.2-0.1C688.5,769.3,688.5,769.3,688.9,769.3z M677.6,759.7L677.6,759.7L677.6,759.7L677.6,759.7z M611.8,694.2L611.8,694.2
	c2,5.4,4.3,10.7,7,15.9l0.9,1.8c0.2,0.3,0.3,0.6,0.5,0.9c1.1,0.1,3.2,0.5,3.6,0.5c3.4,0.4,6.9,0.7,10.3,1.3c0.2,0,0.4,0.1,0.7,0.2
	c0.6-0.1,1.2,0,1.7,0.3c2.3,1.2,3.6,3.3,5.2,5.2c1.5,1.8,3.3,3.4,5.1,4.8c1.9,1.4,2.7,3.6,1.6,5.8c-2.2,4.1-4.6,8.1-7,12
	c3.6,3.2,7.1,6.5,10.4,10c1.9,2.1,3.8,4.3,5.7,6.4c0.9,1.1,1.9,2.1,3,3c0.2,0.2,0.5,0.4,0.7,0.5l0.1-0.1c0.5-1,1.1-1.9,1.7-2.9
	c1.1-1.9,2.1-3.9,3.3-5.7c1.3-2.2,3.7-3.6,6.3-3.5c2.3,0,4.6,0.1,6.9,0.4c4.9,0.7,7.2,4.7,8,9.2c0.3,1.9,0.8,3.8,1.4,5.6
	c0.3,0.9,0.6,1.7,1,2.5l0.4,0.7h0.4l2.2-0.1c1.7-0.1,3.4-0.1,5.1-0.2c3.2-0.1,6.4-0.1,9.5-0.1h3.6c-1.8-1.4-3.7-2.7-5.5-4.2
	c-1.2-0.9-2.4-1.8-3.5-2.8c-1.1-1-2-2.2-2.6-3.6c-0.7-1.2-0.3-2.8,0.9-3.5c0.1,0,0.1-0.1,0.2-0.1c1.1-5.6,2.6-11.2,4-16.8
	c1-4.2,1.7-9.1,3.5-13.3c-1.1-0.7-2.2-1.5-3.2-2.4c-1-0.7-1.9-1.5-2.8-2.4c-1.7,0.6-3.5,1-5.3,1.3c-2.9,0.5-5.8,1-8.7,1.6
	c-5.7,1.1-11.3,2.5-16.9,4.1c-2,0.5-4.1-0.4-5.1-2.1c-3.2-6.3-5.6-13-7-19.9c-1.3-6.2-2.2-12.8-5.3-18.4c-1.2-2.2-0.5-4.9,1.7-6.2
	c7.7-4.2,15.7-7.7,23.9-10.6c-0.5-2.4-0.7-4.9-0.5-7.3c-0.5-0.4-1-0.9-1.4-1.5c-1-1.2-2-2.4-3-3.5c-1.9-2.2-4-4.4-6.2-6.4
	c-2.3-2-4.8-3.8-6.9-6c-0.3-0.3-0.6-0.7-0.9-1.1c-2.5-0.4-4.3-2.7-3.9-5.3c0,0,0-0.1,0-0.1c0.1-0.5,0.2-1,0.4-1.5c0-0.2,0-0.4,0-0.5
	l-1.7,0.8c-3.1,1.4-6.1,2.9-9.2,4.4c-0.7,0.3-5.4,2.5-7.3,3.6c0.1,0.2,0.1,0.4,0.1,0.5c0.6,1.6,1.3,3.2,2,4.8c1.2,2.9,3,6.1,3,9.3
	s-2.5,6.5-4.1,9.3s-3.2,6.3-5.7,8.2c-0.1,0.1-0.2,0.2-0.3,0.3c-2.5,2.5-7.1,3.2-10.4,4.3l-9.4,3.1l-4.6,1.5
	C610,689,610.9,691.7,611.8,694.2L611.8,694.2z"/>
<path class="st4" d="M791.1,765.4c2-0.2,4.2,1.5,6,2.3c2.4,1,4.8,1.9,7.3,2.7c1.4,0.4,0.8,2.6-0.6,2.2c-2.6-0.8-5.2-1.6-7.7-2.6
	c-1.9-0.8-4.7-1.4-5.8-3.2c-0.2-0.4-0.1-0.9,0.3-1.2C790.8,765.4,791,765.4,791.1,765.4z"/>
<path class="st4" d="M801,764.3c-0.2-0.4-0.1-0.9,0.3-1.1c0,0,0.1,0,0.2-0.1c1.5-0.4,2.8,0.2,4.1,0.7l4.9,1.7c1.6,0.6,1,3.2-0.7,2.6
	l-5.2-1.9C803.2,765.8,801.9,765.5,801,764.3z"/>
<path class="st4" d="M838.6,714.2l3.9-0.6c1.4-0.2,2,1.9,0.6,2.2l-4.1,0.7c-1,0.2-2.6,0.7-3.4-0.2c-0.2-0.2-0.3-0.6-0.1-0.9
	C836,714.3,837.5,714.4,838.6,714.2z"/>
<path class="st4" d="M829.9,709c-0.2-0.3-0.2-0.7,0-1c0.7-1.2,1.7-1.2,3-1.4c1.7-0.2,3.5-0.2,5.2-0.3c3.5-0.3,6.9-0.7,10.3-1.3
	c2-0.4,2.9,2.7,0.8,3.1c-3.5,0.6-7,1.2-10.5,1.6C836.5,710,831.5,711.4,829.9,709z"/>
<path class="st4" d="M839.8,695.9c4.1-0.3,8.2-1.1,12.2-2.2c0.8-0.1,1.5,0.4,1.7,1.2c0.1,0.7-0.3,1.4-0.9,1.6
	c-3.7,1.2-7.5,2-11.3,2.5c-1.6,0.2-8.9,1.8-9.3-1S838.3,696.1,839.8,695.9z"/>
<path class="st4" d="M845.5,685.4c-1.7,0.1-3.9,0.7-5.5,0c-0.5-0.1-0.8-0.6-0.6-1.1c0-0.1,0-0.1,0.1-0.2c0.7-1.5,2.7-1.9,4.2-2
	c2.1-0.2,4.3-0.1,6.5-0.1c4.7-0.1,9.4-0.7,14-1.8c0.6-0.2,1.2,0.2,1.4,0.8c0.2,0.6-0.2,1.2-0.8,1.4c-4.2,1.2-8.5,2-12.9,2.6
	C849.8,685.2,847.7,685.3,845.5,685.4z"/>
<path class="st4" d="M860.5,674.3c-1.9,0.4-3.8,0.6-5.8,0.9s-4.2,0.8-5.9-0.3c-0.5-0.3-0.6-0.9-0.3-1.4c0-0.1,0.1-0.1,0.1-0.2
	c1.3-1.1,3.1-1.1,4.8-1.3c2.2-0.2,4.4-0.5,6.5-0.8c4.2-0.6,8.4-1.4,12.5-2.5c0.7-0.2,1.4,0.2,1.6,0.9s-0.2,1.4-0.9,1.6
	C868.9,672.4,864.8,673.5,860.5,674.3z"/>
<path class="st4" d="M709,709.1c-6.6,0.3-13.2,0.2-19.8-0.2c-3.2-0.2-6.5-0.5-9.7-0.9c-2.4-0.3-6.3-0.7-7.5-3.1
	c-0.3-0.6-0.1-1.3,0.5-1.7c0.1,0,0.2-0.1,0.3-0.1c1.4-0.3,2.6,0.3,4,0.4s2.6,0.3,3.9,0.5c3.2,0.5,6.5,0.8,9.7,1.2
	c6.2,0.6,12.5,0.9,18.8,0.9c0.8,0.1,1.5,0.8,1.4,1.6C710.3,708.5,709.7,709.1,709,709.1z"/>
<path class="st4" d="M705.1,699.7c-2.9,0-5.7-0.3-8.5-0.8c-2.1-0.4-6-0.7-7.1-2.8c-0.3-0.5-0.1-1.1,0.4-1.4c0.1,0,0.1-0.1,0.2-0.1
	c1.2-0.5,2.1,0,3.2,0.4s2.4,0.7,3.7,1c2.7,0.6,5.4,0.9,8.1,0.9c0.7,0.1,1.2,0.9,1.1,1.6C706.1,699.2,705.7,699.6,705.1,699.7z"/>
<path class="st4" d="M706.1,691.2c-2-0.3-4.1-0.7-6.1-1.2c-1.6-0.4-3.2-0.7-4.2-2.1c-0.3-0.5,0.1-1,0.5-1.2c1.6-0.6,3.2,0.1,4.8,0.5
	c1.9,0.5,3.8,0.8,5.7,1.1S708,691.5,706.1,691.2z"/>
<path class="st4" d="M711.4,679.5c-2.5,0.3-6.2,0.8-7.9-1.6c-0.2-0.4-0.2-0.9,0.2-1.2c1-0.7,2.3-1.1,3.5-1c1.4,0,2.8,0,4.2-0.2
	c1.1,0,2,0.9,2,2S712.5,679.4,711.4,679.5L711.4,679.5z"/>
<path class="st7" d="M682.2,614.5L667,638.1c8.7,7.3,9.6,7.3,17.2,16.5c2.6,3.2,1.9,3.7,2,6.1c1,3.5,1.5,7.1,2.7,10.6
	c0.8,2.4-1,4.7-3.1,5.4c-7.6,2.6-15,5.7-22.2,9.3c4,10.1,3.5,18.9,8.9,31l22.4-4.7c12-1.6,11.7,2.5,21.2,6.8c2.3,1.1,2.5,4,1.6,6
	c-3.3,7.2-5.8,23.3-8.3,32.1l19.5,13.2l20.5-18.7c2.9-2.2,3.7-3,7.5-1.3s11.3,4,13.5,7.1l4.8,9.4c1.7-2.2,7.1,2,12.2,4.4
	c3.5,1.7,7.1,3.3,10.8,4.9c1.3,0.5,0.4,2.8-1,2.3l-20.6-8.8l6.8,13l35.9-3.4c-2.7-9.8-3.7-19.9-3-30.1c0.1-1.9,1.3-4.1,3.4-4.4
	c3.5-0.6,12.5-3.7,13.6,2.1l21.9,11l16.3-32.2l-14.6-16c-1.1-1.1-1.6-2.8-1.2-4.3c1.4-4.6,3.1-9.1,5-13.5c1.2-2.6,3.6-1.3,4.8-2
	l11.6-7.6c4.3-2.5,8.9-4.7,13.5-6.5c-3.3-9.3-7.8-18.1-13.6-26.1c-11,0.9-22.1,1.8-33.1,2.5c-1.6,0-3.1-0.8-3.9-2.2
	c-1.7-3.4-3.6-6.7-5.7-9.8c-7.6-11.5-8.5-7.2-3.9-20c1-2.8,5.7-16.7,4.1-18.9c-5-6.8-18.6-11.1-27-17l-17.8,17.7c-2.3,1.4-4,0-5-0.7
	l-18.6-6.8c-1.5-0.4-2.7-1.6-3.1-3.1l-3.5-15.9c-0.3-1.2-0.9-2.6-1.1-3.9l-23.5-0.2c-0.6,0-1.5,0.2-2.3,0.2l-2.6,10.1
	c-0.8,3.6-1.6,7.1-2.4,10.7s-0.9,7.8-2.8,11c-0.6,0.9-1.4,1.5-2.4,1.8c-1.3,0.8-7.5,9.1-14.3,9.1l-22.9-3.8
	C684.1,612,682.5,614.2,682.2,614.5L682.2,614.5z M780.6,652.7c2.8,1.1,5.5,2.5,8,4.2c4.8,3.2,9.6,8.3,10,14.3
	c0,0.6-0.3,1.1-0.8,1.3c1,3.1,1.3,6.3,0.9,9.6c-0.6,5.4-3.1,10.5-7.1,14.2c-4,3.7-9,6-14.4,6.6c-6.2,0.8-11.9-1.3-17.5-3.8
	c-3-1.2-5.9-2.9-8.4-4.9c-2.4-2.1-3.9-5-5.3-7.8c-2.8-5.6-4.5-11.4-2.3-17.5c3.8-10.4,15.8-19.7,27.1-18.8
	C774.2,650.3,777.4,651.3,780.6,652.7L780.6,652.7z M690.2,705.2c6.2,0.6,12.5,0.9,18.8,0.9c0.8,0.1,1.4,0.8,1.3,1.7
	c-0.1,0.7-0.6,1.2-1.3,1.3c-6.6,0.3-13.2,0.2-19.8-0.2c-3.2-0.2-6.5-0.5-9.7-0.9c-2.4-0.3-6.3-0.7-7.5-3.1c-0.3-0.6-0.1-1.3,0.5-1.7
	c0.1,0,0.2-0.1,0.3-0.1c1.4-0.3,2.6,0.3,4,0.4l3.9,0.5C683.7,704.5,687,704.9,690.2,705.2L690.2,705.2z M791.1,765.4
	c2-0.2,4.2,1.5,6,2.3c2.4,1,4.8,1.9,7.3,2.7c1.4,0.4,0.8,2.6-0.6,2.2c-2.6-0.8-5.2-1.6-7.7-2.6c-1.9-0.8-4.7-1.4-5.8-3.2
	c-0.2-0.4-0.1-0.9,0.3-1.2C790.9,765.4,791,765.4,791.1,765.4L791.1,765.4z M839.5,684.1c0.7-1.5,2.7-1.9,4.2-2
	c2.1-0.2,4.3-0.1,6.5-0.1c4.7-0.1,9.4-0.7,14-1.8c0.6-0.2,1.2,0.2,1.4,0.8c0.2,0.6-0.2,1.2-0.8,1.4c-4.2,1.2-8.5,2-12.9,2.6
	c-2.1,0.3-4.2,0.4-6.4,0.5c-1.7,0.1-3.9,0.7-5.5,0c-0.5-0.1-0.8-0.7-0.6-1.2C839.4,684.1,839.4,684.1,839.5,684.1L839.5,684.1z
	 M707.3,675.7c1.4,0,2.8,0,4.2-0.2c1.1,0,2,0.9,2,2s-0.9,2-2,2c-2.5,0.3-6.2,0.8-7.9-1.6c-0.2-0.4-0.2-0.9,0.2-1.2
	C704.7,675.9,706,675.5,707.3,675.7L707.3,675.7z M706.8,688.3c1.9,0.3,1.1,3.2-0.8,2.9s-4.1-0.7-6.1-1.2c-1.6-0.4-3.2-0.7-4.2-2.1
	c-0.3-0.5,0.1-1,0.5-1.2c1.6-0.6,3.2,0.1,4.8,0.5C703,687.6,704.9,688,706.8,688.3L706.8,688.3z M705.1,697c0.8,0.1,1.3,0.7,1.2,1.5
	c-0.1,0.7-0.6,1.2-1.2,1.2c-2.9,0-5.7-0.3-8.5-0.8c-2.1-0.4-6-0.7-7.1-2.8c-0.3-0.5-0.1-1.1,0.4-1.4c0.1,0,0.1-0.1,0.2-0.1
	c1.2-0.5,2.1,0,3.2,0.4s2.4,0.7,3.7,1C699.6,696.7,702.4,697,705.1,697L705.1,697z M801,764.3c-0.2-0.4-0.1-0.9,0.3-1.1
	c0,0,0.1,0,0.2-0.1c1.5-0.4,2.8,0.2,4.1,0.7l4.9,1.7c1.6,0.6,1,3.2-0.7,2.6l-5.2-1.9C803.2,765.8,801.9,765.5,801,764.3L801,764.3z
	 M848.6,673.4c1.3-1.1,3.1-1.1,4.8-1.3c2.2-0.2,4.4-0.5,6.5-0.8c4.2-0.6,8.4-1.4,12.5-2.5c0.7-0.2,1.4,0.2,1.6,0.9s-0.2,1.4-0.9,1.6
	c-4.1,1.2-8.3,2.3-12.5,3.1c-1.9,0.4-3.8,0.6-5.8,0.9s-4.2,0.8-5.9-0.3c-0.5-0.3-0.6-0.9-0.3-1.4
	C848.5,673.5,848.6,673.4,848.6,673.4L848.6,673.4z M839.8,695.9c4.1-0.3,8.2-1.1,12.2-2.2c0.8-0.1,1.5,0.4,1.7,1.2
	c0.1,0.7-0.3,1.4-0.9,1.6c-3.7,1.2-7.5,2-11.3,2.5c-1.6,0.2-8.9,1.8-9.3-1S838.3,696.1,839.8,695.9L839.8,695.9z M829.9,709
	c-0.2-0.3-0.2-0.7,0-1c0.7-1.2,1.7-1.2,3-1.4c1.7-0.2,3.5-0.2,5.2-0.3c3.5-0.3,6.9-0.7,10.3-1.3c2-0.4,2.9,2.7,0.8,3.1
	c-3.5,0.6-7,1.2-10.5,1.6C836.5,710,831.5,711.4,829.9,709L829.9,709z M838.6,714.2l3.9-0.6c1.4-0.2,2,1.9,0.6,2.2l-4.1,0.7
	c-1,0.2-2.6,0.7-3.4-0.2c-0.2-0.2-0.3-0.6-0.1-0.9C836,714.3,837.5,714.4,838.6,714.2z"/>
<line class="st3" x1="1205.8" y1="830.1" x2="1205.8" y2="875.8"/>
<line class="st3" x1="1228.7" y1="853" x2="1182.9" y2="853"/>
<path class="st4" d="M685.1,1029.3c-1.9-0.1-3.7-0.1-5.6,0.1l0,0h-0.1c-1.9,0.1-3.7,0.2-5.6,0.1c-0.1,0-2.5-0.7-2.6,1
	c-0.1,1.9,2.3,2.7,2.4,2.7c1.8,0.6,3.7,0.8,5.5,0.6h0.1c1.9-0.1,3.8-0.4,5.6-0.8c0.1,0,2.5-0.1,2.6-1.8S685.3,1029.3,685.1,1029.3
	L685.1,1029.3z M582.2,1026.1c-60.8-0.2-121.8,0.7-182.6,1.3h-1.7h-1.8c-60.7,0.7-121.4,1.1-182,1.3c-3.6,0-82.4-1.3-82.5,3.1
	c-0.2,5.1,78.9,6.6,82.4,6.7c60.5,1.5,121.7,1.2,182.2,0.6c0.6,0,1.2,0,1.8,0s1.1,0,1.7,0c60.8-0.7,121.8-1.8,182.5-3.2
	c3.6-0.1,83-0.7,83-5.3C665.3,1025.6,585.8,1026.1,582.2,1026.1L582.2,1026.1z M121,1027.9c-3.1-0.2-6.1-0.2-9.2,0.2h-0.1
	c0,0-0.1,0-0.1,0c-3,0.2-6.1,0.3-9.1,0.1c-0.2,0-4.1-1.1-4.2,1.6c-0.2,3.2,3.7,4.4,3.9,4.4c2.9,1,6,1.4,9.1,1h0.1c0,0,0.1,0,0.1,0
	c3.1-0.2,6.2-0.7,9.2-1.3c0.2,0,4.2-0.2,4.3-3C125.2,1027.8,121.2,1027.9,121,1027.9L121,1027.9z"/>
<path class="st4" d="M1298,1029.3c-1.9-0.1-3.7-0.1-5.6,0.1h-0.1h-0.1c-1.9,0.1-3.7,0.2-5.6,0.1c-0.1,0-2.5-0.7-2.6,1
	c-0.1,1.9,2.3,2.7,2.4,2.7c1.8,0.6,3.7,0.8,5.6,0.6h0.1c1.9-0.1,3.8-0.4,5.6-0.8c0.1,0,2.6-0.1,2.6-1.8S1298.1,1029.3,1298,1029.3
	L1298,1029.3z M1195.1,1026.1c-60.8-0.2-121.8,0.7-182.6,1.3h-1.7h-1.8c-60.7,0.7-121.4,1.1-182,1.3c-3.6,0-82.4-1.3-82.5,3.1
	c-0.2,5.1,78.9,6.6,82.4,6.7c60.5,1.5,121.7,1.2,182.2,0.6c0.6,0,1.2,0,1.8,0s1.1,0,1.7,0c60.8-0.7,121.7-1.8,182.5-3.2
	c3.6-0.1,83-0.7,83-5.3C1278.1,1025.6,1198.6,1026.1,1195.1,1026.1L1195.1,1026.1z M733.9,1027.9c-3.1-0.2-6.1-0.2-9.2,0.2
	c0,0-0.1,0-0.1,0c0,0-0.1,0-0.1,0c-3,0.2-6.1,0.3-9.1,0.1c-0.2,0-4.1-1.1-4.2,1.6c-0.2,3.2,3.7,4.4,3.9,4.4c2.9,1,6,1.4,9.1,1h0.1
	c0,0,0.1,0,0.1,0c3.1-0.2,6.2-0.7,9.2-1.3c0.2,0,4.2-0.2,4.3-3C738,1027.8,734,1027.9,733.9,1027.9L733.9,1027.9z"/>
<path class="st4" d="M1130.5,799.1c1.2,0.4,2.3,1.2,3,2.3c1.3,1.9,2.6,3.9,3.8,5.9c5.2,8.8,9.1,18.3,12.6,27.8
	c3.6,9.9,6.4,20,8.5,30.3c3.7,18.5,4.9,37.7,2,56.4c3.3,5.7,6.5,11.4,10.2,16.9c7.8,11.4,16.9,21.7,24.9,32.9
	c4,5.5,7.6,11.2,10.7,17.2c1.3,2.5,2.4,5,3.5,7.6c3.6,5.4,4.3,12.6,3.5,18.9c-1.2,8.6-5.4,16.3-11.2,22.6
	c-5.2,5.4-11.1,10.1-17.6,13.9c-6.3,3.8-12.9,7.3-19.7,10.3c-13.9,6.3-28.5,11.1-43.5,14.2c-15.1,3-30.4,4.3-45.8,3.8
	c-1.3,0-2.6-0.1-4-0.2c-2.9,1.4-6.2,0.9-9.3,0.6s-6.1-0.7-9.1-1.2c-1-0.2-2-0.3-2.9-0.5c-0.2,0-0.5,0-0.7,0
	c-2.7-0.3-5.4-0.7-8.1-1.3c-10.4-2.2-20.6-5.2-30.8-8.1s-20.5-6.2-30.6-9.7c-20.2-6.9-39.9-15.1-58.9-24.7
	c-17.3-8.7-33.8-18.9-49.3-30.5c-15-11.2-28.8-24-41.1-38.2c-6.2-7.2-11.9-14.7-17.2-22.5c-2.6-3.9-5-7.9-7.2-12
	c-1.1-2.1-2.1-4.1-3.1-6.3s-1.5-4.5-2.3-6.7c-0.5-1.4-0.1-3,1.1-3.9l-0.3-2.3c-1-6.5-1.2-13.2-0.8-19.8c0.5-6,1.8-11.8,4-17.4
	c1.1-2.8,2.5-5.5,4.1-8.1c1.4-2.2,3.2-5.1,5.6-6.5c2-21.9,8.7-43.1,19.6-62.2c15.5-27.2,38.7-49.2,66.7-63.1
	c28.8-14.3,60.8-21,93-19.5c16,0.7,31.7,3.6,46.9,8.7c17.1,5.9,33.8,13.2,48.2,24.3c13,10.2,24.3,22.5,33.3,36.3
	C1125.1,789.8,1127.9,794.4,1130.5,799.1z"/>
<path class="st14" d="M835.1,916.7c-0.8-0.7-1.6-1.4-2.4-2.1c-0.8-0.7-1.9-0.6-2.6,0.2c0,0-0.1,0.1-0.1,0.1
	c-2.1-5.2-3.8-10.6-5-16.2c0.2-0.6,0.3-1.2,0.3-1.9c-0.6-7.3-1.4-14.5-1.4-21.8c0-7,0.6-14.1,1.8-21c2.5-14.1,7.1-27.8,13.6-40.6
	c9.2-18.2,21.9-34.3,37.4-47.6c19-4.6,39.8,0.9,57.5,7.7c64.1,24.5,109.6,82.1,118.6,150.1c3.2,23.9,1.9,48.3-3.9,71.7
	c-0.6,2.4-1.2,4.8-1.6,7.3c-4.1,0.5-8.1,0.9-12.2,1.2c-6.4,0.5-12.9,0.8-19.4,1c-5.2,0.2-10.3,0-15.5,0.2c-2.3-0.1-4.5-0.2-6.8-0.4
	c-8.3-0.6-16.5-1.5-24.7-2.9c-16.8-2.8-33.2-7.2-49.1-13.2c-15.3-5.6-29.9-12.9-43.6-21.6c-12.9-8.3-25-18.4-34.2-30.7
	c-4.1-5.6-7.7-11.6-10.5-17.9c0.4,0.4,0.7,0.7,1.1,1.1c0.8,0.9,1.8,1.5,3,1.8c1.1,0.1,1.6-1.1,1.5-1.9
	C836.7,918.3,836,917.4,835.1,916.7z"/>
<path class="st15" d="M835.1,916.7c-0.8-0.7-1.6-1.4-2.4-2.1c-0.8-0.7-1.9-0.6-2.6,0.2c0,0-0.1,0.1-0.1,0.1
	c-2.1-5.2-3.8-10.6-5-16.2c0.2-0.6,0.3-1.2,0.3-1.9c-0.6-7.3-1.4-14.5-1.4-21.8c0-7,0.6-14.1,1.8-21c2.5-14.1,7.1-27.8,13.6-40.6
	c9.2-18.2,21.9-34.3,37.4-47.6c0,0-68.2,151.4,20.8,213c-7.3-3.6-14.4-7.6-21.2-11.9c-12.9-8.3-25-18.4-34.2-30.7
	c-4.1-5.6-7.7-11.6-10.5-17.9c0.4,0.4,0.7,0.7,1.1,1.1c0.8,0.9,1.8,1.5,3,1.8c1.1,0.1,1.6-1.1,1.5-1.9
	C836.7,918.2,836,917.3,835.1,916.7L835.1,916.7z M962,1000.6L897.4,979c7.3,3.6,14.8,6.8,22.4,9.6
	C933.5,993.8,947.6,997.8,962,1000.6z"/>
<path class="st14" d="M816.4,897.3c-0.9-3.4-1.5-6.9-1.8-10.5c-0.1-1.3-0.2-2.7-0.3-4c-1,3.7-1.7,7.5-1.9,11.4
	c-0.3,5.8,0,11.7,0.8,17.4c0.5,3.2,1,6.4,1.5,9.5c0.3,1.7,0.6,3.4,0.7,5.2c0,0.2,0,0.4,0,0.6c0.3,0.5,0.6,0.9,0.9,1.4
	c2.8,4.3,5.7,8.5,8.7,12.6c5.8,8,12.2,15.5,19,22.6c25.7,26.9,56.9,48,90.3,64.2c18.7,8.9,37.8,16.7,57.4,23.3
	c9.8,3.4,19.6,6.6,29.5,9.6c5.1,1.5,10.1,3,15.2,4.6l4.3,1.3c1,0.2,2.1,0.4,3.2,0.6c3.8,0.7,7.7,1.2,11.6,1.3
	c4,0.2,7.9,0.2,11.9,0.3s8,0.1,11.9,0c28-0.4,55.7-6.6,81.2-18.3c11.9-5.5,24.7-12,33.4-22.1c3.9-4.4,6.4-9.7,7.4-15.5
	c0.3-1.7,0.3-3.4,0.2-5.1c-0.2-0.5-0.5-1.1-0.7-1.6c-0.7-1.7-1.4-3.4-2.1-5.1c-1.3-3.3-2.8-6.5-4.6-9.5
	c-6.5-11.7-15.1-22.1-23.2-32.8c-4.2-5.5-8.3-11.1-11.9-17c-0.8-1.3-1.5-2.6-2.3-3.8c-5.1,17.3-14.9,32.8-28.3,44.8
	c-17.2,15.1-38.8,24.4-61.1,29c-13.4,2.6-27,4-40.7,4.1c-1.7,0-3.5,0-5.2,0c-0.7,0.4-1.4,0.6-2.2,0.7c-5,0.6-10.1,0.9-15.2,1
	c-5,0-10-0.4-15-0.8c-10.1-0.8-20.1-2.2-30-4.2c-17.3-3.4-34.3-8.5-50.7-15.2c-15.9-6.6-31.5-14.5-45.6-24.5
	c-13.9-10-26.2-22.2-34.8-37c-4.3-7.2-7.5-14.9-9.7-23C817.2,907.9,816.5,902.6,816.4,897.3z"/>
<path class="st15" d="M816.4,897.3c-0.9-3.4-1.5-6.9-1.8-10.5c-0.1-1.3-0.2-2.7-0.3-4c-1,3.7-1.7,7.5-1.9,11.4
	c-0.3,5.8,0,11.7,0.8,17.4c0.5,3.2,1,6.4,1.5,9.5c0.3,1.7,0.6,3.4,0.7,5.2c0,0.2,0,0.4,0,0.6c0.3,0.5,0.6,0.9,0.9,1.4
	c2.8,4.3,5.7,8.5,8.7,12.6c5.8,8,12.2,15.5,19,22.6c25.7,26.9,56.9,48,90.3,64.2c18.7,8.9,37.8,16.7,57.4,23.3
	c9.8,3.4,19.6,6.6,29.5,9.6c5.1,1.5,10.1,3,15.2,4.6l4.3,1.3c1,0.2,2.1,0.4,3.2,0.6c3.8,0.7,7.7,1.2,11.6,1.3
	c4,0.2,7.9,0.2,11.9,0.3s8,0.1,11.9,0c28-0.4,55.7-6.6,81.2-18.3c11.9-5.5,24.7-12,33.4-22.1c3.9-4.4,6.4-9.7,7.4-15.5
	c0.3-1.7,0.3-3.4,0.2-5.1c-120.3,70.5-189.7,9.3-189.7,9.3c-2.5,0.2-5.1,0.3-7.6,0.3c-5-0.1-10-0.4-15-0.8
	c-10.1-0.8-20.1-2.2-30-4.2c-17.3-3.4-34.3-8.5-50.7-15.2c-15.9-6.6-31.5-14.4-45.6-24.4c-13.9-10-26.2-22.2-34.8-37
	c-4.3-7.2-7.5-14.9-9.7-23C817.2,907.9,816.5,902.6,816.4,897.3z"/>
<path class="st7" d="M1027.2,757.6c-0.3,1.2-1.6,1.9-2.8,1.6c-0.3-0.1-0.5-0.2-0.7-0.3c-2.7-1.9-5.6-3.4-8.3-5.1s-5.5-3.5-8.4-5.1
	c-10.1-5.6-20.9-9.9-32.1-12.8c-5.6-1.4-11.3-2.5-17-3.2c-2.9-0.4-5.7-0.6-8.6-0.8h-0.7c-18.1,3.7-35.5,10.3-51.4,19.6
	c-2.1,1.2-4.2,2.5-6.2,3.8c6.3,0,12.6,0.6,18.8,1.8c11.7,2.3,23.2,5.9,34.1,10.7c21,9,40.3,21.5,57.1,37c36,33,58.1,78.5,61.8,127.1
	c1.1,12.6,0.9,25.3-0.5,37.9c-0.7,6.3-1.7,12.5-3,18.7c-0.9,4.4-2,8.6-3.3,12.9c5.4-0.9,10.9-2,16.2-3.4
	c18.9-4.9,37.3-13.6,51.4-27.3c2.1-6.7,4.3-13.4,5.8-20.3c1.8-8.2,3.1-16.5,3.7-24.9c3.1-42-11.2-83.4-39.4-114.7
	c-8.9-9.9-19.2-18.2-29.4-26.7c-1.4-1.1-1.6-3-0.5-4.4c0-0.1,0.1-0.1,0.1-0.2C1050.3,769.2,1034,760.9,1027.2,757.6z"/>
<path class="st14" d="M975.6,728.3c7,2,13.8,4.4,20.4,7.4c5.6,2.5,11,5.4,16.2,8.6c2.6,1.5,5.2,3.2,7.6,5.1c2.3,1.8,4.5,3.9,6.7,5.8
	c0.4,0.3,0.6,0.7,0.7,1.1c6.6,3.2,23.5,11.7,37.3,22.5c1-0.7,2.4-0.8,3.5-0.2c13.9,7.1,25.8,18.5,35.7,30.4
	c29,34.1,42.5,78.8,37.3,123.2c-0.8,7.1-2.1,14.1-3.9,20.9c6-10.8,10-22.6,11.6-34.9c2.7-19.1,0.7-39.2-3.8-57.9
	c-3.2-12.7-7.5-25.2-12.9-37.1c-0.1-0.2-0.2-0.4-0.3-0.6c-7.9-13.4-15.6-26.9-25.2-39.1c-9.4-11.9-20.6-22.7-33.5-30.8
	c-7.5-4.6-15.4-8.6-23.6-11.8c-7.4-3.1-15-5.6-22.7-7.8c-14.4-3.7-29.2-5.5-44.1-5.2C980.1,728.1,977.9,728.2,975.6,728.3z"/>
<path class="st4" d="M1130.5,799.1c1.2,0.4,2.3,1.2,3,2.3c1.3,1.9,2.6,3.9,3.8,5.9c5.2,8.8,9.1,18.3,12.6,27.8
	c3.6,9.9,6.4,20,8.5,30.3c3.7,18.5,4.9,37.7,2,56.4c3.3,5.7,6.5,11.4,10.2,16.9c7.8,11.4,16.9,21.7,24.9,32.9
	c4,5.5,7.6,11.2,10.7,17.2c1.3,2.5,2.4,5,3.5,7.6c3.6,5.4,4.3,12.6,3.5,18.9c-1.2,8.6-5.4,16.3-11.2,22.6
	c-5.2,5.4-11.1,10.1-17.6,13.9c-6.3,3.8-12.9,7.3-19.7,10.3c-13.9,6.3-28.5,11.1-43.5,14.2c-15.1,3-30.4,4.3-45.8,3.8
	c-1.3,0-2.6-0.1-4-0.2c-2.9,1.4-6.2,0.9-9.3,0.6s-6.1-0.7-9.1-1.2c-1-0.2-2-0.3-2.9-0.5c-0.2,0-0.5,0-0.7,0
	c-2.7-0.3-5.4-0.7-8.1-1.3c-10.4-2.2-20.6-5.2-30.8-8.1s-20.5-6.2-30.6-9.7c-20.2-6.9-39.9-15.1-58.9-24.7
	c-17.3-8.7-33.8-18.9-49.3-30.5c-15-11.2-28.8-24-41.1-38.2c-6.2-7.2-11.9-14.7-17.2-22.5c-2.6-3.9-5-7.9-7.2-12
	c-1.1-2.1-2.1-4.1-3.1-6.3s-1.5-4.5-2.3-6.7c-0.5-1.4-0.1-3,1.1-3.9l-0.3-2.3c-1-6.5-1.2-13.2-0.8-19.8c0.5-6,1.8-11.8,4-17.4
	c1.1-2.8,2.5-5.5,4.1-8.1c1.4-2.2,3.2-5.1,5.6-6.5c2-21.9,8.7-43.1,19.6-62.2c15.5-27.2,38.7-49.2,66.7-63.1
	c28.8-14.3,60.8-21,93-19.5c16,0.7,31.7,3.6,46.9,8.7c17.1,5.9,33.8,13.2,48.2,24.3c13,10.2,24.3,22.5,33.3,36.3
	C1125.1,789.8,1127.9,794.4,1130.5,799.1L1130.5,799.1z M975.6,728.3c7,2,13.8,4.4,20.4,7.4c5.6,2.5,11,5.4,16.2,8.6
	c2.6,1.5,5.2,3.2,7.6,5.1c2.3,1.8,4.5,3.9,6.7,5.8c0.9,0.9,1,2.3,0.1,3.2c-0.8,0.8-2,1-3,0.4c-2.7-1.9-5.5-3.4-8.3-5.1
	s-5.5-3.5-8.4-5.1c-10.1-5.6-20.9-9.9-32.2-12.8c-5.6-1.4-11.3-2.5-17-3.2c-2.9-0.4-5.7-0.6-8.6-0.8h-0.7
	c-18.1,3.7-35.5,10.3-51.4,19.6c-2.1,1.2-4.2,2.5-6.2,3.8c6.3,0,12.6,0.6,18.8,1.8c11.7,2.3,23.2,5.9,34.1,10.7
	c21,9,40.3,21.5,57.1,37c36,33,58.1,78.5,61.8,127.1c1.1,12.6,0.9,25.3-0.5,37.9c-0.7,6.3-1.7,12.5-3,18.7c-0.9,4.4-2,8.6-3.3,12.9
	c5.4-0.9,10.9-2,16.2-3.4c18.9-4.9,37.3-13.6,51.4-27.3c2.1-6.7,4.3-13.4,5.8-20.3c1.8-8.2,3.1-16.5,3.7-24.9
	c3.1-42-11.2-83.4-39.4-114.7c-8.9-9.9-19.2-18.2-29.4-26.7c-3.1-2.6,0.4-7.3,3.9-5.5c13.9,7.1,25.8,18.5,35.7,30.4
	c29,34.1,42.5,78.7,37.3,123.2c-0.8,7.1-2.1,14.1-3.9,20.9c6-10.8,10-22.6,11.6-34.9c2.7-19.1,0.7-39.2-3.8-57.9
	c-3.2-12.7-7.5-25.1-12.9-37.1c-0.1-0.2-0.2-0.4-0.3-0.6c-7.9-13.4-15.6-26.9-25.2-39.1c-9.4-11.9-20.6-22.7-33.5-30.8
	c-7.5-4.6-15.4-8.6-23.6-11.8c-7.4-3-15-5.6-22.7-7.8c-14.4-3.7-29.2-5.5-44.1-5.2C980.1,728.1,977.9,728.2,975.6,728.3L975.6,728.3
	z M1000.3,1005.1c5.2-0.2,10.3-0.1,15.5-0.2c6.5-0.2,12.9-0.5,19.4-1c4.1-0.3,8.2-0.7,12.2-1.2c0.5-2.4,1-4.9,1.6-7.3
	c5.8-23.4,7.1-47.8,3.9-71.7c-9.3-67.9-54.8-125.3-118.6-150.1c-17.8-6.8-38.6-12.3-57.5-7.7c-15.5,13.2-28.2,29.4-37.4,47.6
	c-6.5,12.8-11.1,26.5-13.6,40.6c-1.2,6.9-1.8,14-1.8,21c0,7.3,0.8,14.6,1.4,21.8c0.1,0.6,0,1.3-0.3,1.9c2.9,13.6,8.7,26.4,17,37.5
	c9.2,12.3,21.3,22.4,34.2,30.7c13.7,8.7,28.4,15.9,43.6,21.6c15.9,6,32.3,10.4,49.1,13.2c8.2,1.4,16.4,2.3,24.6,2.9
	C995.8,1004.9,998.1,1005,1000.3,1005.1L1000.3,1005.1z M816.4,897.3c-0.9-3.4-1.5-6.9-1.8-10.5c-0.1-1.3-0.2-2.7-0.3-4
	c-1,3.7-1.7,7.5-1.9,11.4c-0.3,5.8,0,11.7,0.8,17.4c0.5,3.2,1,6.4,1.5,9.5c0.3,1.7,0.6,3.4,0.7,5.2c0,0.2,0,0.4,0,0.6
	c0.3,0.5,0.6,0.9,0.9,1.4c2.8,4.3,5.7,8.5,8.7,12.6c5.8,8,12.2,15.5,19,22.6c25.7,26.9,56.9,48,90.3,64.2
	c18.7,8.9,37.8,16.7,57.4,23.3c9.8,3.4,19.6,6.6,29.5,9.6c5.1,1.5,10.1,3,15.2,4.6l4.3,1.3c1,0.2,2.1,0.4,3.2,0.6
	c3.8,0.7,7.7,1.2,11.6,1.3c4,0.2,7.9,0.2,11.9,0.3s8,0.1,11.9,0c28-0.4,55.7-6.6,81.2-18.3c11.9-5.5,24.7-12,33.4-22.1
	c3.9-4.4,6.4-9.7,7.4-15.5c0.3-1.7,0.3-3.4,0.2-5.1c-0.2-0.5-0.5-1.1-0.7-1.6c-0.7-1.7-1.4-3.4-2.1-5.1c-1.3-3.3-2.8-6.5-4.6-9.5
	c-6.5-11.7-15.1-22.1-23.2-32.8c-4.2-5.5-8.3-11.1-11.9-17c-0.8-1.3-1.5-2.6-2.3-3.8c-5.1,17.3-14.9,32.8-28.3,44.8
	c-17.2,15.1-38.8,24.4-61.1,29c-13.4,2.6-27,4-40.7,4.1c-1.7,0-3.5,0-5.2,0c-0.7,0.4-1.4,0.6-2.2,0.7c-5,0.6-10.1,0.9-15.2,1
	c-5,0-10-0.4-15-0.8c-10.1-0.8-20.1-2.2-30-4.2c-17.3-3.4-34.3-8.5-50.7-15.2c-15.9-6.6-31.5-14.5-45.6-24.5
	c-13.9-10-26.2-22.2-34.8-37c-4.3-7.2-7.5-14.9-9.7-23C817.2,907.9,816.5,902.6,816.4,897.3z"/>
<path class="st4" d="M1049.8,772.5c1.6,0.7,2.9-1.5,1.4-2.3c-1.5-0.8-2.9-1.7-4.1-2.9c-1-1.2-2.1-2.3-3.3-3.2
	c-0.4-0.2-1-0.1-1.2,0.3c-0.1,0.1-0.1,0.3-0.1,0.4C1042.6,768.4,1046.9,771.2,1049.8,772.5z"/>
<path class="st4" d="M1016.7,1053.8l-4.1-3.3c-1.5-1.2-3.6,0.9-2.1,2.1l4.3,3.5c1.1,0.9,2.3,2.4,3.9,1.9c0.4-0.1,0.6-0.4,0.6-0.8
	C1019.5,1055.6,1017.8,1054.7,1016.7,1053.8z"/>
<path class="st4" d="M1041.1,1061c-1.8-1.4-3.6-2.7-5.4-4c-3.7-2.6-7.7-4.9-11.9-6.7c-1.8-0.7-2.6,2-1.2,2.9c3.7,2.6,7.6,5,11.2,7.7
	c1.8,1.3,3.6,2.8,5.4,4.1c1.1,0.8,3.7,2.4,4.6,0.5C1044.6,1063.8,1042.2,1061.9,1041.1,1061z"/>
<path class="st4" d="M1063.9,1061.2c-2.2-1.5-4.5-2.9-6.8-4.1c-4.6-2.7-9.4-4.7-14.5-6.2c-1.7-0.4-3,2.2-1.3,3
	c4.6,2.3,9.2,4.3,13.7,6.8c2.1,1.2,4.2,2.5,6.2,3.9c1.6,1.1,4.4,3.7,6.4,2.9c0.5-0.2,0.9-0.7,0.9-1.2
	C1068.8,1064.1,1065.5,1062.3,1063.9,1061.2z"/>
<path class="st4" d="M1078.3,1055.1c-2.7-1.6-5.6-2.8-8.6-3.6c-1.9-0.4-3.4,2.4-1.4,3.4c2.7,1.3,5.3,2.4,7.9,3.9
	c2.3,1.3,4.7,3.5,7.3,3.8c0.7,0,1.2-0.6,1.2-1.2c0-0.1,0-0.2,0-0.3C1083.8,1058.3,1080.6,1056.4,1078.3,1055.1z"/>
<path class="st4" d="M1099.6,1053.4c-2.9-1.6-5.8-3.3-8.6-5.1c-2.4-1.6-4.7,2.3-2.3,3.9c2.9,1.9,5.8,3.7,8.8,5.2
	c2.5,1.3,6.1,3.7,9,2.7c0.6-0.2,1-0.8,0.8-1.4c0-0.1-0.1-0.2-0.1-0.2C1106.1,1055.9,1102.1,1054.7,1099.6,1053.4z"/>
<path class="st4" d="M1118.1,1049.3c-2.3-1-4.7-1.5-7.2-1.4c-2.9,0.1-2.9,4.4,0,4.4c1.9,0,3.7,0.4,5.3,1.3c1.4,0.8,3.2,2,4.9,1.9
	c0.7,0,1.2-0.5,1.2-1.2C1122.5,1052,1119.9,1050.2,1118.1,1049.3z"/>
<path class="st4" d="M1130.5,1044.6c-2.4-1.3-4.5,2.3-2.1,3.6c2.6,1.5,5.4,3.5,8.3,4.3c1,0.2,2-0.4,2.3-1.4c0.2-0.6,0-1.3-0.5-1.7
	C1136.3,1047.3,1133.2,1046,1130.5,1044.6z"/>
<path class="st4" d="M1148.2,1040.9l-3.7-1.3c-1.4-0.4-2.9,0.4-3.3,1.8c-0.3,1.4,0.5,2.8,1.8,3.3l3.5,1.3c1.3,0.5,2.5,1,3.9,0.6
	c1.3-0.4,2-1.7,1.6-3c0-0.2-0.1-0.3-0.2-0.5C1151,1041.8,1149.7,1041.4,1148.2,1040.9z"/>
<path class="st4" d="M835.1,916.7c-0.8-0.7-1.6-1.4-2.4-2.1c-1.7-1.4-4.1,0.8-2.5,2.5c0.8,0.8,1.6,1.6,2.4,2.4
	c0.8,0.9,1.8,1.5,3,1.8c1.1,0.1,1.6-1.1,1.5-1.9C836.7,918.3,836,917.4,835.1,916.7z"/>
<path class="st4" d="M835.8,905.2c-1.3-1.2-2.8-2.3-4.3-3.2c-1.5-0.8-3.7,0.9-2.5,2.5c1.1,1.5,2.4,2.9,3.9,4.1
	c1.3,1.4,2.8,2.5,4.5,3.3c1.7,0.6,3-1.5,2.2-2.9C838.7,907.4,837.1,906.3,835.8,905.2z"/>
<path class="st4" d="M832,895.3c1.4,1.5,2.5,3.4,4.5,4.2c1,0.3,1.9-0.3,2.2-1.3c0-0.2,0.1-0.3,0.1-0.5c-0.2-2.3-2.1-4-3.7-5.5
	c-1.5-1.6-3.4-2.9-5.5-3.7c-1.2-0.4-2.5,1.2-1.8,2.3C829.1,892.4,830.5,893.9,832,895.3z"/>
<path class="st4" d="M831.4,881.5c1.4,1.5,2.7,3.7,4.6,4.5c0.9,0.5,2.1,0.2,2.6-0.8c0.2-0.4,0.3-0.9,0.2-1.4c-0.4-2.2-2.4-4-3.9-5.5
	c-1.5-1.7-3.3-3.2-5.2-4.4c-1.6-0.8-4,1-2.7,2.7C828.4,878.4,829.9,880,831.4,881.5z"/>
<path class="st4" d="M826.7,865.1c1.7,1.5,3.5,3,5.2,4.5c1.6,1.6,3.4,3.1,5.3,4.4c2.5,1.6,5-1.9,3.1-4c-1.6-1.5-3.3-2.9-5.1-4.2
	c-1.7-1.3-3.5-2.7-5.2-4.1C827.7,859.9,824.4,863.1,826.7,865.1z"/>
<path class="st4" d="M828.4,853.2c1.7,1.4,3.4,2.9,5.1,4.3c1.5,1.2,3.1,2.6,5.1,2.1c0.4-0.1,0.8-0.5,0.8-1c0.1-2.1-1.7-3.4-3.2-4.5
	c-1.8-1.4-3.6-2.7-5.4-4S826.6,851.8,828.4,853.2z"/>
<path class="st4" d="M835,839.8c1.5,1.3,3.2,2.3,5,3.1c1.2,0.4,2.6-1.2,1.8-2.3c-0.6-0.9-1.4-1.6-2.3-2.2l-2.6-1.7
	c-0.9-0.5-2-0.2-2.6,0.7C833.8,838.1,834.1,839.2,835,839.8z"/>
<path class="st4" d="M837.6,825.9c0.7,0.6,1.4,1.2,2.2,1.7c0.8,0.6,1.8,0.8,2.8,0.7c0.7-0.2,1.1-0.8,1.1-1.5c0-0.1,0-0.3-0.1-0.5
	c0,0.1,0,0,0-0.2c0-0.2,0-0.4-0.1-0.5c-0.2-0.5-0.5-0.9-0.9-1.3c-0.5-0.6-1.1-1.1-1.6-1.6c-0.9-0.9-2.4-0.9-3.3,0
	S836.7,825,837.6,825.9L837.6,825.9L837.6,825.9z"/>
<path class="st4" d="M843.6,826.3L843.6,826.3C843.6,826.1,843.6,826.2,843.6,826.3z"/>
</svg>
